<svg width="169" height="127" viewBox="0 0 169 127" fill="none" xmlns="http://www.w3.org/2000/svg">
<path fill-rule="evenodd" clip-rule="evenodd" d="M1.33643 75.4175L55.9425 54.3197L73.4127 37.3269L23.1025 55.5607L1.33643 75.4175Z" fill="url(#paint0_radial_208:380)"/>
<path fill-rule="evenodd" clip-rule="evenodd" d="M129.546 52.9832L154.272 36.2768L141.957 109.88C141.957 109.88 130.883 121.145 122.1 126.3L129.546 52.9832Z" fill="url(#paint1_radial_208:380)"/>
<path fill-rule="evenodd" clip-rule="evenodd" d="M122.1 126.3C122.1 126.3 68.3532 126.491 29.6898 122.673C29.6898 122.673 22.6254 72.4581 23.4846 54.3197L129.546 53.0786C129.546 52.9832 124.964 106.444 122.1 126.3Z" fill="url(#paint2_radial_208:380)"/>
<path fill-rule="evenodd" clip-rule="evenodd" d="M23.4844 54.3197L72.9354 36.5632L154.272 36.2768L129.546 52.9832L23.4844 54.3197Z" fill="url(#paint3_radial_208:380)"/>
<path fill-rule="evenodd" clip-rule="evenodd" d="M27.3032 53.7469C27.3032 53.7469 119.809 52.9832 129.642 51.5512C129.642 51.5512 149.785 39.2362 152.267 36.8496C152.267 36.8496 90.3103 36.8496 73.5084 37.3269L27.3032 53.7469Z" fill="url(#paint4_radial_208:380)"/>
<path opacity="0.58" d="M73.4126 37.3269L72.9353 53.1741L129.546 51.4557L152.171 36.7541C152.171 36.8496 98.1381 36.3722 73.4126 37.3269Z" fill="#FFDD98"/>
<path fill-rule="evenodd" clip-rule="evenodd" d="M11.4558 89.7373L12.4105 90.5965L116.658 94.606L114.749 93.5559C114.749 93.5559 42.2911 88.2098 11.4558 89.7373Z" fill="#D2715E"/>
<path fill-rule="evenodd" clip-rule="evenodd" d="M128.592 53.1741L114.749 93.5559C114.749 93.5559 56.6109 89.3554 11.4558 89.7373L23.4844 54.3197L128.592 53.1741Z" fill="url(#paint5_radial_208:380)"/>
<path fill-rule="evenodd" clip-rule="evenodd" d="M114.749 93.5559L116.754 94.606L129.546 52.9832L128.592 53.1741L114.749 93.5559Z" fill="url(#paint6_radial_208:380)"/>
<path fill-rule="evenodd" clip-rule="evenodd" d="M129.546 52.9832L143.675 89.7373L158.759 77.5177L167.923 71.8853C167.923 71.8853 159.522 45.2505 154.272 36.3722L129.546 52.9832Z" fill="#D2715E"/>
<path fill-rule="evenodd" clip-rule="evenodd" d="M129.546 52.9832L129.451 54.5106L142.052 90.2146L143.675 89.7373L129.546 52.9832Z" fill="url(#paint7_radial_208:380)"/>
<path fill-rule="evenodd" clip-rule="evenodd" d="M154.272 36.2768C154.272 36.2768 159.331 20.8114 160.572 16.8019C161.813 12.6969 168.782 0 168.782 0C168.782 0 120 4.58233 112.553 5.63245C105.107 6.68256 85.7276 3.81861 85.7276 3.81861L72.9353 36.5632L154.272 36.2768Z" fill="url(#paint8_radial_208:380)"/>
<path opacity="0.36" d="M50.0237 53.6514C50.0237 53.6514 72.2671 59.8567 93.2694 62.1478C114.367 64.5345 125.441 53.365 125.441 53.365L123.627 51.9331L50.0237 53.6514Z" fill="#791B40"/>
<path fill-rule="evenodd" clip-rule="evenodd" d="M168.782 0V2.00477C168.782 2.00477 163.246 10.7876 161.145 16.7064C159.045 22.6253 154.272 36.2768 154.272 36.2768H153.508C153.508 36.2768 160 17.7565 161.336 14.4152C163.914 8.11454 168.782 0 168.782 0Z" fill="url(#paint9_radial_208:380)"/>
<path fill-rule="evenodd" clip-rule="evenodd" d="M23.4844 54.3197L0 73.7946L1.33651 75.4175L23.1026 55.5607L23.4844 54.3197Z" fill="url(#paint10_radial_208:380)"/>
<path opacity="0.5" fill-rule="evenodd" clip-rule="evenodd" d="M29.6897 122.673C29.6897 122.673 59.5703 122.1 82.5774 122.673C105.585 123.246 122.1 126.3 122.1 126.3C122.1 126.3 57.1837 126.682 29.6897 122.673Z" fill="url(#paint11_linear_208:380)"/>
<path opacity="0.36" d="M26.2532 94.606L124.869 102.53L129.451 54.5106L129.547 52.9832L116.754 94.606L25.8713 91.0738L26.2532 94.606Z" fill="#791B40"/>
<path opacity="0.68" fill-rule="evenodd" clip-rule="evenodd" d="M156.181 79.618L142.243 70.8352L132.983 61.8615L143.675 89.7373L156.181 79.618Z" fill="url(#paint12_linear_208:380)"/>
<path opacity="0.5" fill-rule="evenodd" clip-rule="evenodd" d="M109.308 5.91884L80.8591 15.6563L85.7279 3.81861C85.7279 3.81861 103.389 6.39617 109.308 5.91884Z" fill="url(#paint13_linear_208:380)"/>
<path fill-rule="evenodd" clip-rule="evenodd" d="M114.272 41.9092C114.272 42.1002 114.272 42.3865 114.176 42.5775C113.604 45.2505 109.976 49.9283 103.103 52.5059C95.5608 55.3698 85.7279 56.3245 83.8186 56.5154C82.0047 56.7063 76.3723 55.6562 71.2172 53.2696C67.1121 51.3603 64.6301 49.3555 63.2935 47.2553C62.3389 45.8233 61.957 44.2959 61.957 42.7684C61.957 39.5226 63.2935 37.136 63.9618 35.0357C64.6301 33.031 65.8711 23.389 69.2124 18.4248C71.5035 14.988 76.1813 11.9331 81.0501 10.4057C81.0501 10.4057 81.0501 10.4057 81.1455 10.4057C83.3412 9.73745 85.5369 9.26012 87.6372 9.26012C93.8424 9.26012 103.771 14.988 107.303 22.8162C110.453 29.6897 114.272 39.4271 114.272 41.9092Z" fill="#EAEAEF"/>
<path fill-rule="evenodd" clip-rule="evenodd" d="M97.2791 12.4105C97.2791 12.4105 97.9473 10.4057 100.716 8.30547C104.153 5.63244 109.403 4.29593 110.835 4.67779C112.172 5.05965 114.272 18.9021 108.353 25.2983C108.353 25.2028 98.1382 19.284 97.2791 12.4105Z" fill="#EAEAEF"/>
<path fill-rule="evenodd" clip-rule="evenodd" d="M81.1455 10.4057C81.1455 10.4057 73.6992 1.62291 70.4534 1.33651C67.2076 1.05012 69.2124 18.5202 69.2124 18.5202C69.2124 18.5202 75.2267 12.2195 81.1455 10.4057Z" fill="#EAEAEF"/>
<path fill-rule="evenodd" clip-rule="evenodd" d="M111.312 12.5059C110.644 20.4296 104.821 22.7207 104.821 22.7207C99.7611 20.3341 97.2791 12.315 97.2791 12.315C97.2791 12.2195 97.3745 12.2195 97.3745 12.1241C101.766 4.29593 110.74 5.53698 110.74 5.53698C111.312 8.30547 111.503 10.5966 111.312 12.5059Z" fill="url(#paint14_linear_208:380)"/>
<path opacity="0.5" fill-rule="evenodd" clip-rule="evenodd" d="M87.1599 40.1908C85.9188 38.1861 86.5871 25.8711 93.747 22.7207C99.9522 20.0477 105.68 31.8854 104.344 38.377C103.007 44.7732 90.3102 45.5369 87.1599 40.1908Z" fill="#8D81B1"/>
<path fill-rule="evenodd" clip-rule="evenodd" d="M78.7588 11.3604C78.7588 11.3604 73.7946 2.57756 69.5941 1.71837C69.5941 1.71837 67.4939 3.91407 69.2123 18.4248C69.2123 18.4248 73.9855 13.6515 78.7588 11.3604Z" fill="url(#paint15_linear_208:380)"/>
<path fill-rule="evenodd" clip-rule="evenodd" d="M88.1145 40.5727C90.3102 44.6777 101.193 43.0548 103.103 38.7589C105.012 34.4629 102.53 25.2028 96.6109 25.2028C90.9785 25.2028 84.5823 34.0811 88.1145 40.5727Z" fill="url(#paint16_linear_208:380)"/>
<path fill-rule="evenodd" clip-rule="evenodd" d="M74.9403 38.0906C74.6539 39.5226 74.1766 40.5727 73.6038 40.9546C71.4081 42.5775 67.494 42.6729 66.8258 37.4224C66.1575 32.1718 69.4034 23.389 71.8854 25.2983C73.1265 26.1575 73.8902 27.6849 74.463 29.3078C75.4177 32.0763 75.4177 35.6085 74.9403 38.0906Z" fill="url(#paint17_linear_208:380)"/>
<path fill-rule="evenodd" clip-rule="evenodd" d="M114.177 42.5775C113.604 45.2505 109.976 49.9283 103.103 52.5059C95.5609 55.3698 85.728 56.3245 83.8187 56.5154C82.0049 56.7063 76.3724 55.6562 71.2173 53.2696C67.1123 51.3603 64.6302 49.3555 63.2937 47.2553C63.2937 47.2553 66.2531 44.4868 70.2627 43.4367L69.0216 44.6777C69.4035 44.3913 72.3629 42.3866 76.5634 42.5775C80.9548 42.7684 89.2602 45.9188 97.2793 45.7278C97.2793 45.7278 95.37 45.8233 93.6516 44.8686C93.7471 44.8686 107.78 45.6324 114.177 42.5775Z" fill="#D2C8E9"/>
<path fill-rule="evenodd" clip-rule="evenodd" d="M102.052 34.8448C102.052 37.9952 99.4747 40.6682 96.2289 40.6682C93.0785 40.6682 90.4055 38.0906 90.4055 34.8448C90.4055 31.6944 92.9831 29.0214 96.2289 29.0214C99.4747 29.1169 102.052 31.6944 102.052 34.8448Z" fill="url(#paint18_linear_208:380)"/>
<path fill-rule="evenodd" clip-rule="evenodd" d="M74.9402 38.0906C74.4629 39.2362 73.7947 39.9045 73.0309 39.9045C71.599 39.9045 70.3579 37.3269 70.3579 34.0811C70.3579 30.8353 71.599 28.2577 73.0309 28.2577C73.6037 28.2577 74.0811 28.6396 74.4629 29.2124C75.4176 32.0763 75.4176 35.6085 74.9402 38.0906Z" fill="url(#paint19_linear_208:380)"/>
<path fill-rule="evenodd" clip-rule="evenodd" d="M87.4465 34.0811C87.4465 34.0811 88.6876 27.9713 94.0336 26.4439C99.4752 24.9164 102.053 27.9713 103.198 31.599C103.198 31.599 102.53 25.2983 97.2795 25.0119C91.9334 24.7255 88.0193 30.6443 87.4465 34.0811Z" fill="#593866"/>
<path fill-rule="evenodd" clip-rule="evenodd" d="M75.2266 34.5584C75.2266 34.5584 74.7493 24.8209 70.9307 24.2482C67.9713 23.8663 66.8257 34.0811 66.8257 34.0811C66.8257 34.0811 68.1622 25.0119 71.0262 25.2028C74.3674 25.4892 75.2266 34.5584 75.2266 34.5584Z" fill="#593866"/>
<path fill-rule="evenodd" clip-rule="evenodd" d="M88.6873 41.3364C88.6873 41.3364 94.1288 45.155 102.052 40.2863C102.052 40.2863 99.7612 42.7684 95.0834 43.3412C90.5011 43.914 88.6873 41.3364 88.6873 41.3364Z" fill="#A45C86"/>
<path fill-rule="evenodd" clip-rule="evenodd" d="M67.2078 39.0453C67.2078 39.0453 68.1624 40.9546 70.2626 41.3364C72.4583 41.8138 73.413 41.05 73.413 41.05C73.413 41.05 72.5538 42.3865 70.0717 41.8138C67.5896 41.3364 67.2078 39.0453 67.2078 39.0453Z" fill="#A45C86"/>
<path fill-rule="evenodd" clip-rule="evenodd" d="M75.2266 47.3507C75.2266 47.3507 76.0857 48.2099 76.8495 48.019C77.5177 47.8281 78.4724 46.9689 79.8089 47.3507C81.1454 47.7326 81.7182 48.4963 83.723 48.1145C85.6323 47.7326 86.5869 46.587 86.5869 46.587C86.5869 46.587 85.7277 48.4963 83.4366 48.9737C83.4366 48.9737 80.6681 47.6371 79.0452 47.7326C77.4223 47.8281 76.754 48.4963 76.754 48.4963C76.754 48.4963 75.513 48.4963 75.2266 47.3507Z" fill="#514C59"/>
<path fill-rule="evenodd" clip-rule="evenodd" d="M63.0071 53.1741C63.0071 53.1741 61.8615 53.8424 60.8114 53.1741C60.8114 53.1741 54.7016 55.4653 51.9331 53.4605C51.9331 53.4605 49.7374 54.0333 49.0691 53.1741C49.0691 53.1741 48.7827 50.0238 50.9784 48.6873C53.0787 47.2553 58.9975 46.9689 60.6204 47.4462C62.3388 48.019 63.0071 53.1741 63.0071 53.1741Z" fill="#EAEAEF"/>
<path fill-rule="evenodd" clip-rule="evenodd" d="M121.336 53.4605C121.336 53.4605 120.477 54.3197 119.332 53.9378C119.332 53.9378 115.608 56.5154 111.026 54.3197C111.026 54.3197 109.212 54.7016 107.876 53.2696C107.876 53.2696 109.403 49.6419 110.835 48.7827C112.84 47.5417 117.518 47.9235 119.427 48.7827C119.713 48.8782 119.904 49.0691 120.095 49.26C121.241 50.5011 121.336 53.4605 121.336 53.4605Z" fill="#EAEAEF"/>
<path opacity="0.5" fill-rule="evenodd" clip-rule="evenodd" d="M68.7349 4.58233C68.7349 4.58233 76.7539 5.82338 77.8041 11.7422L78.6632 11.3604C78.6632 11.3604 74.9401 3.24582 69.4986 1.71837C69.5941 1.71837 68.7349 2.57756 68.7349 4.58233Z" fill="#AE5188"/>
<path fill-rule="evenodd" clip-rule="evenodd" d="M76.0857 42.9593L76.563 42.5775C76.563 42.5775 80.0952 43.2457 82.0045 42.5775L82.9592 42.9593L82.1 44.0095C82.1 44.0095 80.0952 44.2004 79.8088 45.7278H78.3769C78.5678 45.7278 76.7539 44.8686 76.0857 42.9593Z" fill="url(#paint20_linear_208:380)"/>
<path fill-rule="evenodd" clip-rule="evenodd" d="M76.563 42.5775C76.563 42.5775 79.4269 41.7183 82.0045 42.5775C82.0045 42.5775 78.3768 43.4367 76.563 42.5775Z" fill="white"/>
<path fill-rule="evenodd" clip-rule="evenodd" d="M77.5178 11.8377C77.5178 11.8377 74.8448 10.4057 70.3579 10.4057L74.9402 11.8377C74.9402 11.8377 70.8352 10.883 66.8257 12.6969L70.0715 12.9833C70.0715 12.9833 67.8758 17.1837 67.7803 21.0978C67.7803 21.1933 71.2171 15.6563 77.5178 11.8377Z" fill="#D2C8E9"/>
<path opacity="0.5" fill-rule="evenodd" clip-rule="evenodd" d="M84.9641 50.7875L80.3818 51.5512C78.377 50.7875 76.6587 48.5918 76.6587 48.5918C76.6587 48.5918 74.8448 47.3507 74.8448 45.7278C74.9403 44.1049 76.0859 42.9593 76.0859 42.9593C76.0859 42.9593 76.0859 42.8639 76.0859 42.5775C76.2768 42.482 79.1408 41.3364 83.4367 41.9092C86.1097 42.1956 81.6229 36.0858 76.5632 35.704C76.4677 33.3174 74.6539 26.8257 74.272 25.0119C73.3174 19.7613 71.9809 17.1837 71.9809 17.1837C73.6993 13.6515 79.9045 10.9785 80.9546 10.5012C76.0859 12.1241 71.5035 15.0835 69.2124 18.5202C65.8711 23.389 64.5346 33.031 63.9618 35.1312C63.389 37.136 61.957 39.5226 61.957 42.8639C61.957 44.3913 62.3389 45.8233 63.2935 47.3507C64.6301 49.451 67.1121 51.4557 71.2172 53.3651C76.3723 55.7517 82.0047 56.8018 83.8186 56.6109C85.7279 56.3245 95.5608 55.3698 103.103 52.5059C109.976 49.9283 113.604 45.2505 114.176 42.5775C105.776 55.1789 84.9641 50.7875 84.9641 50.7875ZM67.2076 49.9283C65.6802 49.8328 61.8616 44.8686 64.9165 41.8138C65.7756 40.9546 71.4081 42.2911 72.7446 44.5823C74.0811 46.8734 68.7351 50.1192 67.2076 49.9283Z" fill="#8D81B1" fill-opacity="0.5"/>
<path fill-rule="evenodd" clip-rule="evenodd" d="M94.6062 27.0167L95.3699 31.3126L102.339 32.84V30.167C102.339 30.2625 101.002 26.7303 94.6062 27.0167Z" fill="white"/>
<path fill-rule="evenodd" clip-rule="evenodd" d="M93.2696 39.2362C93.2696 39.7135 92.8878 39.9999 92.5059 39.9999C92.0286 39.9999 91.7422 39.6181 91.7422 39.2362C91.7422 38.8543 92.1241 38.4725 92.5059 38.4725C92.9832 38.4725 93.2696 38.8543 93.2696 39.2362Z" fill="white"/>
<path fill-rule="evenodd" clip-rule="evenodd" d="M104.821 22.7207C104.821 22.7207 107.494 19.3794 107.685 12.5059L104.821 22.7207Z" fill="#D2C8E9"/>
<path fill-rule="evenodd" clip-rule="evenodd" d="M78.7589 11.3604C78.7589 11.3604 75.704 7.06442 72.8401 7.35082L78.7589 11.3604Z" fill="#D2C8E9"/>
<path fill-rule="evenodd" clip-rule="evenodd" d="M99.5703 44.1049C99.5703 44.1049 108.926 45.0596 112.267 40.4772C112.363 40.4772 105.966 43.914 99.5703 44.1049Z" fill="#D2C8E9"/>
<path fill-rule="evenodd" clip-rule="evenodd" d="M79.3315 42.9593C79.3315 42.9593 81.6227 43.2457 83.0547 42.9593L82.1 42.5775C82.1 42.5775 81.2408 42.7684 79.3315 42.9593Z" fill="white"/>
<path opacity="0.5" fill-rule="evenodd" clip-rule="evenodd" d="M63.0071 53.1741C63.0071 53.1741 61.8615 53.8424 60.8114 53.1741C60.8114 53.1741 54.7016 55.4653 51.9331 53.4605C51.9331 53.4605 49.7374 54.0333 49.0691 53.1741C49.0691 53.1741 48.7827 50.0238 50.9784 48.6873C50.883 48.7827 50.1193 49.9283 50.3102 50.3102C50.5011 50.7875 59.093 51.5512 60.6204 50.692C62.1479 49.8328 60.7159 47.6371 60.6204 47.4462C62.3388 48.019 63.0071 53.1741 63.0071 53.1741Z" fill="#8D81B1"/>
<path opacity="0.5" fill-rule="evenodd" clip-rule="evenodd" d="M121.336 53.4605C121.336 53.4605 120.477 54.3197 119.332 53.9378C119.332 53.9378 115.608 56.5154 111.026 54.3197C111.026 54.3197 109.212 54.7016 107.876 53.2696C107.876 53.2696 109.403 49.6419 110.835 48.7827C110.74 48.9736 110.167 49.9283 110.835 50.3102C111.599 50.692 117.136 50.9784 118.95 50.3102C119.618 50.0238 119.904 49.6419 120 49.26C121.241 50.5011 121.336 53.4605 121.336 53.4605Z" fill="#8D81B1"/>
<path opacity="0.5" fill-rule="evenodd" clip-rule="evenodd" d="M111.312 12.5059C111.312 12.5059 111.121 8.01908 107.589 8.11454C104.057 8.21001 101.289 11.3604 101.289 11.3604L98.4246 13.0787L97.3745 12.2195C101.766 4.3914 110.74 5.63245 110.74 5.63245C111.312 8.30547 111.503 10.5966 111.312 12.5059Z" fill="#AE5188"/>
<path fill-rule="evenodd" clip-rule="evenodd" d="M104.821 22.7207C104.821 22.7207 105.203 19.093 103.771 14.5107V16.2291C103.771 16.2291 102.53 11.074 98.5202 8.7828L99.3794 11.1694C99.3794 11.1694 97.4701 9.64198 91.8376 10.1193C91.8376 10.1193 96.0381 11.3604 97.2792 13.4606C98.5202 15.6563 99.1885 21.0023 104.821 22.7207Z" fill="#D2C8E9"/>
<path opacity="0.5" fill-rule="evenodd" clip-rule="evenodd" d="M84.9642 50.7875C84.9642 50.7875 81.8138 53.1741 80.8592 53.1741C79.9045 53.1741 76.6587 48.5918 76.6587 48.5918C76.6587 48.5918 78.7589 50.9784 80.3818 51.5512L84.9642 50.7875Z" fill="#8D81B1"/>
<path d="M33.5083 119.332H38.568L38.1861 113.126H32.9355L33.5083 119.332Z" fill="#5A4153"/>
<path d="M43.8184 114.081V118.377H40.5726L40.3817 114.081H43.8184ZM44.7731 113.126H39.427L39.7134 119.332H44.7731V113.126Z" fill="#5A4153"/>
<path opacity="0.5" fill-rule="evenodd" clip-rule="evenodd" d="M96.229 120.954L96.3245 113.317H116.754V122.291L96.229 120.954Z" fill="#FFFFCE"/>
<path opacity="0.5" fill-rule="evenodd" clip-rule="evenodd" d="M99.2839 114.94V116.277L114.081 116.658V114.94H99.2839Z" fill="#C1748D"/>
<g opacity="0.5">
<path opacity="0.5" fill-rule="evenodd" clip-rule="evenodd" d="M33.1265 103.58C33.222 104.248 33.6038 104.63 34.3675 104.439C34.8449 104.343 35.2267 103.866 35.1313 103.389C35.0358 102.816 34.463 102.339 33.8902 102.434C33.3174 102.53 33.031 103.293 33.1265 103.58Z" fill="#E3D9D2"/>
<path opacity="0.5" fill-rule="evenodd" clip-rule="evenodd" d="M52.6016 111.312C52.6971 110.549 53.4608 110.167 54.129 110.071C54.7018 109.976 55.1792 110.167 55.7519 110.453C56.2293 110.74 56.6111 111.312 56.3247 111.885C56.2293 112.076 56.0383 112.458 55.8474 112.649C55.561 112.84 55.0837 112.744 54.7973 112.649C54.32 112.553 54.129 112.363 53.7472 112.076C53.3653 111.79 52.5061 111.981 52.6016 111.312Z" fill="#E3D9D2"/>
<path opacity="0.5" fill-rule="evenodd" clip-rule="evenodd" d="M33.6992 100.62C33.2219 100.811 32.6491 101.48 33.2219 101.766C33.6038 101.957 34.6539 101.67 34.9403 101.48C36.1813 100.525 34.272 99.7611 33.4128 100.716L33.6992 100.62Z" fill="#E3D9D2"/>
<path opacity="0.5" fill-rule="evenodd" clip-rule="evenodd" d="M34.2722 106.539C34.7495 105.775 35.5133 106.635 35.0359 107.112C34.6541 107.398 34.2722 107.112 34.2722 106.73V106.539Z" fill="#E3D9D2"/>
<path opacity="0.5" fill-rule="evenodd" clip-rule="evenodd" d="M35.4175 103.58C35.7039 103.102 36.2767 103.675 35.8948 103.962C35.7039 104.153 35.4175 103.962 35.322 103.675L35.4175 103.58Z" fill="#E3D9D2"/>
<path opacity="0.5" fill-rule="evenodd" clip-rule="evenodd" d="M96.0381 105.203C95.0835 106.444 96.8019 107.971 97.4701 106.444C97.852 105.585 97.0883 104.63 96.3245 105.203H96.0381Z" fill="#E3D9D2"/>
<path opacity="0.5" fill-rule="evenodd" clip-rule="evenodd" d="M98.9019 108.926C98.8065 108.639 98.6156 108.735 98.5201 108.926C98.3292 109.212 98.4246 109.212 98.6156 109.403C98.9974 109.88 99.2838 109.88 99.7611 109.499C100.143 109.212 100.811 108.544 100.143 108.258C99.8566 108.067 99.1883 108.353 98.9974 108.544L98.9019 108.926Z" fill="#E3D9D2"/>
<path opacity="0.5" fill-rule="evenodd" clip-rule="evenodd" d="M97.3747 109.403C97.2792 108.735 98.2339 109.594 97.852 109.88C97.4701 110.262 97.2792 109.594 97.3747 109.403Z" fill="#E3D9D2"/>
<path opacity="0.5" fill-rule="evenodd" clip-rule="evenodd" d="M99.2837 107.207C99.5701 107.589 100.047 107.016 99.8565 106.73C99.6656 106.444 99.2837 107.016 99.2837 107.207Z" fill="#E3D9D2"/>
<path opacity="0.5" fill-rule="evenodd" clip-rule="evenodd" d="M89.2601 114.654C89.4511 114.176 90.0238 114.654 90.1193 114.94C90.2148 115.417 89.8329 115.99 89.3556 116.086C88.5919 116.181 88.4009 114.94 89.0692 114.749L89.2601 114.654Z" fill="#E3D9D2"/>
<path opacity="0.5" fill-rule="evenodd" clip-rule="evenodd" d="M96.3243 115.608C95.847 116.277 97.3744 116.372 97.3744 115.704C97.3744 115.131 96.5153 115.131 96.3243 115.608Z" fill="#E3D9D2"/>
<path opacity="0.5" fill-rule="evenodd" clip-rule="evenodd" d="M90.0239 102.721C89.7375 102.339 90.1193 101.67 90.5967 101.766C91.1695 101.861 91.2649 102.721 90.9785 103.102C90.5012 104.057 89.2602 103.389 89.7375 102.53L90.0239 102.721Z" fill="#E3D9D2"/>
<path opacity="0.5" fill-rule="evenodd" clip-rule="evenodd" d="M99.0928 100.716C98.52 102.052 100.62 101.575 100.811 100.525C100.907 99.2838 99.2837 99.6657 99.0928 100.716Z" fill="#E3D9D2"/>
<path opacity="0.5" fill-rule="evenodd" clip-rule="evenodd" d="M56.2293 109.499C55.561 110.358 57.2794 110.835 57.3748 109.69C57.0884 109.308 56.4202 109.117 56.0383 109.594L56.2293 109.499Z" fill="#E3D9D2"/>
<path opacity="0.5" fill-rule="evenodd" clip-rule="evenodd" d="M47.4465 120C48.8785 118.186 51.5515 117.518 53.4608 118.854C53.9382 119.236 54.7019 119.809 54.1291 120.382C53.6518 120.859 51.0742 120.382 50.406 120.382C49.3558 120.382 48.4012 120.382 47.4465 120Z" fill="#E3D9D2"/>
<path opacity="0.5" fill-rule="evenodd" clip-rule="evenodd" d="M42.5774 119.045C42.6729 119.809 44.1048 119.522 43.9139 118.95C43.8184 118.472 42.9593 118.377 42.8638 118.854L42.5774 119.045Z" fill="#E3D9D2"/>
<path opacity="0.5" fill-rule="evenodd" clip-rule="evenodd" d="M60.6204 119.332C60.8113 118.09 62.2433 120 60.9068 119.904C60.9068 119.809 60.8113 119.713 60.8113 119.618L60.6204 119.332Z" fill="#E3D9D2"/>
<path opacity="0.5" fill-rule="evenodd" clip-rule="evenodd" d="M66.3485 101.861C66.0621 103.007 67.5896 102.816 67.5896 101.861C67.5896 101.098 66.5394 100.811 66.3485 101.575V101.861Z" fill="#E3D9D2"/>
<path opacity="0.5" fill-rule="evenodd" clip-rule="evenodd" d="M97.5657 120.382C97.6611 120.191 97.8521 120.095 98.043 120C98.8067 121.05 97.0884 121.718 97.5657 120.477V120.382Z" fill="#E3D9D2"/>
<path opacity="0.5" fill-rule="evenodd" clip-rule="evenodd" d="M139.475 14.0334C138.52 15.179 140.239 16.5155 140.907 15.179C141.289 14.4152 140.525 13.5561 139.761 14.0334H139.475Z" fill="#E3D9D2"/>
<path opacity="0.5" fill-rule="evenodd" clip-rule="evenodd" d="M142.434 17.3747C142.339 17.1837 142.148 17.1837 142.052 17.3747C141.861 17.5656 141.957 17.6611 142.148 17.852C142.53 18.2339 142.816 18.2339 143.293 17.9475C143.675 17.7565 144.343 17.0883 143.675 16.8019C143.389 16.7064 142.721 16.8973 142.53 17.0883L142.434 17.3747Z" fill="#E3D9D2"/>
<path opacity="0.5" fill-rule="evenodd" clip-rule="evenodd" d="M140.811 17.7565C140.716 17.1837 141.67 17.9475 141.289 18.2339C140.907 18.5203 140.716 17.9475 140.811 17.7565Z" fill="#E3D9D2"/>
<path opacity="0.5" fill-rule="evenodd" clip-rule="evenodd" d="M142.72 15.8472C143.007 16.2291 143.484 15.6563 143.293 15.4654C143.102 15.0835 142.72 15.5608 142.72 15.8472Z" fill="#E3D9D2"/>
<path opacity="0.5" fill-rule="evenodd" clip-rule="evenodd" d="M132.697 22.5298C132.888 22.0525 133.46 22.5298 133.556 22.8162C133.651 23.198 133.269 23.7708 132.792 23.8663C132.028 23.9618 131.837 22.9117 132.506 22.6253L132.697 22.5298Z" fill="#E3D9D2"/>
<path opacity="0.5" fill-rule="evenodd" clip-rule="evenodd" d="M139.761 23.389C139.284 23.9618 140.811 24.1527 140.811 23.389C140.906 22.9117 139.952 22.9117 139.761 23.389Z" fill="#E3D9D2"/>
<path opacity="0.5" fill-rule="evenodd" clip-rule="evenodd" d="M133.461 11.7422C133.174 11.3604 133.556 10.7876 134.033 10.883C134.606 10.9785 134.702 11.7422 134.415 12.1241C133.938 12.9833 132.697 12.4105 133.174 11.5513L133.461 11.7422Z" fill="#E3D9D2"/>
<path opacity="0.5" fill-rule="evenodd" clip-rule="evenodd" d="M142.53 9.92838C141.957 11.074 144.057 10.6921 144.248 9.73745C144.343 8.68733 142.72 8.97373 142.53 9.92838Z" fill="#E3D9D2"/>
<path opacity="0.5" fill-rule="evenodd" clip-rule="evenodd" d="M141.002 27.7804C141.098 27.5894 141.289 27.494 141.48 27.3985C142.243 28.3532 140.525 28.926 141.002 27.8758V27.7804Z" fill="#E3D9D2"/>
<path opacity="0.5" fill-rule="evenodd" clip-rule="evenodd" d="M26.6349 77.4223C24.7256 82.1955 32.6492 78.8543 33.7948 76.6586C34.9403 74.3674 31.9809 73.9855 30.2625 74.2719C28.2578 74.6538 26.7303 76.0858 26.6349 77.4223Z" fill="#E3D9D2"/>
<path opacity="0.5" fill-rule="evenodd" clip-rule="evenodd" d="M33.9858 78.5679C34.1768 77.5177 36.1815 76.5631 35.8951 78.186C35.7997 79.0452 34.4632 79.7134 34.0813 78.7588L33.9858 78.5679Z" fill="#E3D9D2"/>
<path opacity="0.5" fill-rule="evenodd" clip-rule="evenodd" d="M73.8902 71.1216C71.9809 73.7946 79.9045 73.7946 80.2864 71.1216C80.6682 68.4486 74.5584 69.3077 73.6993 70.9306L73.8902 71.1216Z" fill="#E3D9D2"/>
<path opacity="0.5" fill-rule="evenodd" clip-rule="evenodd" d="M79.4272 68.0667C79.6182 66.4438 81.9093 67.112 81.3366 68.1621C80.9547 69.0213 79.8091 68.3531 79.4272 67.9712V68.0667Z" fill="#E3D9D2"/>
<path opacity="0.5" fill-rule="evenodd" clip-rule="evenodd" d="M85.4414 69.976C86.2052 69.976 86.8734 69.7851 87.5417 69.4987C87.3507 68.0667 85.5369 68.3531 85.0596 69.4987C85.155 69.6896 85.2505 69.6896 85.4414 69.7851V69.976Z" fill="#E3D9D2"/>
<path opacity="0.5" fill-rule="evenodd" clip-rule="evenodd" d="M64.6299 73.1263C64.6299 72.4581 64.8208 72.1717 65.3936 72.1717C66.1573 72.8399 65.9664 74.081 64.9163 73.7946L64.6299 73.1263Z" fill="#E3D9D2"/>
<path opacity="0.5" fill-rule="evenodd" clip-rule="evenodd" d="M45.0598 109.88C43.055 111.599 47.351 111.026 45.4417 110.167L45.0598 109.88Z" fill="#E3D9D2"/>
<path opacity="0.5" fill-rule="evenodd" clip-rule="evenodd" d="M36.5633 114.367C36.086 114.845 36.2769 115.895 37.1361 115.513C37.8044 115.227 37.6134 114.081 36.8497 114.463L36.5633 114.367Z" fill="#E3D9D2"/>
<path opacity="0.5" fill-rule="evenodd" clip-rule="evenodd" d="M40.5725 117.136C40.7634 116.563 41.4317 116.563 41.4317 117.136C41.4317 117.613 40.9544 117.518 40.7634 117.231L40.5725 117.136Z" fill="#E3D9D2"/>
<path opacity="0.5" fill-rule="evenodd" clip-rule="evenodd" d="M76.2769 101.289C76.5633 101.098 76.7542 100.907 76.9451 100.62C76.4678 100.238 76.4678 100.525 76.2769 100.907V101.289Z" fill="#E3D9D2"/>
</g>
<path opacity="0.56" fill-rule="evenodd" clip-rule="evenodd" d="M94.8923 112.076H97.9472L97.8518 122.386H94.8923V112.076Z" fill="#8F3455"/>
<path opacity="0.56" fill-rule="evenodd" clip-rule="evenodd" d="M116.086 112.076L115.036 123.341H117.709L118.663 112.076H116.086Z" fill="#8F3455"/>
<path opacity="0.5" fill-rule="evenodd" clip-rule="evenodd" d="M162.195 12.5059L134.606 3.34128L168.783 0L162.195 12.5059Z" fill="url(#paint21_linear_208:380)"/>
<defs>
<radialGradient id="paint0_radial_208:380" cx="0" cy="0" r="1" gradientUnits="userSpaceOnUse" gradientTransform="translate(29.9472 63.7651) scale(43.3737)">
<stop offset="0.0223464" stop-color="#BD4D4D"/>
<stop offset="1" stop-color="#9F3E54"/>
</radialGradient>
<radialGradient id="paint1_radial_208:380" cx="0" cy="0" r="1" gradientUnits="userSpaceOnUse" gradientTransform="translate(134.857 98.7735) scale(32.4757)">
<stop offset="0.0223464" stop-color="#BD4D4D"/>
<stop offset="1" stop-color="#9F3E54"/>
</radialGradient>
<radialGradient id="paint2_radial_208:380" cx="0" cy="0" r="1" gradientUnits="userSpaceOnUse" gradientTransform="translate(76.8076 57.1927) scale(47.9042)">
<stop offset="0.0223464" stop-color="#FFA874"/>
<stop offset="1" stop-color="#F49372"/>
</radialGradient>
<radialGradient id="paint3_radial_208:380" cx="0" cy="0" r="1" gradientUnits="userSpaceOnUse" gradientTransform="translate(89.271 37.3373) scale(37.012)">
<stop stop-color="#FFCF84"/>
<stop offset="0.9777" stop-color="#FFB88B"/>
</radialGradient>
<radialGradient id="paint4_radial_208:380" cx="0" cy="0" r="1" gradientUnits="userSpaceOnUse" gradientTransform="translate(76.8483 48.5989) scale(72.7995)">
<stop offset="0.0223464" stop-color="#BD4D4D"/>
<stop offset="1" stop-color="#9F3E54"/>
</radialGradient>
<radialGradient id="paint5_radial_208:380" cx="0" cy="0" r="1" gradientUnits="userSpaceOnUse" gradientTransform="translate(70.3628 55.5131) scale(38.3323)">
<stop offset="0.0223464" stop-color="#FFC372"/>
<stop offset="1" stop-color="#FFAC72"/>
</radialGradient>
<radialGradient id="paint6_radial_208:380" cx="0" cy="0" r="1" gradientUnits="userSpaceOnUse" gradientTransform="translate(120.65 81.9032) scale(14.9755)">
<stop offset="0.0223464" stop-color="#BD4D4D"/>
<stop offset="1" stop-color="#9F3E54"/>
</radialGradient>
<radialGradient id="paint7_radial_208:380" cx="0" cy="0" r="1" gradientUnits="userSpaceOnUse" gradientTransform="translate(136.597 55.1434) scale(19.7395)">
<stop offset="0.0223464" stop-color="#FFC372"/>
<stop offset="1" stop-color="#FFAC72"/>
</radialGradient>
<radialGradient id="paint8_radial_208:380" cx="0" cy="0" r="1" gradientUnits="userSpaceOnUse" gradientTransform="translate(121.161 2.07608) scale(32.4013)">
<stop offset="0.0223464" stop-color="#FFA874"/>
<stop offset="1" stop-color="#F49372"/>
</radialGradient>
<radialGradient id="paint9_radial_208:380" cx="0" cy="0" r="1" gradientUnits="userSpaceOnUse" gradientTransform="translate(159.61 25.2041) scale(13.9147)">
<stop offset="0.0223464" stop-color="#BD4D4D"/>
<stop offset="1" stop-color="#9F3E54"/>
</radialGradient>
<radialGradient id="paint10_radial_208:380" cx="0" cy="0" r="1" gradientUnits="userSpaceOnUse" gradientTransform="translate(11.7611 64.8598) scale(11.1711)">
<stop offset="0.0223464" stop-color="#FFA874"/>
<stop offset="1" stop-color="#F49372"/>
</radialGradient>
<linearGradient id="paint11_linear_208:380" x1="29.7003" y1="124.354" x2="122.082" y2="124.354" gradientUnits="userSpaceOnUse">
<stop stop-color="#D3B8D6"/>
<stop offset="1" stop-color="white"/>
</linearGradient>
<linearGradient id="paint12_linear_208:380" x1="132.975" y1="75.8292" x2="156.136" y2="75.8292" gradientUnits="userSpaceOnUse">
<stop stop-color="#D3B8D6"/>
<stop offset="1" stop-color="white"/>
</linearGradient>
<linearGradient id="paint13_linear_208:380" x1="80.8588" y1="9.73974" x2="109.319" y2="9.73974" gradientUnits="userSpaceOnUse">
<stop stop-color="#D3B8D6"/>
<stop offset="1" stop-color="white"/>
</linearGradient>
<linearGradient id="paint14_linear_208:380" x1="104.348" y1="22.7548" x2="104.348" y2="5.58529" gradientUnits="userSpaceOnUse">
<stop offset="0.00558659" stop-color="#FB9292"/>
<stop offset="1" stop-color="#BA6586"/>
</linearGradient>
<linearGradient id="paint15_linear_208:380" x1="73.628" y1="18.4551" x2="73.628" y2="1.7641" gradientUnits="userSpaceOnUse">
<stop offset="0.00558659" stop-color="#FB9292"/>
<stop offset="1" stop-color="#BA6586"/>
</linearGradient>
<linearGradient id="paint16_linear_208:380" x1="95.4528" y1="42.949" x2="95.4528" y2="25.2305" gradientUnits="userSpaceOnUse">
<stop offset="0.0167598" stop-color="#FFDE31"/>
<stop offset="0.9721" stop-color="#FF784F"/>
</linearGradient>
<linearGradient id="paint17_linear_208:380" x1="70.9902" y1="41.8959" x2="70.9902" y2="24.9748" gradientUnits="userSpaceOnUse">
<stop offset="0.0167598" stop-color="#FFDE31"/>
<stop offset="0.9721" stop-color="#FF784F"/>
</linearGradient>
<linearGradient id="paint18_linear_208:380" x1="96.2786" y1="40.6426" x2="96.2786" y2="29.0712" gradientUnits="userSpaceOnUse">
<stop offset="0.0223464" stop-color="#51657F"/>
<stop offset="0.5335" stop-color="#4B3143"/>
<stop offset="0.9777" stop-color="#412245"/>
</linearGradient>
<linearGradient id="paint19_linear_208:380" x1="72.7771" y1="39.8801" x2="72.7771" y2="28.3044" gradientUnits="userSpaceOnUse">
<stop offset="0.0223464" stop-color="#51657F"/>
<stop offset="0.5335" stop-color="#4B3143"/>
<stop offset="0.9777" stop-color="#412245"/>
</linearGradient>
<linearGradient id="paint20_linear_208:380" x1="79.5618" y1="45.7164" x2="79.5618" y2="42.5508" gradientUnits="userSpaceOnUse">
<stop stop-color="#BA6586"/>
<stop offset="0.9944" stop-color="#FB9292"/>
</linearGradient>
<linearGradient id="paint21_linear_208:380" x1="134.582" y1="6.26242" x2="168.823" y2="6.26242" gradientUnits="userSpaceOnUse">
<stop stop-color="#D3B8D6"/>
<stop offset="1" stop-color="white"/>
</linearGradient>
</defs>
</svg>
