<svg width="807" height="554" viewBox="0 0 807 554" fill="none">
<path d="M674.181 104.087C674.181 104.087 679.194 76.0928 661.533 78.1033C661.533 78.1033 653.389 79.9102 651.913 86.2471C651.913 86.2471 642.547 84.5166 638.577 91.6933C634.607 98.87 640.053 110.246 650.36 113.427C650.36 113.427 626.718 109.61 628.347 125.719C628.347 125.719 628.601 133.074 635.981 136.459C635.981 136.459 635.04 147.3 642.827 149.972C650.615 152.645 658.759 147.886 662.932 139.131C662.932 139.131 648.986 170.841 615.113 166.413L615.113 168.83C615.113 168.83 647.332 173.08 663.721 139.716C663.721 139.716 661.914 153.739 668.658 157.913C668.658 157.913 679.194 162.977 685.76 151.474C685.76 151.474 701.615 151.983 699.783 138.469C699.783 138.469 699.579 130.096 687.313 124.116C687.313 124.116 707.85 127.831 709.53 113.987C709.53 113.987 711.184 106.352 701.997 101.288C701.997 101.288 703.804 91.4897 695.711 88.1304C695.711 88.2067 680.543 84.8474 674.181 104.087Z" fill="url(#paint0_linear_218:2401)"/>
<path d="M703.398 102.229C702.965 101.95 702.481 101.644 701.972 101.364C701.972 101.364 703.779 91.6425 695.788 88.2323C695.788 88.2323 704.492 89.8611 703.398 102.229Z" fill="#176332"/>
<path d="M670.516 80.8517C670.516 80.8517 678.966 88.8682 674.156 104.087C674.181 104.087 677.133 87.6212 670.516 80.8517Z" fill="#176332"/>
<path d="M663.696 139.793C663.696 139.793 657.105 159.032 637.891 166.744C637.891 166.744 631.579 171.045 615.113 170.077L615.113 168.907C615.088 168.907 647.307 173.131 663.696 139.793Z" fill="#176332"/>
<path d="M668.634 157.989C668.634 157.989 679.17 163.053 685.736 151.55C685.736 151.55 701.591 152.059 699.758 138.546C699.758 138.546 699.606 132.362 691.793 126.839C691.793 126.839 702.303 131.42 700.853 144.246C700.853 144.246 699.809 153.077 687.466 152.467C687.466 152.467 684.056 160 675.938 160.229C667.845 160.458 666.14 155.546 666.14 155.546C666.827 156.538 667.616 157.353 668.634 157.989Z" fill="#176332"/>
<path d="M688.993 125.083C688.458 124.777 687.898 124.497 687.313 124.192C687.313 124.192 707.851 127.908 709.53 114.063C709.53 114.063 710.828 107.981 704.593 103.069C704.593 103.069 713.093 107.803 710.217 117.957C707.367 128.086 688.993 125.083 688.993 125.083Z" fill="#176332"/>
<path d="M69.8462 104.075C69.8462 104.075 63.2976 67.5089 86.3673 70.135C86.3673 70.135 97.0047 72.4951 98.9327 80.7723C98.9327 80.7723 111.166 78.5119 116.351 87.886C121.537 97.2602 114.423 112.119 100.96 116.274C100.96 116.274 131.842 111.288 129.714 132.33C129.714 132.33 129.382 141.937 119.742 146.358C119.742 146.358 120.972 160.519 110.8 164.01C100.628 167.5 89.9907 161.284 84.539 149.849C84.539 149.849 102.755 191.268 147 185.484V188.642C147 188.642 104.916 194.193 83.5085 150.613C83.5085 150.613 85.8687 168.929 77.0596 174.381C77.0596 174.381 63.2976 180.996 54.7212 165.971C54.7212 165.971 34.0116 166.636 36.405 148.984C36.405 148.984 36.671 138.048 52.6935 130.236C52.6935 130.236 25.8674 135.089 23.6734 117.006C23.6734 117.006 21.5127 107.033 33.513 100.418C33.513 100.418 31.1528 87.6201 41.7237 83.2322C41.7237 83.3319 61.5357 78.944 69.8462 104.075Z" fill="url(#paint1_linear_218:2401)"/>
<path d="M31.6844 101.648C32.2495 101.283 32.8811 100.884 33.5459 100.518C33.5459 100.518 31.1857 87.8196 41.6236 83.3652C41.6236 83.3652 30.255 85.4927 31.6844 101.648Z" fill="#176332"/>
<path d="M74.6327 73.725C74.6327 73.725 63.5965 84.1961 69.8792 104.075C69.8459 104.075 65.9899 82.5673 74.6327 73.725Z" fill="#176332"/>
<path d="M83.5415 150.713C83.5415 150.713 92.1511 175.844 117.249 185.916C117.249 185.916 125.493 191.534 147 190.271V188.741C147.033 188.741 104.949 194.26 83.5415 150.713Z" fill="#176332"/>
<path d="M77.0926 174.481C77.0926 174.481 63.3306 181.096 54.7542 166.071C54.7542 166.071 34.0446 166.735 36.438 149.084C36.438 149.084 36.6375 141.006 46.8427 133.793C46.8427 133.793 33.1138 139.776 35.0086 156.53C35.0086 156.53 36.3715 168.065 52.4938 167.267C52.4938 167.267 56.9482 177.107 67.5523 177.406C78.1231 177.705 80.3503 171.29 80.3503 171.29C79.4528 172.586 78.4223 173.65 77.0926 174.481Z" fill="#176332"/>
<path d="M50.4995 131.499C51.1976 131.1 51.9289 130.735 52.6935 130.336C52.6935 130.336 25.8674 135.189 23.6734 117.106C23.6734 117.106 21.9781 109.161 30.1223 102.745C30.1223 102.745 19.0196 108.928 22.7759 122.192C26.499 135.422 50.4995 131.499 50.4995 131.499Z" fill="#176332"/>
<path d="M571.495 141.767C578.298 157.026 566.716 177.065 545.574 186.441C524.615 195.817 502.003 190.853 495.201 175.594C488.398 160.335 499.98 140.296 521.122 130.92C542.081 121.728 564.693 126.508 571.495 141.767Z" fill="url(#paint2_radial_218:2401)"/>
<path d="M570.945 140.847L568.922 136.068L491.892 167.872L495.385 175.778L570.945 140.847Z" fill="#603813"/>
<path d="M568.186 134.597C574.989 149.856 563.406 169.895 542.264 179.271C521.122 188.647 498.694 183.683 491.891 168.424C485.089 153.165 496.671 133.126 517.813 123.75C538.955 114.374 561.384 119.338 568.186 134.597Z" fill="url(#paint3_linear_218:2401)"/>
<path d="M565.429 135.884C571.679 150.04 561.016 168.608 541.529 177.065C522.041 185.705 501.267 181.109 494.833 166.953C488.582 152.797 499.245 134.229 518.732 125.772C538.22 117.132 559.178 121.728 565.429 135.884Z" fill="#FFFC0A"/>
<path d="M565.429 135.884C571.679 150.04 561.016 168.608 541.529 177.065C522.041 185.705 501.267 181.109 494.833 166.953C488.582 152.797 499.245 134.229 518.732 125.772C538.22 117.132 559.178 121.728 565.429 135.884Z" fill="url(#paint4_radial_218:2401)"/>
<path d="M563.407 137.17C569.474 150.775 559.362 168.24 541.162 176.329C522.777 184.418 503.106 180.006 497.223 166.402C491.156 152.797 501.268 135.332 519.468 127.243C537.853 119.154 557.524 123.566 563.407 137.17Z" fill="url(#paint5_linear_218:2401)"/>
<path d="M553.847 153.9L548.148 152.43C550.906 146.73 548.148 142.87 542.081 141.767C530.867 139.56 521.858 152.062 516.343 150.223C514.137 149.488 514.137 147.65 516.159 145.443C517.814 143.421 519.836 142.502 522.594 141.215L521.675 138.274L520.939 136.987L520.571 138.641C518.181 139.744 515.792 141.031 513.585 143.054L509.909 142.134L508.07 144.157L508.254 143.605L506.416 144.157L507.151 145.26L510.828 146.363C508.07 150.223 508.438 153.716 512.299 155.187C520.939 158.68 530.867 145.26 538.404 147.098C541.713 147.833 542.633 150.04 539.875 153.533C537.669 156.474 533.992 158.496 529.764 160.151L532.337 164.931C537.117 163.46 542.081 160.151 545.206 156.842L552.928 159.232L556.421 154.452L555.686 153.349L553.847 153.9Z" fill="url(#paint6_radial_218:2401)"/>
<path d="M544.103 155.739C540.978 159.048 536.014 162.357 531.234 163.828L528.66 159.048C532.888 157.393 536.565 155.371 538.771 152.43C541.529 148.937 540.61 146.73 537.301 145.995C529.763 144.157 519.836 157.577 511.195 154.084C507.334 152.613 507.15 149.12 509.724 145.26L506.047 144.157L508.805 141.215L512.482 142.134C515.056 139.744 517.813 138.274 520.755 137.171L521.674 140.112C519.1 141.031 517.078 142.134 515.423 144.157C513.401 146.363 513.401 148.201 515.607 148.936C521.123 150.775 530.315 138.274 541.345 140.48C547.412 141.583 550.17 145.443 547.412 151.143L555.317 153.349L551.824 158.129L544.103 155.739Z" fill="url(#paint7_linear_218:2401)"/>
<path d="M105.183 444.544H667.008C680.245 444.544 690.907 433.881 690.907 420.644V184.589C690.907 171.353 680.245 160.69 667.008 160.69H105.183C91.9461 160.69 81.2832 171.353 81.2832 184.589V420.46C81.2832 433.881 91.9461 444.544 105.183 444.544Z" fill="url(#paint8_linear_218:2401)"/>
<path d="M655.609 431.491H116.581C106.47 431.491 98.1968 423.218 98.1968 413.107V192.127C98.1968 182.016 106.47 173.743 116.581 173.743H655.609C665.721 173.743 673.994 182.016 673.994 192.127V413.107C673.994 423.218 665.721 431.491 655.609 431.491Z" fill="url(#paint9_linear_218:2401)"/>
<path d="M766.835 156.317C788.462 156.317 805.993 138.785 805.993 117.159C805.993 95.5319 788.462 78 766.835 78C745.208 78 727.676 95.5319 727.676 117.159C727.676 138.785 745.208 156.317 766.835 156.317Z" fill="url(#paint10_radial_218:2401)"/>
<path d="M806.177 117.159C806.177 138.852 788.528 156.317 767.018 156.317C745.325 156.317 727.859 138.852 727.859 117.159C727.859 115.32 728.043 113.666 728.227 111.827C735.397 126.167 750.104 135.911 767.018 135.911C784.115 135.911 798.823 126.167 805.809 111.827C805.993 113.666 806.177 115.32 806.177 117.159Z" fill="url(#paint11_radial_218:2401)"/>
<path opacity="0.79" d="M768.857 122.674C780.331 122.674 789.632 113.373 789.632 101.9C789.632 90.4263 780.331 81.1254 768.857 81.1254C757.384 81.1254 748.083 90.4263 748.083 101.9C748.083 113.373 757.384 122.674 768.857 122.674Z" fill="url(#paint12_linear_218:2401)"/>
<path d="M769.041 254.122H741.464V353.581H769.041C778.417 353.581 786.138 331.336 786.138 303.76C786.138 276.367 778.601 254.122 769.041 254.122Z" fill="url(#paint13_linear_218:2401)"/>
<path d="M741.648 229.854H714.071V377.848H741.648C751.024 377.848 758.745 344.757 758.745 303.943C758.745 262.946 751.024 229.854 741.648 229.854Z" fill="url(#paint14_linear_218:2401)"/>
<path d="M725.654 207.426H689.805V400.277H725.654C737.972 400.277 747.899 357.074 747.899 303.76C748.083 250.629 737.972 207.426 725.654 207.426Z" fill="url(#paint15_linear_218:2401)"/>
<path d="M766.835 151.537C762.423 151.537 758.93 152.273 758.93 153.376V259.086C758.93 260.189 762.423 260.924 766.835 260.924C771.247 260.924 774.74 260.189 774.74 259.086V153.376C774.74 152.273 771.247 151.537 766.835 151.537Z" fill="url(#paint16_linear_218:2401)"/>
<path d="M655.241 431.491H116.213C106.102 431.491 97.8286 423.218 97.8286 413.107V192.127C97.8286 182.016 106.102 173.743 116.213 173.743H655.241C665.353 173.743 673.626 182.016 673.626 192.127V413.107C673.626 423.218 665.353 431.491 655.241 431.491Z" stroke="#2446BC" stroke-width="2" stroke-miterlimit="10"/>
<path d="M361.46 427.079H272.112C261.449 427.079 252.993 418.438 252.993 407.959V209.592C252.993 199.113 261.449 190.472 272.112 190.472H361.46C372.123 190.472 380.58 199.113 380.58 209.592V407.959C380.58 418.438 372.123 427.079 361.46 427.079Z" fill="url(#paint17_linear_218:2401)"/>
<path d="M499.343 427.079H409.995C399.332 427.079 390.875 418.438 390.875 407.959V209.592C390.875 198.929 399.516 190.472 409.995 190.472H499.343C510.005 190.472 518.462 199.113 518.462 209.592V407.959C518.462 418.438 510.005 427.079 499.343 427.079Z" fill="url(#paint18_linear_218:2401)"/>
<path d="M637.225 427.079H547.877C537.214 427.079 528.757 418.438 528.757 407.959V209.592C528.757 198.929 537.398 190.472 547.877 190.472H637.225C647.888 190.472 656.345 199.113 656.345 209.592V407.959C656.345 418.438 647.888 427.079 637.225 427.079Z" fill="url(#paint19_linear_218:2401)"/>
<path d="M353.738 393.068H284.429C275.789 393.068 268.803 386.082 268.803 377.441V209.96C268.803 201.319 275.789 194.333 284.429 194.333H353.738C362.379 194.333 369.365 201.319 369.365 209.96V377.441C369.365 386.082 362.379 393.068 353.738 393.068Z" fill="#1A1A1A"/>
<path d="M368.078 383.324C368.814 381.485 369.181 379.463 369.181 377.441V209.96C369.181 201.319 362.195 194.333 353.555 194.333H284.246C275.605 194.333 268.619 201.319 268.619 209.96V377.441C268.619 379.463 268.987 381.485 269.722 383.324H368.078Z" fill="url(#paint20_linear_218:2401)"/>
<path d="M555.598 393.068H624.907C633.548 393.068 640.534 386.082 640.534 377.441V209.96C640.534 201.319 633.548 194.333 624.907 194.333H555.598C546.958 194.333 539.972 201.319 539.972 209.96V377.441C540.156 386.082 547.142 393.068 555.598 393.068Z" fill="#1A1A1A"/>
<path d="M639.431 383.324C640.166 381.485 640.534 379.463 640.534 377.441V209.96C640.534 201.319 633.548 194.333 624.907 194.333H555.598C546.958 194.333 539.972 201.319 539.972 209.96V377.441C539.972 379.463 540.339 381.485 541.075 383.324H639.431Z" fill="url(#paint21_linear_218:2401)"/>
<path d="M489.415 393.068H420.106C411.466 393.068 404.479 386.082 404.479 377.441V209.96C404.479 201.319 411.466 194.333 420.106 194.333H489.415C498.056 194.333 505.042 201.319 505.042 209.96V377.441C504.858 386.082 497.872 393.068 489.415 393.068Z" fill="#1A1A1A"/>
<path d="M503.756 383.324C504.491 381.485 504.859 379.463 504.859 377.441V209.96C504.859 201.319 497.873 194.333 489.232 194.333H419.923C411.282 194.333 404.296 201.319 404.296 209.96V377.441C404.296 379.463 404.664 381.485 405.399 383.324H503.756Z" fill="url(#paint22_linear_218:2401)"/>
<rect x="202.399" y="296.233" width="233.407" height="153.546" fill="url(#pattern0)"/>
<rect x="473.751" y="296.233" width="233.407" height="153.546" fill="url(#pattern1)"/>
<rect x="337.855" y="296.233" width="233.407" height="153.546" fill="url(#pattern2)"/>
<path d="M369.365 260.517V209.96C369.365 201.319 362.379 194.333 353.738 194.333H284.429C275.789 194.333 268.803 201.319 268.803 209.96V260.517H369.365Z" fill="url(#paint23_linear_218:2401)"/>
<path d="M640.534 260.517V209.96C640.534 201.319 633.548 194.333 624.907 194.333H555.598C546.958 194.333 539.972 201.319 539.972 209.96V260.517H640.534Z" fill="url(#paint24_linear_218:2401)"/>
<path d="M504.859 260.517V209.96C504.859 201.319 497.873 194.333 489.232 194.333H419.923C411.282 194.333 404.296 201.319 404.296 209.96V260.517H504.859Z" fill="url(#paint25_linear_218:2401)"/>
<path d="M223.578 427.079H134.23C123.567 427.079 115.11 418.438 115.11 407.959V209.592C115.11 199.113 123.567 190.472 134.23 190.472H223.578C234.241 190.472 242.698 199.113 242.698 209.592V407.959C242.698 418.438 234.241 427.079 223.578 427.079Z" fill="url(#paint26_linear_218:2401)"/>
<path d="M215.856 393.068H146.548C137.907 393.068 130.921 386.082 130.921 377.441V209.96C130.921 201.319 137.907 194.333 146.548 194.333H215.856C224.497 194.333 231.483 201.319 231.483 209.96V377.441C231.483 386.082 224.497 393.068 215.856 393.068Z" fill="#1A1A1A"/>
<path d="M230.196 383.324C230.932 381.485 231.299 379.463 231.299 377.441V209.96C231.299 201.319 224.313 194.333 215.673 194.333H146.548C137.907 194.517 130.921 201.503 130.921 209.96V377.441C130.921 379.463 131.289 381.485 132.024 383.324H230.196Z" fill="url(#paint27_linear_218:2401)"/>
<rect x="64.7373" y="296.233" width="232.966" height="153.546" fill="url(#pattern3)"/>
<path d="M231.483 260.517V209.96C231.483 201.319 224.497 194.333 215.856 194.333H146.548C137.907 194.517 130.921 201.503 130.921 209.96V260.517H231.483Z" fill="url(#paint28_linear_218:2401)"/>
<path d="M83.3438 300.387C82.41 301.003 81.3271 301.282 80.2443 301.561C75.6701 302.584 69.4739 301.31 62.6259 298.112C54.9756 294.466 46.5245 288.56 38.4111 280.695C35.9676 278.36 33.4497 275.856 31.2679 273.204C26.8107 268.142 22.6897 262.93 19.39 257.757C13.6293 248.849 9.66026 240.352 8.26616 233.127C6.83407 226.723 7.49173 221.404 10.2011 217.99L19.8025 209.71L20.1941 210.14C18.1189 214.077 17.9464 219.583 19.6211 226.08C21.5749 233.661 25.9356 242.587 32.3495 251.608C35.2021 255.773 38.4653 259.957 42.2327 263.917C44.1909 266.065 46.1491 268.214 48.2009 270.119C55.9228 277.555 63.7951 283.516 71.1838 287.479C76.9679 290.545 82.3984 292.36 86.9155 292.569C88.8007 292.739 90.5368 292.572 91.9558 292.144L92.3284 292.984C92.3284 292.984 85.4731 298.84 85.0434 299.232C84.4457 299.698 84.0161 300.089 83.3438 300.387Z" fill="url(#paint29_radial_218:2401)"/>
<path d="M83.3447 300.387C82.4109 301.002 81.328 301.282 80.2451 301.561L88.2214 294.605L86.7483 292.643C88.6335 292.813 90.3696 292.646 91.7886 292.218L92.1613 293.058C92.1613 293.058 85.3059 298.914 84.8763 299.306C84.4466 299.697 84.017 300.089 83.3447 300.387Z" fill="url(#paint30_linear_218:2401)"/>
<path d="M71.0127 291.175L62.6258 298.112C54.9756 294.466 46.5245 288.56 38.411 280.695L46.8169 273.347L48.2008 270.119C55.9227 277.555 61.7798 282.6 69.094 286.395L71.0127 291.175Z" fill="url(#paint31_linear_218:2401)"/>
<path d="M27.6281 250.484L19.2222 257.832C13.4615 248.923 9.49247 240.427 8.09837 233.202L16.6533 226.19L20.8314 230.169C22.7852 237.749 24.4073 240.047 30.6531 249.142L27.6281 250.484Z" fill="url(#paint32_linear_218:2401)"/>
<path d="M93.3558 292.126C92.0669 293.301 90.3863 294.047 88.3886 294.53C83.74 295.385 77.5437 294.111 70.8638 290.839C63.2135 287.193 54.9305 281.213 46.817 273.347C44.3736 271.012 42.0983 268.602 39.7484 266.024C35.0486 260.869 31.0957 255.583 27.7959 250.409C22.1098 241.669 18.3088 233.098 16.7466 225.947C15.4636 219.88 15.8597 214.877 17.9904 211.519C18.439 210.717 18.9622 210.083 19.728 209.542C22.3059 207.192 26.2077 206.467 30.7059 207.087C35.204 207.707 40.4664 209.596 46.0824 212.737C52.8179 216.588 60.1306 222.193 67.3862 229.031C69.5125 231.105 71.4707 233.253 73.6716 235.495C77.2709 239.53 80.4596 243.546 83.2376 247.543C88.7192 255.368 92.7262 263.044 95.1287 269.822C97.084 275.591 97.8263 280.893 97.2256 284.98C96.4204 288.153 95.2425 290.485 93.3558 292.126Z" fill="url(#paint33_radial_218:2401)"/>
<path d="M81.3662 277.333C74.847 283.039 58.9677 275.802 45.7453 260.952C32.3548 246.176 26.7871 229.539 33.2318 223.665C39.6765 217.79 55.6303 225.195 68.8527 240.045C82.0752 254.896 87.6429 271.532 81.3662 277.333Z" fill="url(#paint34_radial_218:2401)"/>
<path d="M30.4898 220.657C29.8921 221.123 29.537 221.683 29.1819 222.243L18.1398 211.855C18.5884 211.053 19.1116 210.419 19.8774 209.878C22.4553 207.528 26.3572 206.803 30.8553 207.423L37.9955 218.535C34.8784 218.309 32.1339 218.923 30.4898 220.657Z" fill="white"/>
<path d="M35.2255 249.93L27.7958 250.41C22.1097 241.669 18.3087 233.098 16.7466 225.947L27.8296 231.892C28.6465 237.362 31.236 243.655 35.2255 249.93Z" fill="white"/>
<path d="M70.8633 290.839C63.2131 287.193 54.93 281.213 46.8165 273.348L49.5654 267.302C55.7952 273.187 62.1756 277.597 68.1467 280.178L70.8633 290.839Z" fill="white"/>
<path d="M93.356 292.126C92.0671 293.301 90.3865 294.047 88.3888 294.53L80.2417 282.054C81.6607 281.626 82.8371 281.105 83.8645 280.247C85.1534 279.072 86.0507 277.467 86.5564 275.433L96.7962 285.372C96.4206 288.153 95.2427 290.485 93.356 292.126Z" fill="white"/>
<path d="M94.8674 270.139L85.7996 265.11C84.3105 259.938 81.5339 254.131 77.5254 248.266L82.9763 247.86C88.4579 255.686 92.4649 263.361 94.8674 270.139Z" fill="white"/>
<path d="M65.1049 233.864C59.901 228.932 54.8081 225.157 49.8263 222.54L45.9698 213.39C52.7053 217.241 60.018 222.847 67.2736 229.685L65.1049 233.864Z" fill="white"/>
<path d="M77.2243 274.343C71.7324 279.191 58.0365 272.796 46.5297 260C35.0229 247.205 30.088 232.902 35.5799 228.053C41.0718 223.204 54.7677 229.6 66.2745 242.395C77.7067 255.023 82.6417 269.326 77.2243 274.343Z" stroke="white" stroke-width="0.7842" stroke-miterlimit="10" stroke-dasharray="2.2 2.2"/>
<path d="M81.3648 277.333C81.1032 277.65 80.7671 277.799 80.431 277.948C85.4947 271.68 79.889 255.865 67.1327 241.612C54.3765 227.36 39.244 219.993 32.3711 224.448C32.6327 224.131 32.7262 223.889 33.0624 223.74C39.5071 217.865 55.4609 225.27 68.6833 240.12C82.0738 254.896 87.6415 271.533 81.3648 277.333Z" fill="url(#paint35_radial_218:2401)"/>
<path d="M47.819 258.825C37.8043 247.58 33.4465 235.033 38.3407 230.65C39.1065 230.109 39.7042 229.643 40.619 229.439C46.3695 227.894 56.6503 233.39 65.341 243.011C74.0317 252.631 78.3909 263.368 76.2397 268.947C75.8656 269.918 75.3425 270.552 74.8193 271.186C69.9996 275.737 57.8337 270.071 47.819 258.825Z" fill="url(#paint36_radial_218:2401)"/>
<path d="M49.705 257.185C39.8393 246.275 35.7242 233.821 40.5249 229.681L40.6929 229.607C46.4435 228.062 56.7242 233.559 65.4149 243.179C74.1057 252.799 78.4649 263.536 76.3137 269.115L76.1456 269.19C71.4195 273.498 59.5707 268.094 49.705 257.185Z" fill="url(#paint37_radial_218:2401)"/>
<path d="M89.0054 332.951C84.2255 331.848 80.3648 328.723 76.8718 325.413C73.5626 321.92 70.6211 318.06 68.0473 314.015C65.4735 309.971 63.2674 305.742 61.2451 301.33C59.2228 296.918 57.7521 292.322 55.9137 287.909C52.9722 278.717 50.766 269.341 50.0307 259.781C49.663 255.001 49.663 250.221 50.2145 245.442C50.9499 240.662 52.0529 235.882 54.8106 231.837C52.0529 235.882 50.9499 240.662 50.3984 245.442C49.8468 250.221 49.8468 255.001 50.2145 259.781C50.9499 269.341 53.156 278.717 56.2813 287.909C57.9359 292.322 59.4067 296.918 61.429 301.33C63.4512 305.742 65.6573 309.971 68.2312 314.015C70.805 318.06 73.5626 321.92 77.0556 325.413C80.3648 328.723 84.2255 331.848 89.0054 332.951Z" fill="white"/>
<path d="M69.5176 285.336C69.3337 284.6 68.966 283.865 68.7822 283.129C64.1861 269.157 65.473 256.104 71.5398 254.266H71.7237C74.6652 254.818 77.9744 257.207 80.9158 261.252C83.8573 265.113 86.4312 270.077 88.4534 275.959C82.2028 274.673 73.9298 275.408 69.5176 285.336Z" fill="url(#paint38_linear_218:2401)"/>
<path d="M69.5176 285.336C69.3337 284.6 68.966 283.865 68.7822 283.129C64.1861 269.157 65.473 256.104 71.5398 254.266H71.7237C74.6652 254.818 77.9744 257.207 80.9158 261.252C83.8573 265.113 86.4312 270.077 88.4534 275.959C82.2028 274.673 73.9298 275.408 69.5176 285.336Z" fill="url(#paint39_linear_218:2401)"/>
<g filter="url(#filter0_d_218:2401)">
<path d="M727.561 525.386C715.096 539.236 689.59 536.466 670.662 519.385C651.734 502.304 646.425 477.144 658.89 463.409C671.354 449.56 696.861 452.33 715.789 469.411C734.832 486.492 740.026 511.537 727.561 525.386Z" fill="url(#paint40_radial_218:2401)"/>
<path d="M728.484 524.348L732.292 520.077L665.237 456.484L658.774 463.525L728.484 524.348Z" fill="#603813"/>
<path d="M733.563 518.808C721.098 532.657 695.592 529.888 676.664 512.806C657.736 495.725 652.427 470.565 664.892 456.831C677.356 442.981 702.863 445.751 721.791 462.832C740.719 479.913 746.028 505.074 733.563 518.808Z" fill="url(#paint41_linear_218:2401)"/>
<path d="M730.908 516.499C719.367 529.31 695.822 526.771 678.279 510.96C660.737 495.148 655.889 471.95 667.431 459.139C678.972 446.328 702.516 448.867 720.059 464.679C737.602 480.49 742.449 503.689 730.908 516.499Z" fill="#FFFC0A"/>
<path d="M730.908 516.499C719.367 529.31 695.822 526.771 678.279 510.96C660.737 495.148 655.889 471.95 667.431 459.139C678.972 446.328 702.516 448.867 720.059 464.679C737.602 480.49 742.449 503.689 730.908 516.499Z" fill="url(#paint42_radial_218:2401)"/>
<path d="M728.715 515.115C717.751 527.348 695.476 525.156 678.972 510.267C662.467 495.379 658.082 473.45 669.046 461.216C680.01 448.983 702.285 451.175 718.789 466.064C735.293 480.952 739.679 502.881 728.715 515.115Z" fill="url(#paint43_linear_218:2401)"/>
<path d="M707.479 512.806L706.44 506.459C713.48 506.689 716.135 502.188 714.635 495.494C711.749 483.145 695.014 479.567 694.437 473.104C694.206 470.565 696.053 469.872 699.169 470.796C701.939 471.719 703.901 473.104 706.325 475.412L708.979 473.219L709.787 471.834L707.941 472.181C705.748 470.103 703.324 468.372 700.208 467.102L699.515 462.948L696.63 462.024L697.323 461.909L695.938 460.178L695.13 461.563L695.591 465.833C690.398 464.794 687.166 466.756 687.282 471.257C687.628 481.76 705.748 485.684 707.248 494.109C707.941 497.918 706.094 499.649 701.362 498.495C697.323 497.456 693.629 494.802 689.936 491.224L686.127 495.956C689.821 500.111 695.361 503.689 700.208 505.304L701.247 514.191L707.71 515.576L708.518 514.191L707.479 512.806Z" fill="url(#paint44_radial_218:2401)"/>
<path d="M701.131 503.919C696.284 502.304 690.744 498.726 687.051 494.571L690.859 489.839C694.553 493.417 698.246 496.187 702.285 497.11C707.017 498.264 708.864 496.533 708.171 492.724C706.671 484.299 688.551 480.375 688.205 469.872C688.09 465.371 691.321 463.525 696.515 464.448L696.053 460.178L700.323 461.678L701.016 465.833C704.594 467.333 707.248 469.526 709.672 471.95L707.017 474.143C704.594 471.834 702.632 470.334 699.862 469.526C696.746 468.487 694.899 469.295 695.13 471.834C695.707 478.298 712.442 481.875 715.327 494.225C716.943 500.919 714.173 505.42 707.133 505.189L708.518 514.191L702.055 512.806L701.131 503.919Z" fill="url(#paint45_linear_218:2401)"/>
</g>
<path d="M446.801 464.795C446.294 465.556 445.532 466.317 444.771 466.952C441.346 469.489 435.763 470.758 428.912 470.631C421.299 470.504 412.037 468.601 402.268 465.176C399.35 464.161 396.432 463.019 393.514 461.75C387.804 459.212 382.602 456.421 377.908 453.376C369.788 448.174 363.444 442.592 359.511 437.136C355.959 432.315 354.436 427.621 355.451 423.814L360.399 413.411L360.907 413.664C360.526 417.597 362.556 422.165 366.363 426.986C370.803 432.569 377.781 438.278 386.409 443.353C390.342 445.764 394.656 447.921 399.223 449.951C401.634 450.966 404.044 451.981 406.455 452.869C415.59 456.294 424.344 458.197 431.83 458.705C437.793 459.086 442.995 458.578 446.801 457.182C448.324 456.548 449.719 455.787 450.734 454.899L451.369 455.406C451.369 455.406 447.816 462.892 447.689 463.146C447.436 463.78 447.055 464.287 446.801 464.795Z" fill="url(#paint46_radial_218:2401)"/>
<path d="M446.801 464.795C446.294 465.556 445.532 466.317 444.771 466.952L448.831 458.197L446.928 457.182C448.45 456.548 449.846 455.787 450.861 454.899L451.495 455.406C451.495 455.406 447.943 462.892 447.816 463.146C447.435 463.78 447.055 464.287 446.801 464.795Z" fill="url(#paint47_linear_218:2401)"/>
<path d="M433.099 461.623L428.785 470.504C421.173 470.377 411.911 468.474 402.142 465.049L406.328 455.914V452.742C415.463 456.167 422.188 457.944 429.673 458.451L433.099 461.623Z" fill="url(#paint48_linear_218:2401)"/>
<path d="M382.095 444.114L377.908 453.249C369.788 448.047 363.444 442.465 359.511 437.009L363.952 428.001L368.9 429.777C373.341 435.36 375.497 436.629 383.998 441.831L382.095 444.114Z" fill="url(#paint49_linear_218:2401)"/>
<path d="M452.003 454.137C451.369 455.66 450.227 456.929 448.831 457.944C445.279 460.481 439.696 461.623 432.845 461.369C425.233 461.116 416.098 459.339 406.455 455.914C403.664 454.899 400.746 453.757 397.954 452.488C392.245 449.951 386.916 447.159 382.222 444.114C374.229 439.039 367.885 433.33 364.079 428.001C360.78 423.561 359.258 419.247 359.765 415.567C359.892 414.806 360.146 414.045 360.399 413.284C361.668 410.366 364.586 408.336 368.519 407.194C372.453 406.052 377.528 405.671 383.364 406.306C390.469 406.94 398.462 408.843 406.963 411.888C409.5 412.776 412.038 413.791 414.575 414.933C419.016 416.963 423.202 419.12 427.009 421.404C434.494 425.844 440.584 430.666 445.152 435.487C448.958 439.547 451.496 443.607 452.511 447.286C453.018 449.824 452.891 452.107 452.003 454.137Z" fill="url(#paint50_radial_218:2401)"/>
<path d="M436.398 446.398C433.226 453.503 417.24 453.376 400.746 446.017C384.252 438.659 373.341 426.986 376.513 419.754C379.685 412.649 395.671 412.776 412.165 420.135C428.785 427.494 439.57 439.293 436.398 446.398Z" fill="url(#paint51_radial_218:2401)"/>
<path d="M373.214 418.359C372.96 418.993 372.833 419.627 372.706 420.262L359.638 415.694C359.765 414.933 360.019 414.172 360.273 413.411C361.541 410.492 364.459 408.462 368.393 407.321L378.416 413.791C376.005 414.806 374.102 416.329 373.214 418.359Z" fill="white"/>
<path d="M388.185 440.942L382.222 444.114C374.229 439.039 367.885 433.33 364.079 428.001L375.497 428.889C378.035 432.949 382.475 437.136 388.185 440.942Z" fill="white"/>
<path d="M432.845 461.496C425.233 461.242 416.098 459.466 406.455 456.041V450.077C413.814 452.615 420.792 453.884 426.501 453.884L432.845 461.496Z" fill="white"/>
<path d="M452.003 454.137C451.369 455.66 450.227 456.929 448.831 457.944L437.54 450.712C438.555 449.951 439.316 448.936 439.823 447.921C440.458 446.398 440.585 444.749 440.204 442.972L452.384 447.286C453.018 449.824 452.891 452.107 452.003 454.137Z" fill="white"/>
<path d="M445.025 435.487L435.636 434.599C432.591 430.919 428.023 427.113 422.568 423.814L427.008 421.531C434.367 425.844 440.584 430.792 445.025 435.487Z" fill="white"/>
<path d="M406.963 416.329C400.873 414.172 395.163 412.903 390.088 412.522L383.491 406.306C390.596 406.94 398.589 408.843 407.089 411.888L406.963 416.329Z" fill="white"/>
<path d="M431.957 445.383C429.293 451.473 415.463 451.219 401.253 444.876C386.916 438.532 377.528 428.509 380.192 422.419C382.856 416.329 396.686 416.582 410.896 422.926C425.233 429.27 434.621 439.293 431.957 445.383Z" stroke="white" stroke-width="1.0313" stroke-miterlimit="10" stroke-dasharray="2.89 2.89"/>
<path d="M436.397 446.398C436.27 446.652 436.144 447.032 435.89 447.286C437.793 440.181 427.136 429.143 411.276 422.165C395.417 415.187 380.065 414.679 376.132 420.769C376.259 420.516 376.259 420.135 376.386 419.881C379.557 412.776 395.544 412.903 412.037 420.262C428.785 427.494 439.569 439.293 436.397 446.398Z" fill="url(#paint52_radial_218:2401)"/>
<path d="M401.887 443.607C389.327 438.024 381.207 429.143 383.617 423.814C383.998 423.053 384.505 422.419 385.14 421.911C389.327 418.486 399.857 419.247 410.642 424.068C421.426 428.889 429.039 436.121 429.419 441.577C429.419 442.465 429.292 443.226 429.039 443.987C426.501 449.189 414.321 449.189 401.887 443.607Z" fill="url(#paint53_radial_218:2401)"/>
<path d="M402.902 441.323C390.722 435.867 382.729 427.24 385.013 421.911C385.013 421.911 385.013 421.784 385.14 421.784C389.327 418.359 399.857 419.12 410.642 423.941C421.426 428.762 429.039 435.994 429.419 441.45C429.419 441.45 429.419 441.577 429.292 441.577C426.882 446.906 415.082 446.779 402.902 441.323Z" fill="url(#paint54_radial_218:2401)"/>
<path d="M448.831 457.944C447.055 459.212 445.025 459.974 442.868 460.608C440.711 461.116 438.554 461.369 436.397 461.496C432.083 461.75 427.643 461.242 423.329 460.608C419.015 459.847 414.828 458.832 410.641 457.563C406.455 456.294 402.395 454.518 398.335 452.996C390.341 449.57 382.729 445.129 375.751 439.801C372.325 437.136 369.027 434.218 366.108 430.919C363.317 427.621 360.78 423.941 359.765 419.627C360.78 423.941 363.444 427.494 366.235 430.792C369.153 434.091 372.452 436.882 375.878 439.547C382.856 444.749 390.468 449.062 398.461 452.488C402.521 454.137 406.455 455.914 410.641 457.056C414.828 458.324 419.015 459.466 423.329 460.227C427.643 460.989 431.956 461.369 436.27 461.242C438.427 461.116 440.584 460.989 442.741 460.481C444.898 459.974 447.055 459.212 448.831 457.944Z" fill="white"/>
<path d="M404.805 442.211C404.171 441.957 403.537 441.704 402.902 441.45C390.722 435.994 382.729 427.367 385.013 422.038L385.14 421.911C387.297 420.262 390.976 419.501 395.417 419.881C399.73 420.262 404.805 421.531 409.88 423.687C405.44 427.113 400.872 433.203 404.805 442.211Z" fill="url(#paint55_linear_218:2401)"/>
<path d="M404.805 442.211C404.171 441.957 403.537 441.704 402.902 441.45C390.722 435.994 382.729 427.367 385.013 422.038L385.14 421.911C387.297 420.262 390.976 419.501 395.417 419.881C399.73 420.262 404.805 421.531 409.88 423.687C405.44 427.113 400.872 433.203 404.805 442.211Z" fill="url(#paint56_linear_218:2401)"/>
<g filter="url(#filter1_d_218:2401)">
<path d="M172.848 448.255C174.848 474.501 147.102 497.997 111.108 500.622C74.9883 503.371 44.243 484.249 42.2433 458.003C40.2436 431.757 67.9893 408.261 103.984 405.636C140.103 402.887 170.849 422.009 172.848 448.255Z" fill="url(#paint57_radial_218:2401)"/>
<path d="M172.599 446.38L171.974 438.381L41.2441 444.88L42.244 458.378L172.599 446.38Z" fill="#603813"/>
<path d="M171.849 435.882C173.849 462.128 146.103 485.624 110.109 488.249C74.1142 490.873 43.2439 471.876 41.2442 445.63C39.2445 419.384 66.9903 395.888 102.985 393.263C139.104 390.513 169.975 409.636 171.849 435.882Z" fill="url(#paint58_linear_218:2401)"/>
<path d="M166.975 436.132C168.724 460.378 143.228 482.125 109.858 484.624C76.4885 487.124 47.9929 469.376 46.2431 445.13C44.4934 420.884 69.9895 399.137 103.359 396.638C136.729 394.263 165.225 411.885 166.975 436.132Z" fill="#FFFC0A"/>
<path d="M166.975 436.132C168.724 460.378 143.228 482.125 109.858 484.624C76.4885 487.124 47.9929 469.376 46.2431 445.13C44.4934 420.884 69.9895 399.137 103.359 396.638C136.729 394.263 165.225 411.885 166.975 436.132Z" fill="url(#paint59_radial_218:2401)"/>
<path d="M163.35 437.131C165.1 460.378 141.104 481 109.734 483.374C78.3634 485.749 51.6175 468.752 49.8678 445.63C48.118 422.509 72.1144 401.762 103.485 399.387C134.855 397.012 161.726 414.01 163.35 437.131Z" fill="url(#paint60_linear_218:2401)"/>
<path d="M140.354 456.629L132.855 451.379C139.979 444.38 137.979 437.256 129.606 432.382C114.233 423.259 94.1109 436.882 86.987 431.257C84.1124 429.008 85.1123 426.383 89.2367 424.133C92.8611 422.134 96.2356 421.634 100.985 421.384L101.36 416.51L100.735 414.385L99.3601 416.51C95.1108 416.76 90.9864 417.509 86.6121 419.384L81.6128 416.01L77.8634 418.009L78.4883 417.135L75.3638 416.885L75.9887 419.009L80.8629 422.634C74.8638 426.883 73.4891 432.132 78.2383 436.382C89.2367 446.255 110.983 431.632 121.107 438.256C125.606 441.256 125.606 444.88 119.857 448.505C114.983 451.629 108.484 452.754 101.235 453.004L102.36 461.503C110.233 461.753 119.232 459.628 125.606 456.254L135.73 463.877L143.478 458.503L142.853 456.379L140.354 456.629Z" fill="url(#paint61_radial_218:2401)"/>
<path d="M125.106 454.504C118.732 457.878 109.733 460.003 101.859 459.753L100.735 451.254C107.983 451.004 114.358 449.879 119.357 446.755C125.106 443.13 125.106 439.506 120.607 436.507C110.483 429.883 88.7364 444.505 77.7381 434.632C72.9888 430.382 74.2386 425.133 80.3627 420.884L75.4884 417.259L81.2376 414.26L86.2368 417.634C91.236 415.385 96.1103 414.76 100.985 414.635L100.61 419.509C95.8603 419.759 92.4858 420.259 88.8614 422.259C84.737 424.508 83.7372 427.133 86.6117 429.383C93.8606 435.007 113.858 421.384 129.23 430.507C137.604 435.507 139.604 442.631 132.48 449.505L143.103 456.878L135.354 462.253L125.106 454.504Z" fill="url(#paint62_linear_218:2401)"/>
</g>
<path d="M82.2255 0.642618C82.777 0.458775 83.3285 0.274931 84.0639 0.0910877C86.6377 -0.276599 89.9469 0.458774 93.6238 2.48105C97.6683 4.68717 102.081 8.18019 106.493 12.7763C107.78 14.0632 109.067 15.5339 110.17 17.0047C112.56 19.9462 114.582 22.8877 116.236 25.8291C119.178 30.7929 121.016 35.7567 121.568 39.6174C122.119 43.2943 121.752 46.0519 120.097 47.8903L114.582 52.1187L114.398 51.9349C115.685 49.9126 115.869 46.9711 115.133 43.2943C114.214 39.0659 112.192 34.1021 108.883 28.9545C107.412 26.5645 105.757 24.1746 103.919 21.7846C103 20.4977 101.897 19.3946 100.794 18.2916C96.7491 13.8793 92.5207 10.3863 88.66 7.99635C85.5347 6.15792 82.5932 5.05486 80.2032 4.68717C79.284 4.50333 78.3648 4.68717 77.4456 4.87101L77.2617 4.31948C77.2617 4.31948 81.3063 1.19415 81.4901 1.19415C81.674 1.0103 82.0416 0.826461 82.2255 0.642618Z" fill="url(#paint63_radial_218:2401)"/>
<path d="M82.2255 0.642595C82.777 0.458751 83.3285 0.274908 84.0639 0.0910645L79.4678 3.76793L80.2032 4.87099C79.284 4.68714 78.3648 4.87099 77.4456 5.05483L77.2617 4.5033C77.2617 4.5033 81.3063 1.37797 81.4901 1.37797C81.674 1.01028 82.0416 0.826438 82.2255 0.642595Z" fill="url(#paint64_linear_218:2401)"/>
<path d="M88.8438 6.15794L93.6237 2.66492C97.6682 4.87104 102.08 8.36406 106.493 12.9601L101.713 16.637L100.794 18.2916C96.749 13.8794 93.6237 11.1217 89.763 8.73175L88.8438 6.15794Z" fill="url(#paint65_linear_218:2401)"/>
<path d="M111.457 29.8736L116.237 26.0129C119.178 30.9767 121.017 35.9405 121.568 39.8012L116.604 43.4781L114.582 41.0881C113.663 36.8597 112.928 35.5728 109.802 30.4252L111.457 29.8736Z" fill="url(#paint66_linear_218:2401)"/>
<path d="M76.5262 4.87099C77.2616 4.31946 78.1808 3.76793 79.2839 3.76793C81.8577 3.40025 85.1669 4.31946 88.8437 6.34174C92.8883 8.54786 97.3005 12.0409 101.529 16.637C102.816 17.9239 103.919 19.3946 105.206 20.8654C107.596 23.8068 109.618 26.7483 111.273 29.6898C114.214 34.6536 116.053 39.4335 116.604 43.4781C117.156 46.7873 116.788 49.5449 115.501 51.3833C115.133 51.751 114.949 52.1187 114.582 52.4864C113.111 53.7733 110.905 53.9571 108.515 53.5895C106.125 53.0379 103.184 51.9349 100.242 49.9126C96.5652 47.5226 92.7045 44.3973 89.0276 40.3527C87.9245 39.2497 86.8215 37.9628 85.7184 36.6759C83.88 34.4698 82.2254 32.0798 80.7546 29.6898C78.1808 25.0937 76.1586 20.6815 75.0555 17.0046C74.1363 13.6955 73.9524 10.9378 74.3201 8.54786C74.6878 7.07711 75.4232 5.79021 76.5262 4.87099Z" fill="url(#paint67_radial_218:2401)"/>
<path d="M82.7773 13.5116C86.4541 10.5701 95.0948 14.9824 101.897 23.623C108.699 32.2636 111.273 41.4558 107.596 44.5811C103.919 47.5226 95.2786 43.1104 88.4764 34.4697C81.6742 25.8291 79.1004 16.4531 82.7773 13.5116Z" fill="url(#paint68_radial_218:2401)"/>
<path d="M109.067 46.2357C109.435 46.0519 109.619 45.6842 109.803 45.3165L115.502 51.3834C115.134 51.751 114.95 52.1187 114.583 52.4864C113.112 53.7733 110.906 53.9572 108.516 53.5895L104.839 47.3388C106.493 47.3388 107.964 46.9711 109.067 46.2357Z" fill="white"/>
<path d="M107.228 29.8737L111.273 29.6898C114.214 34.6536 116.053 39.4335 116.604 43.4781L110.721 39.8012C110.537 37.0436 109.25 33.5505 107.228 29.8737Z" fill="white"/>
<path d="M88.8438 6.3418C92.8883 8.54792 97.3005 12.0409 101.529 16.637L99.8743 19.9462C96.5652 16.4532 93.256 13.8794 90.1307 12.4086L88.8438 6.3418Z" fill="white"/>
<path d="M76.5264 4.871C77.2618 4.31947 78.181 3.76794 79.2841 3.76794L83.3286 10.754C82.5933 10.9378 81.8579 11.1217 81.3064 11.6732C80.571 12.2247 80.0195 13.144 79.6518 14.247L74.3203 8.54787C74.688 7.07712 75.4234 5.79022 76.5264 4.871Z" fill="white"/>
<path d="M75.0557 17.0046L79.8356 20.13C80.571 23.0715 81.8579 26.1968 83.8801 29.6898H80.9386C78.181 25.0937 76.1587 20.6815 75.0557 17.0046Z" fill="white"/>
<path d="M90.3147 37.9628C92.8885 40.7204 95.83 43.1104 98.4038 44.765L100.242 49.9126C96.5654 47.5226 92.7047 44.3973 89.0278 40.3527L90.3147 37.9628Z" fill="white"/>
<path d="M84.7997 15.3501C87.925 12.7763 95.2787 16.8209 101.162 24.1746C107.045 31.5283 109.435 39.6174 106.309 42.1912C103.184 44.765 95.8303 40.7205 89.9473 33.3667C84.0643 25.8292 81.6743 17.7401 84.7997 15.3501Z" stroke="white" stroke-width="0.432" stroke-miterlimit="10" stroke-dasharray="1.21 1.21"/>
<path d="M82.7773 13.5116C82.9611 13.3278 83.145 13.3278 83.3288 13.1439C80.2035 16.4531 82.7773 25.2776 89.3956 33.5505C96.014 41.8235 104.103 46.2357 107.964 44.0296C107.78 44.2134 107.78 44.2134 107.596 44.3973C103.919 47.3388 95.2786 42.9265 88.4764 34.2859C81.6742 25.8291 79.1004 16.4531 82.7773 13.5116Z" fill="url(#paint69_radial_218:2401)"/>
<path d="M100.609 24.5423C105.757 30.9768 107.779 38.1467 105.021 40.3528C104.654 40.7205 104.102 40.9043 103.735 40.9043C100.609 41.6397 95.0939 38.3305 90.4979 32.6314C86.0856 27.1161 83.8795 21.0492 85.3502 17.9239C85.5341 17.3724 85.9018 17.0047 86.2695 16.8208C88.8433 14.6147 95.4616 18.1078 100.609 24.5423Z" fill="url(#paint70_radial_218:2401)"/>
<path d="M99.5062 25.4615C104.654 31.7122 106.492 38.6982 103.735 40.9043C100.609 41.6397 95.0939 38.3305 90.4979 32.6314C86.0856 27.1161 83.8795 21.0493 85.3502 17.9239C88.1079 15.9016 94.3586 19.2108 99.5062 25.4615Z" fill="url(#paint71_radial_218:2401)"/>
<path d="M79.2837 3.76795C81.8575 3.40026 84.6151 4.31948 87.0051 5.2387C89.3951 6.34176 91.6012 7.8125 93.8073 9.28325C98.0357 12.4086 101.713 16.2693 105.206 20.3138C108.515 24.3584 111.456 28.9545 113.662 33.7344C114.765 36.1244 115.685 38.6982 116.42 41.272C116.972 43.8458 117.339 46.6034 116.604 49.1772C117.155 46.6034 116.788 43.8458 116.236 41.272C115.501 38.6982 114.582 36.3082 113.479 33.9182C111.272 29.1383 108.331 24.7261 104.838 20.6815C101.529 16.637 97.8519 12.7763 93.6235 9.65093C91.6012 7.99635 89.2112 6.70944 86.8213 5.42254C84.6151 4.31948 81.8575 3.40026 79.2837 3.76795Z" fill="white"/>
<path d="M98.5879 24.5422C98.7717 24.9099 99.1394 25.0938 99.3232 25.4615C104.471 31.7121 106.309 38.6982 103.552 40.9043C101.897 41.272 99.6909 40.5366 97.4848 39.0659C95.2787 37.5951 92.8887 35.5728 90.6826 32.999C94.1756 32.4475 98.2202 30.4252 98.5879 24.5422Z" fill="url(#paint72_linear_218:2401)"/>
<path d="M98.5879 24.5422C98.7717 24.9099 99.1394 25.0938 99.3232 25.4615C104.471 31.7121 106.309 38.6982 103.552 40.9043C101.897 41.272 99.6909 40.5366 97.4848 39.0659C95.2787 37.5951 92.8887 35.5728 90.6826 32.999C94.1756 32.4475 98.2202 30.4252 98.5879 24.5422Z" fill="url(#paint73_linear_218:2401)"/>
<path d="M344.419 129.749C344.787 130.484 344.971 131.036 344.971 131.771C345.339 134.897 344.052 138.941 341.478 143.353C338.536 148.133 333.94 153.465 328.057 158.429C326.403 159.899 324.564 161.37 322.542 162.657C318.865 165.415 315.004 167.621 311.328 169.643C305.077 172.952 299.01 174.974 294.046 175.342C289.634 175.894 286.141 175.158 283.935 172.952L278.971 165.966L279.339 165.598C281.729 167.253 285.406 167.621 289.818 167.069C294.966 166.334 301.216 163.944 307.835 160.267C310.776 158.612 313.901 156.774 316.843 154.568C318.498 153.465 319.968 152.178 321.439 151.075C326.954 146.479 331.55 141.515 334.676 136.919C337.25 133.242 338.72 129.749 339.272 126.807C339.456 125.521 339.456 124.418 339.272 123.498L339.823 123.314C339.823 123.314 343.316 128.278 343.5 128.646C344.052 128.83 344.236 129.197 344.419 129.749Z" fill="url(#paint74_radial_218:2401)"/>
<path d="M344.42 129.749C344.788 130.484 344.972 131.036 344.972 131.771L340.743 125.888L339.457 126.807C339.64 125.521 339.64 124.418 339.457 123.498L340.008 123.314C340.008 123.314 343.501 128.278 343.685 128.646C344.053 128.83 344.236 129.197 344.42 129.749Z" fill="url(#paint75_linear_218:2401)"/>
<path d="M337.434 137.287L341.479 143.353C338.537 148.133 333.941 153.465 328.058 158.429L323.83 152.362L321.808 151.259C327.323 146.663 331 142.986 334.125 138.39L337.434 137.287Z" fill="url(#paint76_linear_218:2401)"/>
<path d="M307.099 163.576L311.512 169.643C305.261 172.952 299.194 174.974 294.23 175.342L290.002 169.091L292.943 166.518C298.091 165.782 299.746 164.863 306.364 161.186L307.099 163.576Z" fill="url(#paint77_linear_218:2401)"/>
<path d="M339.64 122.395C340.375 123.314 340.743 124.601 340.927 125.888C341.294 129.014 339.824 133.058 337.25 137.47C334.308 142.25 329.712 147.582 323.829 152.362C322.175 153.832 320.336 155.303 318.498 156.59C314.821 159.348 310.96 161.554 307.283 163.576C301.033 166.885 295.15 168.724 290.186 169.275C286.141 169.643 282.832 169.091 280.626 167.437C280.258 167.069 279.707 166.701 279.523 166.15C278.052 164.312 277.868 161.554 278.604 158.612C279.339 155.671 280.994 152.178 283.567 148.685C286.693 144.456 290.737 139.86 295.885 135.632C297.356 134.345 299.01 133.058 300.665 131.955C303.606 129.749 306.548 127.911 309.489 126.256C315.005 123.131 320.52 120.925 325.3 119.821C329.344 118.902 332.837 118.718 335.595 119.454C337.25 120.005 338.72 120.925 339.64 122.395Z" fill="url(#paint78_radial_218:2401)"/>
<path d="M328.794 129.381C332.287 134.161 326.22 144.273 315.373 152.178C304.527 160.083 292.944 162.657 289.451 157.877C285.958 153.097 292.025 142.986 302.872 135.08C313.903 127.359 325.485 124.785 328.794 129.381Z" fill="url(#paint79_radial_218:2401)"/>
<path d="M287.245 159.715C287.612 160.083 287.796 160.451 288.164 160.819L280.442 167.437C280.075 167.069 279.523 166.702 279.339 166.15C277.869 164.312 277.685 161.554 278.42 158.612L286.325 154.568C286.142 156.59 286.325 158.245 287.245 159.715Z" fill="white"/>
<path d="M307.467 158.429L307.283 163.392C301.033 166.702 295.15 168.54 290.186 169.092L294.966 162.105C298.459 161.922 302.871 160.635 307.467 158.429Z" fill="white"/>
<path d="M337.25 137.287C334.309 142.067 329.712 147.398 323.829 152.178L319.969 149.972C324.381 146.111 327.69 142.25 329.896 138.39L337.25 137.287Z" fill="white"/>
<path d="M339.64 122.395C340.375 123.314 340.743 124.601 340.927 125.888L332.102 130.484C331.919 129.565 331.735 128.646 331.183 127.911C330.448 126.991 329.529 126.256 328.242 125.888L335.595 119.638C337.25 120.005 338.721 120.924 339.64 122.395Z" fill="white"/>
<path d="M325.116 119.821L321.072 125.521C317.579 126.072 313.534 127.543 309.306 129.933L309.49 126.256C315.005 123.131 320.336 120.924 325.116 119.821Z" fill="white"/>
<path d="M298.643 137.287C294.966 140.412 292.025 143.721 290.002 146.846L283.568 148.869C286.693 144.64 290.738 140.044 295.885 135.816L298.643 137.287Z" fill="white"/>
<path d="M326.587 131.955C329.528 136 324.197 144.64 314.821 151.443C305.445 158.245 295.517 160.635 292.576 156.59C289.634 152.546 294.966 143.905 304.342 137.103C313.718 130.301 323.645 127.911 326.587 131.955Z" stroke="white" stroke-width="0.5285" stroke-miterlimit="10" stroke-dasharray="1.48 1.48"/>
<path d="M328.794 129.381C328.978 129.565 328.978 129.749 329.162 129.933C325.301 126.072 314.27 128.83 303.791 136.367C293.312 143.905 287.429 153.649 289.819 158.429C289.635 158.245 289.451 158.061 289.451 157.877C285.958 153.097 292.025 142.986 302.872 135.08C313.903 127.359 325.485 124.785 328.794 129.381Z" fill="url(#paint80_radial_218:2401)"/>
<path d="M314.269 150.707C305.996 156.774 297.356 158.612 294.782 155.119C294.414 154.568 294.23 154.016 294.046 153.465C293.495 149.42 297.907 142.986 304.893 137.838C312.063 132.691 319.417 130.484 323.094 132.323C323.645 132.691 324.197 133.058 324.564 133.426C326.954 136.919 322.358 144.64 314.269 150.707Z" fill="url(#paint81_radial_218:2401)"/>
<path d="M313.166 149.236C305.077 155.119 296.62 156.958 294.046 153.465C294.046 153.465 294.046 153.465 294.046 153.281C293.495 149.236 297.907 142.802 304.893 137.654C312.063 132.507 319.417 130.301 323.094 132.139C323.094 132.139 323.094 132.139 323.094 132.323C325.667 135.816 321.071 143.353 313.166 149.236Z" fill="url(#paint82_radial_218:2401)"/>
<path d="M340.927 125.888C341.295 129.197 340.008 132.323 338.537 135.264C337.066 138.206 335.228 140.78 333.022 143.353C330.999 145.927 328.793 148.133 326.403 150.339C324.013 152.546 321.44 154.568 318.866 156.59C313.718 160.451 308.019 163.76 301.952 166.15C299.011 167.437 295.885 168.356 292.76 169.091C289.635 169.643 286.326 170.011 283.2 168.908C286.326 169.827 289.635 169.459 292.76 168.908C295.885 168.356 299.011 167.253 301.952 165.966C307.835 163.392 313.534 160.083 318.682 156.222C321.256 154.2 323.83 152.362 326.22 150.156C328.609 147.949 330.816 145.743 333.022 143.17C335.044 140.78 336.882 138.022 338.537 135.264C339.824 132.139 341.111 129.014 340.927 125.888Z" fill="white"/>
<path d="M314.454 148.317C314.086 148.685 313.718 148.869 313.167 149.236C305.078 155.119 296.621 156.958 294.047 153.465V153.281C293.679 151.259 294.599 148.685 296.621 145.927C298.459 143.353 301.217 140.596 304.526 138.022C304.894 142.25 307.1 147.398 314.454 148.317Z" fill="url(#paint83_linear_218:2401)"/>
<path d="M314.454 148.317C314.086 148.685 313.718 148.869 313.167 149.236C305.078 155.119 296.621 156.958 294.047 153.465V153.281C293.679 151.259 294.599 148.685 296.621 145.927C298.459 143.353 301.217 140.596 304.526 138.022C304.894 142.25 307.1 147.398 314.454 148.317Z" fill="url(#paint84_linear_218:2401)"/>
<defs>
<pattern id="pattern0" patternContentUnits="objectBoundingBox" width="1" height="1">
<use href="#image0_218:2401" transform="scale(0.00187617 0.00282486)"/>
</pattern>
<pattern id="pattern1" patternContentUnits="objectBoundingBox" width="1" height="1">
<use href="#image1_218:2401" transform="scale(0.00187617 0.00282486)"/>
</pattern>
<pattern id="pattern2" patternContentUnits="objectBoundingBox" width="1" height="1">
<use href="#image2_218:2401" transform="scale(0.00187617 0.00282486)"/>
</pattern>
<pattern id="pattern3" patternContentUnits="objectBoundingBox" width="1" height="1">
<use href="#image3_218:2401" transform="scale(0.00187617 0.00282486)"/>
</pattern>
<filter id="filter0_d_218:2401" x="641.143" y="445" width="110.167" height="108.217" filterUnits="userSpaceOnUse" color-interpolation-filters="sRGB">
<feFlood flood-opacity="0" result="BackgroundImageFix"/>
<feColorMatrix in="SourceAlpha" type="matrix" values="0 0 0 0 0 0 0 0 0 0 0 0 0 0 0 0 0 0 127 0" result="hardAlpha"/>
<feOffset dy="8"/>
<feGaussianBlur stdDeviation="5.5"/>
<feComposite in2="hardAlpha" operator="out"/>
<feColorMatrix type="matrix" values="0 0 0 0 0 0 0 0 0 0 0 0 0 0 0 0 0 0 0.25 0"/>
<feBlend mode="normal" in2="BackgroundImageFix" result="effect1_dropShadow_218:2401"/>
<feBlend mode="normal" in="SourceGraphic" in2="effect1_dropShadow_218:2401" result="shape"/>
</filter>
<filter id="filter1_d_218:2401" x="31.1426" y="392" width="151.808" height="127.885" filterUnits="userSpaceOnUse" color-interpolation-filters="sRGB">
<feFlood flood-opacity="0" result="BackgroundImageFix"/>
<feColorMatrix in="SourceAlpha" type="matrix" values="0 0 0 0 0 0 0 0 0 0 0 0 0 0 0 0 0 0 127 0" result="hardAlpha"/>
<feOffset dy="9"/>
<feGaussianBlur stdDeviation="5"/>
<feComposite in2="hardAlpha" operator="out"/>
<feColorMatrix type="matrix" values="0 0 0 0 0 0 0 0 0 0 0 0 0 0 0 0 0 0 0.25 0"/>
<feBlend mode="normal" in2="BackgroundImageFix" result="effect1_dropShadow_218:2401"/>
<feBlend mode="normal" in="SourceGraphic" in2="effect1_dropShadow_218:2401" result="shape"/>
</filter>
<linearGradient id="paint0_linear_218:2401" x1="697.961" y1="89.3254" x2="616.738" y2="170.548" gradientUnits="userSpaceOnUse">
<stop stop-color="#0BA74B"/>
<stop offset="0.2999" stop-color="#0E9947"/>
<stop offset="0.594" stop-color="#0E8A44"/>
</linearGradient>
<linearGradient id="paint1_linear_218:2401" x1="38.7846" y1="84.7931" x2="144.877" y2="190.886" gradientUnits="userSpaceOnUse">
<stop stop-color="#0BA74B"/>
<stop offset="0.2999" stop-color="#0E9947"/>
<stop offset="0.594" stop-color="#0E8A44"/>
</linearGradient>
<radialGradient id="paint2_radial_218:2401" cx="0" cy="0" r="1" gradientUnits="userSpaceOnUse" gradientTransform="translate(533.334 158.7) rotate(-23.8403) scale(36.4516)">
<stop stop-color="#FFF9BF"/>
<stop offset="0.1054" stop-color="#FAEFAE"/>
<stop offset="0.3139" stop-color="#EBD481"/>
<stop offset="0.3708" stop-color="#E7CC74"/>
<stop offset="0.6854" stop-color="#E3AC11"/>
<stop offset="1" stop-color="#713413"/>
</radialGradient>
<linearGradient id="paint3_linear_218:2401" x1="492.003" y1="168.283" x2="568.248" y2="134.591" gradientUnits="userSpaceOnUse">
<stop offset="0.005618" stop-color="#F6BD1E"/>
<stop offset="0.2528" stop-color="#FFF9BF"/>
<stop offset="0.305" stop-color="#F7ECAE"/>
<stop offset="0.4089" stop-color="#E1C881"/>
<stop offset="0.5532" stop-color="#BE9039"/>
<stop offset="0.5955" stop-color="#B37F23"/>
<stop offset="0.8708" stop-color="#E7CC74"/>
<stop offset="1" stop-color="#FFF9BF"/>
</linearGradient>
<radialGradient id="paint4_radial_218:2401" cx="0" cy="0" r="1" gradientUnits="userSpaceOnUse" gradientTransform="translate(530.126 151.437) rotate(-23.8403) scale(33.7275)">
<stop stop-color="#FFF9BF"/>
<stop offset="0.1054" stop-color="#FAEFAE"/>
<stop offset="0.3139" stop-color="#EBD481"/>
<stop offset="0.3708" stop-color="#E7CC74"/>
<stop offset="0.6854" stop-color="#BF5718"/>
<stop offset="1" stop-color="#63370F"/>
</radialGradient>
<linearGradient id="paint5_linear_218:2401" x1="554.049" y1="108.541" x2="522.913" y2="165.283" gradientUnits="userSpaceOnUse">
<stop offset="0.005618" stop-color="#F9C726"/>
<stop offset="0.2528" stop-color="#FFF9C9"/>
<stop offset="0.3053" stop-color="#F8EDB8"/>
<stop offset="0.4097" stop-color="#E6CF8B"/>
<stop offset="0.5549" stop-color="#CA9E43"/>
<stop offset="0.5955" stop-color="#C1902E"/>
<stop offset="0.8708" stop-color="#ECD385"/>
<stop offset="1" stop-color="#FFF9C9"/>
</linearGradient>
<radialGradient id="paint6_radial_218:2401" cx="0" cy="0" r="1" gradientUnits="userSpaceOnUse" gradientTransform="translate(530.712 150.725) rotate(-35.3525) scale(19.1147)">
<stop stop-color="#FFF9BF"/>
<stop offset="0.1054" stop-color="#FAEFAE"/>
<stop offset="0.3139" stop-color="#EBD481"/>
<stop offset="0.3708" stop-color="#E7CC74"/>
<stop offset="0.6854" stop-color="#BF5718"/>
<stop offset="1" stop-color="#63370F"/>
</radialGradient>
<linearGradient id="paint7_linear_218:2401" x1="523.478" y1="161.108" x2="537.472" y2="137.263" gradientUnits="userSpaceOnUse">
<stop offset="0.005618" stop-color="#F9C726"/>
<stop offset="0.2528" stop-color="#FFF9C9"/>
<stop offset="0.3053" stop-color="#F8EDB8"/>
<stop offset="0.4097" stop-color="#E6CF8B"/>
<stop offset="0.5549" stop-color="#CA9E43"/>
<stop offset="0.5955" stop-color="#C1902E"/>
<stop offset="0.8708" stop-color="#ECD385"/>
<stop offset="1" stop-color="#FFF9C9"/>
</linearGradient>
<linearGradient id="paint8_linear_218:2401" x1="386.139" y1="39.349" x2="386.139" y2="438.64" gradientUnits="userSpaceOnUse">
<stop stop-color="#56CCF2"/>
<stop offset="0.638542" stop-color="#1590F4"/>
<stop offset="0.9574" stop-color="#09397A"/>
</linearGradient>
<linearGradient id="paint9_linear_218:2401" x1="386.139" y1="63.5102" x2="386.139" y2="465.216" gradientUnits="userSpaceOnUse">
<stop stop-color="#2F80ED"/>
<stop offset="0.529167" stop-color="#2162B9"/>
<stop offset="0.784375" stop-color="#0C3E82"/>
<stop offset="1" stop-color="#2F80ED"/>
</linearGradient>
<radialGradient id="paint10_radial_218:2401" cx="0" cy="0" r="1" gradientUnits="userSpaceOnUse" gradientTransform="translate(775.25 95.9845) scale(40.8614)">
<stop stop-color="#2F80ED"/>
<stop offset="1" stop-color="#042552"/>
</radialGradient>
<radialGradient id="paint11_radial_218:2401" cx="0" cy="0" r="1" gradientUnits="userSpaceOnUse" gradientTransform="translate(767.021 126.633) scale(27.7947)">
<stop stop-color="#F35114"/>
<stop offset="0.0001" stop-color="#2F80ED"/>
<stop offset="1" stop-color="#0D2749"/>
</radialGradient>
<linearGradient id="paint12_linear_218:2401" x1="768.928" y1="54.8435" x2="768.928" y2="102.24" gradientUnits="userSpaceOnUse">
<stop stop-color="white"/>
<stop offset="1" stop-color="white" stop-opacity="0"/>
</linearGradient>
<linearGradient id="paint13_linear_218:2401" x1="782.911" y1="303.834" x2="742.585" y2="303.834" gradientUnits="userSpaceOnUse">
<stop stop-color="#2F80ED"/>
<stop offset="0.9574" stop-color="#083674"/>
</linearGradient>
<linearGradient id="paint14_linear_218:2401" x1="761.347" y1="303.834" x2="735.811" y2="303.834" gradientUnits="userSpaceOnUse">
<stop stop-color="#2F80ED"/>
<stop offset="1" stop-color="#0B428C"/>
</linearGradient>
<linearGradient id="paint15_linear_218:2401" x1="764.184" y1="303.834" x2="672.816" y2="303.834" gradientUnits="userSpaceOnUse">
<stop stop-color="#2F80ED"/>
<stop offset="1" stop-color="#1E228C"/>
</linearGradient>
<linearGradient id="paint16_linear_218:2401" x1="759.077" y1="206.215" x2="774.401" y2="206.215" gradientUnits="userSpaceOnUse">
<stop stop-color="#D6D1CD"/>
<stop offset="0.00949527" stop-color="#C7C3C0"/>
<stop offset="0.0277199" stop-color="#A0A09E"/>
<stop offset="0.0525809" stop-color="#626768"/>
<stop offset="0.0685999" stop-color="#363F42"/>
<stop offset="0.0847354" stop-color="#454C4F"/>
<stop offset="0.1156" stop-color="#6B6F70"/>
<stop offset="0.1576" stop-color="#A8A7A5"/>
<stop offset="0.1861" stop-color="#D6D1CD"/>
<stop offset="0.2291" stop-color="#B0AEAC"/>
<stop offset="0.309" stop-color="#6F7373"/>
<stop offset="0.3671" stop-color="#464D50"/>
<stop offset="0.397" stop-color="#363F42"/>
<stop offset="0.4401" stop-color="#394245"/>
<stop offset="0.4771" stop-color="#444C4F"/>
<stop offset="0.512" stop-color="#565D60"/>
<stop offset="0.5455" stop-color="#6F7577"/>
<stop offset="0.5781" stop-color="#8F9395"/>
<stop offset="0.6095" stop-color="#B6B8B9"/>
<stop offset="0.6328" stop-color="#D8D8D9"/>
<stop offset="0.655" stop-color="#CECFD1"/>
<stop offset="0.6923" stop-color="#B4B6BA"/>
<stop offset="0.74" stop-color="#8A8F95"/>
<stop offset="0.7568" stop-color="#797F86"/>
<stop offset="0.8724" stop-color="#363F42"/>
<stop offset="0.8889" stop-color="#3F484B"/>
<stop offset="0.9159" stop-color="#585F62"/>
<stop offset="0.9501" stop-color="#808688"/>
<stop offset="0.9898" stop-color="#B8BABC"/>
<stop offset="1" stop-color="#97999C"/>
</linearGradient>
<linearGradient id="paint17_linear_218:2401" x1="316.801" y1="430.739" x2="316.801" y2="156.332" gradientUnits="userSpaceOnUse">
<stop stop-color="#D6D1CD"/>
<stop offset="0.00949527" stop-color="#C7C3C0"/>
<stop offset="0.0277199" stop-color="#A0A09E"/>
<stop offset="0.0525809" stop-color="#626768"/>
<stop offset="0.0685999" stop-color="#363F42"/>
<stop offset="0.0847354" stop-color="#454C4F"/>
<stop offset="0.1156" stop-color="#6B6F70"/>
<stop offset="0.1576" stop-color="#A8A7A5"/>
<stop offset="0.1861" stop-color="#D6D1CD"/>
<stop offset="0.2291" stop-color="#B0AEAC"/>
<stop offset="0.309" stop-color="#6F7373"/>
<stop offset="0.3671" stop-color="#464D50"/>
<stop offset="0.397" stop-color="#363F42"/>
<stop offset="0.4401" stop-color="#394245"/>
<stop offset="0.4771" stop-color="#444C4F"/>
<stop offset="0.512" stop-color="#565D60"/>
<stop offset="0.5455" stop-color="#6F7577"/>
<stop offset="0.5781" stop-color="#8F9395"/>
<stop offset="0.6095" stop-color="#B6B8B9"/>
<stop offset="0.6328" stop-color="#D8D8D9"/>
<stop offset="0.655" stop-color="#CECFD1"/>
<stop offset="0.6923" stop-color="#B4B6BA"/>
<stop offset="0.74" stop-color="#8A8F95"/>
<stop offset="0.7568" stop-color="#797F86"/>
<stop offset="0.8724" stop-color="#363F42"/>
<stop offset="0.8889" stop-color="#3F484B"/>
<stop offset="0.9159" stop-color="#585F62"/>
<stop offset="0.9501" stop-color="#808688"/>
<stop offset="0.9898" stop-color="#B8BABC"/>
<stop offset="1" stop-color="#97999C"/>
</linearGradient>
<linearGradient id="paint18_linear_218:2401" x1="454.694" y1="430.739" x2="454.694" y2="156.332" gradientUnits="userSpaceOnUse">
<stop stop-color="#D6D1CD"/>
<stop offset="0.00949527" stop-color="#C7C3C0"/>
<stop offset="0.0277199" stop-color="#A0A09E"/>
<stop offset="0.0525809" stop-color="#626768"/>
<stop offset="0.0685999" stop-color="#363F42"/>
<stop offset="0.0847354" stop-color="#454C4F"/>
<stop offset="0.1156" stop-color="#6B6F70"/>
<stop offset="0.1576" stop-color="#A8A7A5"/>
<stop offset="0.1861" stop-color="#D6D1CD"/>
<stop offset="0.2291" stop-color="#B0AEAC"/>
<stop offset="0.309" stop-color="#6F7373"/>
<stop offset="0.3671" stop-color="#464D50"/>
<stop offset="0.397" stop-color="#363F42"/>
<stop offset="0.4401" stop-color="#394245"/>
<stop offset="0.4771" stop-color="#444C4F"/>
<stop offset="0.512" stop-color="#565D60"/>
<stop offset="0.5455" stop-color="#6F7577"/>
<stop offset="0.5781" stop-color="#8F9395"/>
<stop offset="0.6095" stop-color="#B6B8B9"/>
<stop offset="0.6328" stop-color="#D8D8D9"/>
<stop offset="0.655" stop-color="#CECFD1"/>
<stop offset="0.6923" stop-color="#B4B6BA"/>
<stop offset="0.74" stop-color="#8A8F95"/>
<stop offset="0.7568" stop-color="#797F86"/>
<stop offset="0.8724" stop-color="#363F42"/>
<stop offset="0.8889" stop-color="#3F484B"/>
<stop offset="0.9159" stop-color="#585F62"/>
<stop offset="0.9501" stop-color="#808688"/>
<stop offset="0.9898" stop-color="#B8BABC"/>
<stop offset="1" stop-color="#97999C"/>
</linearGradient>
<linearGradient id="paint19_linear_218:2401" x1="592.584" y1="430.739" x2="592.584" y2="156.332" gradientUnits="userSpaceOnUse">
<stop stop-color="#D6D1CD"/>
<stop offset="0.00949527" stop-color="#C7C3C0"/>
<stop offset="0.0277199" stop-color="#A0A09E"/>
<stop offset="0.0525809" stop-color="#626768"/>
<stop offset="0.0685999" stop-color="#363F42"/>
<stop offset="0.0847354" stop-color="#454C4F"/>
<stop offset="0.1156" stop-color="#6B6F70"/>
<stop offset="0.1576" stop-color="#A8A7A5"/>
<stop offset="0.1861" stop-color="#D6D1CD"/>
<stop offset="0.2291" stop-color="#B0AEAC"/>
<stop offset="0.309" stop-color="#6F7373"/>
<stop offset="0.3671" stop-color="#464D50"/>
<stop offset="0.397" stop-color="#363F42"/>
<stop offset="0.4401" stop-color="#394245"/>
<stop offset="0.4771" stop-color="#444C4F"/>
<stop offset="0.512" stop-color="#565D60"/>
<stop offset="0.5455" stop-color="#6F7577"/>
<stop offset="0.5781" stop-color="#8F9395"/>
<stop offset="0.6095" stop-color="#B6B8B9"/>
<stop offset="0.6328" stop-color="#D8D8D9"/>
<stop offset="0.655" stop-color="#CECFD1"/>
<stop offset="0.6923" stop-color="#B4B6BA"/>
<stop offset="0.74" stop-color="#8A8F95"/>
<stop offset="0.7568" stop-color="#797F86"/>
<stop offset="0.8724" stop-color="#363F42"/>
<stop offset="0.8889" stop-color="#3F484B"/>
<stop offset="0.9159" stop-color="#585F62"/>
<stop offset="0.9501" stop-color="#808688"/>
<stop offset="0.9898" stop-color="#B8BABC"/>
<stop offset="1" stop-color="#97999C"/>
</linearGradient>
<linearGradient id="paint20_linear_218:2401" x1="319.071" y1="206.887" x2="319.071" y2="346.486" gradientUnits="userSpaceOnUse">
<stop stop-color="#999999"/>
<stop offset="0.0846798" stop-color="#A0A0A0"/>
<stop offset="0.2081" stop-color="#B3B3B3"/>
<stop offset="0.3552" stop-color="#D3D3D3"/>
<stop offset="0.5182" stop-color="white"/>
<stop offset="0.6337" stop-color="#EBEBEB"/>
<stop offset="0.8683" stop-color="#B8B8B8"/>
<stop offset="1" stop-color="#999999"/>
</linearGradient>
<linearGradient id="paint21_linear_218:2401" x1="590.318" y1="202.631" x2="590.318" y2="350.77" gradientUnits="userSpaceOnUse">
<stop stop-color="#999999"/>
<stop offset="0.0846798" stop-color="#A0A0A0"/>
<stop offset="0.2081" stop-color="#B3B3B3"/>
<stop offset="0.3552" stop-color="#D3D3D3"/>
<stop offset="0.5182" stop-color="white"/>
<stop offset="0.6337" stop-color="#EBEBEB"/>
<stop offset="0.8683" stop-color="#B8B8B8"/>
<stop offset="1" stop-color="#999999"/>
</linearGradient>
<linearGradient id="paint22_linear_218:2401" x1="454.695" y1="190.715" x2="454.695" y2="358.411" gradientUnits="userSpaceOnUse">
<stop stop-color="#999999"/>
<stop offset="0.0846798" stop-color="#A0A0A0"/>
<stop offset="0.2081" stop-color="#B3B3B3"/>
<stop offset="0.3552" stop-color="#D3D3D3"/>
<stop offset="0.5182" stop-color="white"/>
<stop offset="0.6337" stop-color="#EBEBEB"/>
<stop offset="0.8683" stop-color="#B8B8B8"/>
<stop offset="1" stop-color="#999999"/>
</linearGradient>
<linearGradient id="paint23_linear_218:2401" x1="319.071" y1="206.887" x2="319.071" y2="346.486" gradientUnits="userSpaceOnUse">
<stop stop-color="white"/>
<stop offset="1" stop-color="white" stop-opacity="0"/>
</linearGradient>
<linearGradient id="paint24_linear_218:2401" x1="590.318" y1="202.631" x2="590.318" y2="350.77" gradientUnits="userSpaceOnUse">
<stop stop-color="white"/>
<stop offset="1" stop-color="white" stop-opacity="0"/>
</linearGradient>
<linearGradient id="paint25_linear_218:2401" x1="454.695" y1="190.715" x2="454.695" y2="358.411" gradientUnits="userSpaceOnUse">
<stop stop-color="white"/>
<stop offset="1" stop-color="white" stop-opacity="0"/>
</linearGradient>
<linearGradient id="paint26_linear_218:2401" x1="178.908" y1="430.739" x2="178.908" y2="156.332" gradientUnits="userSpaceOnUse">
<stop stop-color="#D6D1CD"/>
<stop offset="0.00949527" stop-color="#C7C3C0"/>
<stop offset="0.0277199" stop-color="#A0A09E"/>
<stop offset="0.0525809" stop-color="#626768"/>
<stop offset="0.0685999" stop-color="#363F42"/>
<stop offset="0.0847354" stop-color="#454C4F"/>
<stop offset="0.1156" stop-color="#6B6F70"/>
<stop offset="0.1576" stop-color="#A8A7A5"/>
<stop offset="0.1861" stop-color="#D6D1CD"/>
<stop offset="0.2291" stop-color="#B0AEAC"/>
<stop offset="0.309" stop-color="#6F7373"/>
<stop offset="0.3671" stop-color="#464D50"/>
<stop offset="0.397" stop-color="#363F42"/>
<stop offset="0.4401" stop-color="#394245"/>
<stop offset="0.4771" stop-color="#444C4F"/>
<stop offset="0.512" stop-color="#565D60"/>
<stop offset="0.5455" stop-color="#6F7577"/>
<stop offset="0.5781" stop-color="#8F9395"/>
<stop offset="0.6095" stop-color="#B6B8B9"/>
<stop offset="0.6328" stop-color="#D8D8D9"/>
<stop offset="0.655" stop-color="#CECFD1"/>
<stop offset="0.6923" stop-color="#B4B6BA"/>
<stop offset="0.74" stop-color="#8A8F95"/>
<stop offset="0.7568" stop-color="#797F86"/>
<stop offset="0.8724" stop-color="#363F42"/>
<stop offset="0.8889" stop-color="#3F484B"/>
<stop offset="0.9159" stop-color="#585F62"/>
<stop offset="0.9501" stop-color="#808688"/>
<stop offset="0.9898" stop-color="#B8BABC"/>
<stop offset="1" stop-color="#97999C"/>
</linearGradient>
<linearGradient id="paint27_linear_218:2401" x1="181.178" y1="206.887" x2="181.178" y2="346.486" gradientUnits="userSpaceOnUse">
<stop stop-color="#999999"/>
<stop offset="0.0846798" stop-color="#A0A0A0"/>
<stop offset="0.2081" stop-color="#B3B3B3"/>
<stop offset="0.3552" stop-color="#D3D3D3"/>
<stop offset="0.5182" stop-color="white"/>
<stop offset="0.6337" stop-color="#EBEBEB"/>
<stop offset="0.8683" stop-color="#B8B8B8"/>
<stop offset="1" stop-color="#999999"/>
</linearGradient>
<linearGradient id="paint28_linear_218:2401" x1="181.178" y1="206.887" x2="181.178" y2="346.486" gradientUnits="userSpaceOnUse">
<stop stop-color="white"/>
<stop offset="1" stop-color="white" stop-opacity="0"/>
</linearGradient>
<radialGradient id="paint29_radial_218:2401" cx="0" cy="0" r="1" gradientUnits="userSpaceOnUse" gradientTransform="translate(56.5744 245.261) rotate(50.1105) scale(30.6458)">
<stop offset="0.1873" stop-color="#9E2083"/>
<stop offset="0.8715" stop-color="#612680"/>
</radialGradient>
<linearGradient id="paint30_linear_218:2401" x1="84.2915" y1="294.785" x2="86.7629" y2="297.741" gradientUnits="userSpaceOnUse">
<stop stop-color="#D5D5D5"/>
<stop offset="0.29" stop-color="#A8A8A8"/>
<stop offset="1" stop-color="#919191"/>
</linearGradient>
<linearGradient id="paint31_linear_218:2401" x1="44.8776" y1="272.953" x2="64.5977" y2="296.547" gradientUnits="userSpaceOnUse">
<stop stop-color="#D5D5D5"/>
<stop offset="0.29" stop-color="#A8A8A8"/>
<stop offset="1" stop-color="#919191"/>
</linearGradient>
<linearGradient id="paint32_linear_218:2401" x1="9.909" y1="231.853" x2="26.9843" y2="252.282" gradientUnits="userSpaceOnUse">
<stop stop-color="#D5D5D5"/>
<stop offset="0.29" stop-color="#A8A8A8"/>
<stop offset="1" stop-color="#919191"/>
</linearGradient>
<radialGradient id="paint33_radial_218:2401" cx="0" cy="0" r="1" gradientUnits="userSpaceOnUse" gradientTransform="translate(49.3058 244.886) rotate(50.1105) scale(49.9792)">
<stop offset="0.1873" stop-color="#9E2083"/>
<stop offset="0.8715" stop-color="#662D91"/>
</radialGradient>
<radialGradient id="paint34_radial_218:2401" cx="0" cy="0" r="1" gradientUnits="userSpaceOnUse" gradientTransform="translate(57.1654 250.456) rotate(50.1105) scale(27.7943)">
<stop offset="0.1873" stop-color="#9E2083"/>
<stop offset="0.8715" stop-color="#662D91"/>
</radialGradient>
<radialGradient id="paint35_radial_218:2401" cx="0" cy="0" r="1" gradientUnits="userSpaceOnUse" gradientTransform="translate(62.2786 246.184) rotate(50.1105) scale(26.2763)">
<stop offset="0.1869" stop-color="#852985"/>
<stop offset="0.8715" stop-color="#4B2074"/>
</radialGradient>
<radialGradient id="paint36_radial_218:2401" cx="0" cy="0" r="1" gradientUnits="userSpaceOnUse" gradientTransform="translate(56.5566 251.002) rotate(50.1105) scale(21.0391)">
<stop offset="0.1869" stop-color="#852985"/>
<stop offset="0.8715" stop-color="#4B2074"/>
</radialGradient>
<radialGradient id="paint37_radial_218:2401" cx="0" cy="0" r="1" gradientUnits="userSpaceOnUse" gradientTransform="translate(46.1229 239.278) rotate(50.1105) scale(51.326)">
<stop offset="0.1873" stop-color="#9E2083"/>
<stop offset="0.8715" stop-color="#662D91"/>
</radialGradient>
<linearGradient id="paint38_linear_218:2401" x1="65.246" y1="242.482" x2="76.1917" y2="273.01" gradientUnits="userSpaceOnUse">
<stop stop-color="#3DDEED"/>
<stop offset="1" stop-color="#3DDEED" stop-opacity="0"/>
</linearGradient>
<linearGradient id="paint39_linear_218:2401" x1="66.6355" y1="244.798" x2="77.825" y2="277.463" gradientUnits="userSpaceOnUse">
<stop stop-color="#BA9BC9"/>
<stop offset="1" stop-color="white" stop-opacity="0"/>
</linearGradient>
<radialGradient id="paint40_radial_218:2401" cx="0" cy="0" r="1" gradientUnits="userSpaceOnUse" gradientTransform="translate(693.286 494.35) rotate(42.106) scale(40.4584)">
<stop stop-color="#FFF9BF"/>
<stop offset="0.1054" stop-color="#FAEFAE"/>
<stop offset="0.3139" stop-color="#EBD481"/>
<stop offset="0.3708" stop-color="#E7CC74"/>
<stop offset="0.6854" stop-color="#E3AC11"/>
<stop offset="1" stop-color="#713413"/>
</radialGradient>
<linearGradient id="paint41_linear_218:2401" x1="664.875" y1="456.795" x2="733.516" y2="518.83" gradientUnits="userSpaceOnUse">
<stop offset="0.005618" stop-color="#F6BD1E"/>
<stop offset="0.2528" stop-color="#FFF9BF"/>
<stop offset="0.305" stop-color="#F7ECAE"/>
<stop offset="0.4089" stop-color="#E1C881"/>
<stop offset="0.5532" stop-color="#BE9039"/>
<stop offset="0.5955" stop-color="#B37F23"/>
<stop offset="0.8708" stop-color="#E7CC74"/>
<stop offset="1" stop-color="#FFF9BF"/>
</linearGradient>
<radialGradient id="paint42_radial_218:2401" cx="0" cy="0" r="1" gradientUnits="userSpaceOnUse" gradientTransform="translate(699.196 487.813) rotate(42.106) scale(37.4349)">
<stop stop-color="#FFF9BF"/>
<stop offset="0.1054" stop-color="#FAEFAE"/>
<stop offset="0.3139" stop-color="#EBD481"/>
<stop offset="0.3708" stop-color="#E7CC74"/>
<stop offset="0.6854" stop-color="#BF5718"/>
<stop offset="1" stop-color="#63370F"/>
</radialGradient>
<linearGradient id="paint43_linear_218:2401" x1="753.495" y1="492.653" x2="681.898" y2="486.766" gradientUnits="userSpaceOnUse">
<stop offset="0.005618" stop-color="#F9C726"/>
<stop offset="0.2528" stop-color="#FFF9C9"/>
<stop offset="0.3053" stop-color="#F8EDB8"/>
<stop offset="0.4097" stop-color="#E6CF8B"/>
<stop offset="0.5549" stop-color="#CA9E43"/>
<stop offset="0.5955" stop-color="#C1902E"/>
<stop offset="0.8708" stop-color="#ECD385"/>
<stop offset="1" stop-color="#FFF9C9"/>
</linearGradient>
<radialGradient id="paint44_radial_218:2401" cx="0" cy="0" r="1" gradientUnits="userSpaceOnUse" gradientTransform="translate(700.182 488.084) rotate(30.5963) scale(21.2158)">
<stop stop-color="#FFF9BF"/>
<stop offset="0.1054" stop-color="#FAEFAE"/>
<stop offset="0.3139" stop-color="#EBD481"/>
<stop offset="0.3708" stop-color="#E7CC74"/>
<stop offset="0.6854" stop-color="#BF5718"/>
<stop offset="1" stop-color="#63370F"/>
</radialGradient>
<linearGradient id="paint45_linear_218:2401" x1="689.434" y1="463.21" x2="711.602" y2="512.877" gradientUnits="userSpaceOnUse">
<stop offset="0.005618" stop-color="#F9C726"/>
<stop offset="0.2528" stop-color="#FFF9C9"/>
<stop offset="0.3053" stop-color="#F8EDB8"/>
<stop offset="0.4097" stop-color="#E6CF8B"/>
<stop offset="0.5549" stop-color="#CA9E43"/>
<stop offset="0.5955" stop-color="#C1902E"/>
<stop offset="0.8708" stop-color="#ECD385"/>
<stop offset="1" stop-color="#FFF9C9"/>
</linearGradient>
<radialGradient id="paint46_radial_218:2401" cx="0" cy="0" r="1" gradientUnits="userSpaceOnUse" gradientTransform="translate(404.085 429.025) rotate(25.9629) scale(27.8155)">
<stop offset="0.1873" stop-color="#8CC63F"/>
<stop offset="0.8711" stop-color="#005D32"/>
</radialGradient>
<linearGradient id="paint47_linear_218:2401" x1="445.428" y1="459.751" x2="448.573" y2="461.282" gradientUnits="userSpaceOnUse">
<stop stop-color="#D5D5D5"/>
<stop offset="0.29" stop-color="#A8A8A8"/>
<stop offset="1" stop-color="#919191"/>
</linearGradient>
<linearGradient id="paint48_linear_218:2401" x1="404.68" y1="456.304" x2="429.773" y2="468.522" gradientUnits="userSpaceOnUse">
<stop stop-color="#D5D5D5"/>
<stop offset="0.29" stop-color="#A8A8A8"/>
<stop offset="1" stop-color="#919191"/>
</linearGradient>
<linearGradient id="paint49_linear_218:2401" x1="360.457" y1="435.248" x2="382.184" y2="445.828" gradientUnits="userSpaceOnUse">
<stop stop-color="#D5D5D5"/>
<stop offset="0.29" stop-color="#A8A8A8"/>
<stop offset="1" stop-color="#919191"/>
</linearGradient>
<radialGradient id="paint50_radial_218:2401" cx="0" cy="0" r="1" gradientUnits="userSpaceOnUse" gradientTransform="translate(397.925 431.413) rotate(25.9629) scale(45.3633)">
<stop offset="0.1873" stop-color="#8CC63F"/>
<stop offset="0.8715" stop-color="#006837"/>
</radialGradient>
<radialGradient id="paint51_radial_218:2401" cx="0" cy="0" r="1" gradientUnits="userSpaceOnUse" gradientTransform="translate(406.503 433.109) rotate(25.9629) scale(25.2275)">
<stop offset="0.1873" stop-color="#8CC63F"/>
<stop offset="0.8715" stop-color="#006837"/>
</radialGradient>
<radialGradient id="paint52_radial_218:2401" cx="0" cy="0" r="1" gradientUnits="userSpaceOnUse" gradientTransform="translate(409.152 427.671) rotate(25.9629) scale(23.8495)">
<stop offset="0.1869" stop-color="#478D43"/>
<stop offset="0.8711" stop-color="#134D2D"/>
</radialGradient>
<radialGradient id="paint53_radial_218:2401" cx="0" cy="0" r="1" gradientUnits="userSpaceOnUse" gradientTransform="translate(406.201 433.787) rotate(25.9629) scale(19.096)">
<stop offset="0.1869" stop-color="#478D43"/>
<stop offset="0.8711" stop-color="#134D2D"/>
</radialGradient>
<radialGradient id="paint54_radial_218:2401" cx="0" cy="0" r="1" gradientUnits="userSpaceOnUse" gradientTransform="translate(393.207 427.951) rotate(25.9629) scale(46.5859)">
<stop offset="0.1873" stop-color="#8CC63F"/>
<stop offset="0.8715" stop-color="#006837"/>
</radialGradient>
<linearGradient id="paint55_linear_218:2401" x1="373.345" y1="419.059" x2="400.596" y2="430.186" gradientUnits="userSpaceOnUse">
<stop stop-color="#3DDEED"/>
<stop offset="1" stop-color="#3DDEED" stop-opacity="0"/>
</linearGradient>
<linearGradient id="paint56_linear_218:2401" x1="375.751" y1="419.525" x2="404.593" y2="431.785" gradientUnits="userSpaceOnUse">
<stop stop-color="#D9E021"/>
<stop offset="1" stop-color="white" stop-opacity="0"/>
</linearGradient>
<radialGradient id="paint57_radial_218:2401" cx="0" cy="0" r="1" gradientUnits="userSpaceOnUse" gradientTransform="translate(107.539 453.122) rotate(-4.25502) scale(57.2454)">
<stop stop-color="#FFF9BF"/>
<stop offset="0.1054" stop-color="#FAEFAE"/>
<stop offset="0.3139" stop-color="#EBD481"/>
<stop offset="0.3708" stop-color="#E7CC74"/>
<stop offset="0.6854" stop-color="#E3AC11"/>
<stop offset="1" stop-color="#713413"/>
</radialGradient>
<linearGradient id="paint58_linear_218:2401" x1="41.3414" y1="445.544" x2="171.889" y2="435.831" gradientUnits="userSpaceOnUse">
<stop offset="0.005618" stop-color="#F6BD1E"/>
<stop offset="0.2528" stop-color="#FFF9BF"/>
<stop offset="0.305" stop-color="#F7ECAE"/>
<stop offset="0.4089" stop-color="#E1C881"/>
<stop offset="0.5532" stop-color="#BE9039"/>
<stop offset="0.5955" stop-color="#B37F23"/>
<stop offset="0.8708" stop-color="#E7CC74"/>
<stop offset="1" stop-color="#FFF9BF"/>
</linearGradient>
<radialGradient id="paint59_radial_218:2401" cx="0" cy="0" r="1" gradientUnits="userSpaceOnUse" gradientTransform="translate(106.616 440.688) rotate(-4.25502) scale(52.9673)">
<stop stop-color="#FFF9BF"/>
<stop offset="0.1054" stop-color="#FAEFAE"/>
<stop offset="0.3139" stop-color="#EBD481"/>
<stop offset="0.3708" stop-color="#E7CC74"/>
<stop offset="0.6854" stop-color="#BF5718"/>
<stop offset="1" stop-color="#63370F"/>
</radialGradient>
<linearGradient id="paint60_linear_218:2401" x1="164.593" y1="389.812" x2="88.6541" y2="457.377" gradientUnits="userSpaceOnUse">
<stop offset="0.005618" stop-color="#F9C726"/>
<stop offset="0.2528" stop-color="#FFF9C9"/>
<stop offset="0.3053" stop-color="#F8EDB8"/>
<stop offset="0.4097" stop-color="#E6CF8B"/>
<stop offset="0.5549" stop-color="#CA9E43"/>
<stop offset="0.5955" stop-color="#C1902E"/>
<stop offset="0.8708" stop-color="#ECD385"/>
<stop offset="1" stop-color="#FFF9C9"/>
</linearGradient>
<radialGradient id="paint61_radial_218:2401" cx="0" cy="0" r="1" gradientUnits="userSpaceOnUse" gradientTransform="translate(107.857 439.942) rotate(-15.7652) scale(30.0187)">
<stop stop-color="#FFF9BF"/>
<stop offset="0.1054" stop-color="#FAEFAE"/>
<stop offset="0.3139" stop-color="#EBD481"/>
<stop offset="0.3708" stop-color="#E7CC74"/>
<stop offset="0.6854" stop-color="#BF5718"/>
<stop offset="1" stop-color="#63370F"/>
</radialGradient>
<linearGradient id="paint62_linear_218:2401" x1="71.8914" y1="426.66" x2="144.395" y2="452.457" gradientUnits="userSpaceOnUse">
<stop offset="0.005618" stop-color="#F9C726"/>
<stop offset="0.2528" stop-color="#FFF9C9"/>
<stop offset="0.3053" stop-color="#F8EDB8"/>
<stop offset="0.4097" stop-color="#E6CF8B"/>
<stop offset="0.5549" stop-color="#CA9E43"/>
<stop offset="0.5955" stop-color="#C1902E"/>
<stop offset="0.8708" stop-color="#ECD385"/>
<stop offset="1" stop-color="#FFF9C9"/>
</linearGradient>
<radialGradient id="paint63_radial_218:2401" cx="0" cy="0" r="1" gradientUnits="userSpaceOnUse" gradientTransform="translate(95.3496 31.8332) rotate(-126.763) scale(16.8828)">
<stop offset="0.1748" stop-color="#0085C7"/>
<stop offset="0.7786" stop-color="#205C92"/>
</radialGradient>
<linearGradient id="paint64_linear_218:2401" x1="81.5909" y1="3.75766" x2="80.3204" y2="2.05705" gradientUnits="userSpaceOnUse">
<stop stop-color="#D5D5D5"/>
<stop offset="0.29" stop-color="#A8A8A8"/>
<stop offset="1" stop-color="#919191"/>
</linearGradient>
<linearGradient id="paint65_linear_218:2401" x1="102.615" y1="16.9522" x2="92.4763" y2="3.38093" gradientUnits="userSpaceOnUse">
<stop stop-color="#D5D5D5"/>
<stop offset="0.29" stop-color="#A8A8A8"/>
<stop offset="1" stop-color="#919191"/>
</linearGradient>
<linearGradient id="paint66_linear_218:2401" x1="120.616" y1="40.6125" x2="111.837" y2="28.8615" gradientUnits="userSpaceOnUse">
<stop stop-color="#D5D5D5"/>
<stop offset="0.29" stop-color="#A8A8A8"/>
<stop offset="1" stop-color="#919191"/>
</linearGradient>
<radialGradient id="paint67_radial_218:2401" cx="0" cy="0" r="1" gradientUnits="userSpaceOnUse" gradientTransform="translate(99.3355 32.2589) rotate(-126.763) scale(27.5341)">
<stop offset="0.1748" stop-color="#0085C7"/>
<stop offset="0.7786" stop-color="#205C92"/>
</radialGradient>
<radialGradient id="paint68_radial_218:2401" cx="0" cy="0" r="1" gradientUnits="userSpaceOnUse" gradientTransform="translate(95.18 28.958) rotate(-126.763) scale(15.3124)">
<stop offset="0.1748" stop-color="#0085C7"/>
<stop offset="0.779" stop-color="#1B5184"/>
</radialGradient>
<radialGradient id="paint69_radial_218:2401" cx="0" cy="0" r="1" gradientUnits="userSpaceOnUse" gradientTransform="translate(92.2378 31.1554) rotate(-126.763) scale(14.4759)">
<stop offset="0.1748" stop-color="#0085C7"/>
<stop offset="0.7778" stop-color="#1B3D66"/>
</radialGradient>
<radialGradient id="paint70_radial_218:2401" cx="0" cy="0" r="1" gradientUnits="userSpaceOnUse" gradientTransform="translate(95.5306 28.6767) rotate(-126.763) scale(11.5907)">
<stop offset="0.1748" stop-color="#0085C7"/>
<stop offset="0.7778" stop-color="#1B3D66"/>
</radialGradient>
<radialGradient id="paint71_radial_218:2401" cx="0" cy="0" r="1" gradientUnits="userSpaceOnUse" gradientTransform="translate(100.918 35.4392) rotate(-126.763) scale(28.2762)">
<stop offset="0.1748" stop-color="#0085C7"/>
<stop offset="0.7786" stop-color="#205C92"/>
</radialGradient>
<linearGradient id="paint72_linear_218:2401" x1="109.161" y1="45.7606" x2="97.5538" y2="32.1781" gradientUnits="userSpaceOnUse">
<stop stop-color="#3DDEED"/>
<stop offset="1" stop-color="#3DDEED" stop-opacity="0"/>
</linearGradient>
<linearGradient id="paint73_linear_218:2401" x1="107.992" y1="44.8396" x2="95.842" y2="30.2041" gradientUnits="userSpaceOnUse">
<stop stop-color="#3DDEED"/>
<stop offset="1" stop-color="#3DDEED" stop-opacity="0"/>
</linearGradient>
<radialGradient id="paint74_radial_218:2401" cx="0" cy="0" r="1" gradientUnits="userSpaceOnUse" gradientTransform="translate(305.667 143.791) rotate(-33.9729) scale(20.654)">
<stop offset="0.1873" stop-color="#8CC63F"/>
<stop offset="0.8711" stop-color="#005D32"/>
</radialGradient>
<linearGradient id="paint75_linear_218:2401" x1="340.794" y1="128.651" x2="342.948" y2="127.2" gradientUnits="userSpaceOnUse">
<stop stop-color="#D5D5D5"/>
<stop offset="0.29" stop-color="#A8A8A8"/>
<stop offset="1" stop-color="#919191"/>
</linearGradient>
<linearGradient id="paint76_linear_218:2401" x1="323.419" y1="153.556" x2="340.606" y2="141.975" gradientUnits="userSpaceOnUse">
<stop stop-color="#D5D5D5"/>
<stop offset="0.29" stop-color="#A8A8A8"/>
<stop offset="1" stop-color="#919191"/>
</linearGradient>
<linearGradient id="paint77_linear_218:2401" x1="293.435" y1="174.142" x2="308.317" y2="164.114" gradientUnits="userSpaceOnUse">
<stop stop-color="#D5D5D5"/>
<stop offset="0.29" stop-color="#A8A8A8"/>
<stop offset="1" stop-color="#919191"/>
</linearGradient>
<radialGradient id="paint78_radial_218:2401" cx="0" cy="0" r="1" gradientUnits="userSpaceOnUse" gradientTransform="translate(304.91 148.636) rotate(-33.9729) scale(33.6848)">
<stop offset="0.1873" stop-color="#8CC63F"/>
<stop offset="0.8715" stop-color="#006837"/>
</radialGradient>
<radialGradient id="paint79_radial_218:2401" cx="0" cy="0" r="1" gradientUnits="userSpaceOnUse" gradientTransform="translate(309.192 143.755) rotate(-33.9729) scale(18.7329)">
<stop offset="0.1873" stop-color="#8CC63F"/>
<stop offset="0.8715" stop-color="#006837"/>
</radialGradient>
<radialGradient id="paint80_radial_218:2401" cx="0" cy="0" r="1" gradientUnits="userSpaceOnUse" gradientTransform="translate(306.682 140.029) rotate(-33.9729) scale(17.7096)">
<stop offset="0.1869" stop-color="#478D43"/>
<stop offset="0.8711" stop-color="#134D2D"/>
</radialGradient>
<radialGradient id="paint81_radial_218:2401" cx="0" cy="0" r="1" gradientUnits="userSpaceOnUse" gradientTransform="translate(309.514 144.201) rotate(-33.9729) scale(14.18)">
<stop offset="0.1869" stop-color="#478D43"/>
<stop offset="0.8711" stop-color="#134D2D"/>
</radialGradient>
<radialGradient id="paint82_radial_218:2401" cx="0" cy="0" r="1" gradientUnits="userSpaceOnUse" gradientTransform="translate(300.929 150.381) rotate(-33.973) scale(34.5928)">
<stop offset="0.1873" stop-color="#8CC63F"/>
<stop offset="0.8715" stop-color="#006837"/>
</radialGradient>
<linearGradient id="paint83_linear_218:2401" x1="287.827" y1="159.837" x2="305.115" y2="146.464" gradientUnits="userSpaceOnUse">
<stop stop-color="#3DDEED"/>
<stop offset="1" stop-color="#3DDEED" stop-opacity="0"/>
</linearGradient>
<linearGradient id="paint84_linear_218:2401" x1="289.022" y1="158.465" x2="307.63" y2="144.489" gradientUnits="userSpaceOnUse">
<stop stop-color="#D9E021"/>
<stop offset="1" stop-color="white" stop-opacity="0"/>
</linearGradient>
</defs>
</svg>
