<svg width="60" height="91" viewBox="0 0 60 91" fill="none" xmlns="http://www.w3.org/2000/svg">
<path d="M57.4998 54.5279C55.8998 51.9456 53.7998 49.7431 51.2998 47.9203L46.8998 44.5785C48.7998 43.7431 50.4998 42.6798 52.0998 41.3127C56.1998 37.895 58.2998 33.5659 58.2998 28.3254V23.7684C58.2998 18.376 56.1998 13.819 51.8998 10.2494C51.5998 9.94562 51.1998 9.71777 50.8998 9.48993L46.4998 6.14816V6.22411C41.7998 2.27475 35.5998 0.300049 27.8998 0.300049H26.5998C18.7998 0.300049 12.5998 2.27475 7.8998 6.30007C3.6998 9.86969 1.59981 14.3507 1.59981 19.819V24.376C1.59981 27.5659 2.1998 30.1482 3.4998 32.2747C5.4998 35.5406 8.1998 38.1228 11.4998 39.8697C11.9998 40.4013 12.4998 40.933 13.0998 41.3887C10.8998 42.376 8.89981 43.5912 7.09981 45.1102C2.59981 48.9836 0.299805 53.4646 0.299805 58.5532V66.1482C0.299805 71.3127 2.5998 75.8697 7.1998 79.6671L7.2998 79.7431C7.4998 79.9709 7.7998 80.1228 7.9998 80.3507C8.2998 80.5785 8.6998 80.8823 8.9998 81.1102L12.4998 83.7684C12.6998 83.9963 12.9998 84.1482 13.1998 84.376C18.2998 88.3254 24.4998 90.3 31.8998 90.3H33.1998C40.4998 90.3 46.6998 88.3254 51.8998 84.452C57.0998 80.5785 59.6998 75.8697 59.6998 70.2494V62.5785C59.5998 59.3887 58.8998 56.7304 57.4998 54.5279ZM36.3998 16.4773C37.4998 18.2241 38.0998 20.5026 38.0998 23.2368C38.1998 26.4266 37.3998 29.0089 35.8998 30.9077C34.0998 33.1861 31.1998 34.3254 27.1998 34.3254C25.5998 34.3254 24.1998 34.1735 22.9998 33.7937C22.1998 32.1988 21.6998 29.9963 21.5998 27.1861C21.4998 24.9077 21.6998 22.933 22.2998 21.414C22.8998 19.895 23.9998 18.6039 25.3998 17.6165C27.1998 16.4013 29.5998 15.7937 32.4998 15.7937C33.9998 15.7937 35.1998 15.9456 36.2998 16.3254C36.2998 16.4773 36.3998 16.4773 36.3998 16.4773ZM22.0998 68.1988V64.1735C22.0998 61.2874 22.5998 58.933 23.4998 57.1861C25.0998 54.3001 28.0998 52.933 32.4998 52.933C33.8998 52.933 35.0998 53.0849 36.1998 53.3127C37.1998 55.0596 37.6998 57.338 37.6998 60.1482V64.1735C37.6998 65.6925 37.3998 66.9836 36.6998 68.0469C34.8998 71.2368 31.7998 72.9836 27.2998 73.1355C25.7998 73.0596 24.4998 72.8317 23.2998 72.4519C22.4998 71.3127 22.0998 69.8697 22.0998 68.1988Z" fill="url(#paint0_linear_201:328)"/>
<path d="M34.5996 40.2494L44.5996 43.8191L45.7996 43.2874C47.4996 42.5279 49.0996 41.5406 50.5996 40.3254C52.1996 38.9583 53.4996 37.5153 54.3996 35.8444L45.7996 29.3127L34.5996 40.2494Z" fill="#C66205"/>
<path d="M43.6992 77.2367L27.4992 75.1861V74.7304C27.4992 74.7304 27.4992 74.7304 27.3992 74.7304H27.2992H27.1992C25.4992 74.6544 23.8992 74.4266 22.4992 73.8949L21.7992 73.6671L21.4992 73.1354C20.5992 71.6924 20.1992 70.0215 20.1992 68.1987V64.1734C20.1992 61.6671 20.4992 59.5405 21.1992 57.7937C19.0992 56.1987 16.7992 54.4519 15.0992 53.1607L14.3992 42.9076L24.3992 39.7936V35.6164C23.6992 35.5405 23.0992 35.3886 22.4992 35.2367L21.5992 35.0088L21.2992 34.4013C20.3992 32.6544 19.8992 30.3 19.6992 27.338C19.5992 25.4392 19.7992 23.7683 20.0992 22.3253L13.3992 17.2367L4.09923 28.7051C4.39923 29.8443 4.79922 30.8316 5.29922 31.743C7.09923 34.781 9.59923 37.1354 12.5992 38.7304L12.8992 38.8823L13.0992 39.1101C13.5992 39.6418 14.0992 40.0975 14.4992 40.4772L16.0992 41.8443L13.9992 42.7557C11.8992 43.6671 10.0992 44.8823 8.49922 46.1734C4.29922 49.743 2.19922 53.8443 2.19922 58.6291V66.1481C2.19922 71.0088 4.29922 75.0342 8.49922 78.6038L8.59923 78.6797C8.79923 78.8316 8.99922 79.0595 9.29922 79.2114C9.59923 79.4392 9.89922 79.6671 10.2992 79.9709L13.7992 82.6291C13.9992 82.781 14.1992 83.0088 14.4992 83.1607C19.2992 86.8063 24.8992 88.6291 31.7992 88.6291H33.0992C39.8992 88.6291 45.5992 86.8823 50.3992 83.2367C50.5992 83.0848 50.7992 82.9329 50.9992 82.781L43.6992 77.2367Z" fill="#C66205"/>
<path d="M54.2996 66.1482C54.2996 71.6925 51.6996 76.4773 46.4996 80.3507C41.2996 84.2241 35.0996 86.1988 27.7996 86.1988H26.4996C19.0996 86.1988 12.8996 84.2241 7.79961 80.2747C2.69961 76.3254 0.0996094 71.6165 0.0996094 66.1482V58.5532C0.0996094 53.3887 2.3996 48.9076 6.8996 45.1102C8.7996 43.4393 11.0996 42.0722 13.6996 41.0089C9.1996 39.2621 5.79961 36.376 3.29961 32.2747C2.09961 30.1482 1.3996 27.5659 1.3996 24.376V19.819C1.3996 14.3507 3.4996 9.86969 7.6996 6.30007C12.3996 2.27475 18.5996 0.300049 26.3996 0.300049H27.6996C35.4996 0.300049 41.7996 2.27475 46.4996 6.30007C50.6996 9.94564 52.8996 14.4266 52.8996 19.819V24.376C52.8996 29.6165 50.7996 33.9456 46.6996 37.3634C44.8996 38.8823 42.7996 40.0975 40.5996 41.0089C45.4996 43.1355 49.3996 46.3254 52.0996 50.5785C53.4996 52.7811 54.1996 55.4393 54.1996 58.5532V66.1482H54.2996ZM38.1996 23.3127C38.0996 17.5406 35.6996 13.9709 31.0996 12.5279C29.9996 12.1482 28.7996 11.9963 27.2996 11.9963C24.3996 11.9963 22.0996 12.6039 20.1996 13.8191C18.6996 14.8064 17.6996 16.0216 17.0996 17.6165C16.4996 19.1355 16.1996 21.1102 16.3996 23.3887C16.5996 27.0342 17.2996 29.6925 18.6996 31.2874C20.4996 33.414 23.2996 34.4773 27.2996 34.4773C31.2996 34.4773 34.1996 33.338 35.9996 31.0595C37.4996 29.0089 38.1996 26.5026 38.1996 23.3127ZM37.6996 60.2241C37.6996 55.2115 36.1996 51.8697 33.1996 50.1988C31.7996 49.3633 29.7996 48.9836 27.2996 48.9836C22.8996 48.9836 19.8996 50.4266 18.2996 53.2368C17.3996 54.9836 16.8996 57.338 16.8996 60.2241V64.2494C16.8996 66.9836 17.9996 69.2621 20.2996 70.933C22.1996 72.376 24.4996 73.1355 27.3996 73.2114C31.8996 73.0595 35.0996 71.3127 36.7996 68.1228C37.3996 67.0596 37.7996 65.7684 37.7996 64.2494V60.2241H37.6996Z" fill="white"/>
<path d="M26.4996 83.9204C19.8996 83.9204 14.4996 82.2495 9.8996 78.6799C5.2996 75.1862 3.09961 71.0849 3.09961 66.1482V58.5533C3.09961 53.9204 5.09961 50.0469 9.09961 46.6292C10.7996 45.1862 12.7996 43.971 15.0996 43.0596C16.0996 42.6799 16.6996 41.8444 16.6996 41.009C16.6996 40.1735 16.0996 39.414 15.0996 39.0343C11.1996 37.5153 8.1996 35.009 5.9996 31.3634C4.9996 29.6166 4.3996 27.2621 4.3996 24.452V19.8951C4.3996 14.9583 6.1996 11.0849 9.9996 7.89504C14.1996 4.32542 19.4996 2.65454 26.4996 2.65454H27.7996C34.7996 2.65454 40.1996 4.40137 44.2996 7.89504C48.0996 11.0849 49.8996 15.0343 49.8996 19.8951V24.452C49.8996 29.1609 48.0996 32.8824 44.4996 35.9204C42.8996 37.2115 41.1996 38.2748 39.1996 39.0343C38.1996 39.414 37.5996 40.1735 37.5996 41.009C37.5996 41.8444 38.1996 42.6039 39.0996 43.0596C43.4996 44.9583 46.8996 47.7685 49.2996 51.6419C50.4996 53.5406 51.0996 55.8951 51.0996 58.6292V66.1482C51.0996 71.1609 48.8996 75.2621 44.1996 78.7558C39.5996 82.2495 34.0996 83.9204 27.5996 83.9204H26.4996ZM27.1996 46.7052C21.5996 46.7052 17.4996 48.6799 15.3996 52.4014C14.2996 54.452 13.7996 57.0343 13.7996 60.2242V64.2495C13.7996 67.6672 15.1996 70.4014 17.9996 72.528C20.3996 74.3507 23.4996 75.3381 27.0996 75.49H27.1996C27.2996 75.49 27.2996 75.49 27.3996 75.49C33.0996 75.2621 37.1996 73.0596 39.3996 69.0343C40.1996 67.6672 40.5996 66.0723 40.5996 64.2495V60.2242C40.5996 54.3761 38.6996 50.5027 34.8996 48.3761C32.9996 47.2368 30.3996 46.7052 27.1996 46.7052ZM27.1996 9.64189C23.5996 9.64189 20.5996 10.4014 18.1996 11.9963C16.2996 13.2875 14.8996 14.8824 14.1996 16.8571C13.4996 18.6799 13.1996 20.8065 13.2996 23.3887C13.4996 27.49 14.3996 30.452 16.0996 32.4267C17.6996 34.3254 20.8996 36.6799 27.2996 36.6799C32.2996 36.6799 36.1996 35.1609 38.5996 32.1988C40.3996 29.9204 41.2996 26.9583 41.1996 23.3128C41.0996 16.6292 37.9996 12.3001 32.1996 10.4014C30.7996 9.86974 29.0996 9.64189 27.1996 9.64189Z" fill="url(#paint1_linear_201:328)"/>
<path d="M30.0992 77.7684H30.1992C30.2992 77.7684 30.2992 77.7684 30.3992 77.7684C36.0992 77.5406 40.1992 75.338 42.3992 71.3127C43.1992 69.9456 43.5992 68.3507 43.5992 66.5279V62.5026C43.5992 56.6545 41.6992 52.7811 37.8992 50.6545C37.7992 50.5785 37.6992 50.5026 37.4992 50.4266C39.5992 52.7051 40.5992 55.895 40.5992 60.2241V64.2494C40.5992 66.0722 40.1992 67.6671 39.3992 69.0342C37.1992 73.0595 32.9992 75.2621 27.3992 75.4899C27.2992 75.4899 27.2992 75.4899 27.1992 75.4899H27.0992C24.2992 75.414 21.7992 74.7304 19.6992 73.5912C20.0992 74.0469 20.5992 74.4266 21.0992 74.8064C23.4992 76.6292 26.4992 77.6925 30.0992 77.7684Z" fill="url(#paint2_linear_201:328)"/>
<path d="M30.1988 38.9583C35.1988 38.9583 39.0988 37.4393 41.4988 34.4773C43.2988 32.1988 44.1988 29.2368 44.0988 25.5912C43.9988 19.971 41.7988 16.0216 37.6988 13.8191C39.8988 16.0976 40.9988 19.2874 41.0988 23.3128C41.1988 26.9583 40.2988 29.9203 38.4988 32.1988C36.0988 35.1609 32.1988 36.6799 27.1988 36.6799C23.6988 36.6799 21.1988 35.9963 19.2988 35.009C20.9988 36.8317 24.1988 38.9583 30.1988 38.9583Z" fill="url(#paint3_linear_201:328)"/>
<path d="M40.7988 43.6672C40.9988 44.3507 41.4988 44.8824 42.2988 45.2621C43.4988 45.7938 44.6988 46.4014 45.7988 47.0849C44.2988 45.7938 42.6988 44.6545 40.7988 43.6672Z" fill="url(#paint4_linear_201:328)"/>
<path d="M12.1994 37.5913C10.9994 36.452 9.89942 35.1609 8.99942 33.6419C7.99942 31.8951 7.39941 29.5406 7.39941 26.7305V22.1735C7.39941 17.2368 9.19942 13.3634 12.9994 10.1735C17.1994 6.6039 22.4994 4.93302 29.4994 4.93302H30.7994C36.4994 4.93302 41.0994 6.07227 44.8994 8.4267C44.6994 8.2748 44.4994 8.04694 44.2994 7.89504C40.1994 4.32542 34.6994 2.65454 27.7994 2.65454H26.4994C19.5994 2.65454 14.1994 4.40137 9.99942 7.89504C6.19942 11.0849 4.39941 14.9583 4.39941 19.8951V24.452C4.39941 27.2621 4.89942 29.6166 5.99942 31.3634C7.69942 34.0216 9.69942 36.0723 12.1994 37.5913Z" fill="url(#paint5_linear_201:328)"/>
<path d="M6.19922 68.4267V60.8317C6.19922 56.1988 8.19922 52.3254 12.1992 48.9077C13.8992 47.4646 15.8992 46.2494 18.1992 45.3381C19.1992 44.9583 19.7992 44.1229 19.7992 43.2874C19.7992 42.452 19.1992 41.6925 18.1992 41.3127C17.6992 41.1608 17.1992 40.933 16.7992 40.7051C16.7992 40.7811 16.7992 40.933 16.7992 41.0089C16.7992 41.8444 16.1992 42.6039 15.1992 43.0596C12.8992 43.971 10.8992 45.1861 9.19922 46.6292C5.09922 50.0469 3.19922 53.9963 3.19922 58.5532V66.1482C3.19922 71.0849 5.39922 75.1861 9.99922 78.6798C10.5992 79.1355 11.0992 79.5153 11.6992 79.895C7.99922 76.6292 6.19922 72.9077 6.19922 68.4267Z" fill="url(#paint6_linear_201:328)"/>
<defs>
<linearGradient id="paint0_linear_201:328" x1="29.9998" y1="0.300049" x2="29.9998" y2="90.3" gradientUnits="userSpaceOnUse">
<stop stop-color="#F4C43A"/>
<stop offset="1" stop-color="#D65412"/>
</linearGradient>
<linearGradient id="paint1_linear_201:328" x1="27.0996" y1="2.65454" x2="27.0996" y2="83.9204" gradientUnits="userSpaceOnUse">
<stop stop-color="#F9C134"/>
<stop offset="1" stop-color="#F47935"/>
</linearGradient>
<linearGradient id="paint2_linear_201:328" x1="31.6492" y1="50.4266" x2="31.6492" y2="77.7684" gradientUnits="userSpaceOnUse">
<stop stop-color="#F4C43A"/>
<stop offset="1" stop-color="#D65412"/>
</linearGradient>
<linearGradient id="paint3_linear_201:328" x1="31.7026" y1="13.8191" x2="31.7026" y2="38.9583" gradientUnits="userSpaceOnUse">
<stop stop-color="#F4C43A"/>
<stop offset="1" stop-color="#D65412"/>
</linearGradient>
<linearGradient id="paint4_linear_201:328" x1="43.2988" y1="43.6672" x2="43.2988" y2="47.0849" gradientUnits="userSpaceOnUse">
<stop stop-color="#F4C43A"/>
<stop offset="1" stop-color="#D65412"/>
</linearGradient>
<linearGradient id="paint5_linear_201:328" x1="24.6494" y1="2.65454" x2="24.6494" y2="37.5913" gradientUnits="userSpaceOnUse">
<stop stop-color="#F4C43A"/>
<stop offset="1" stop-color="#D65412"/>
</linearGradient>
<linearGradient id="paint6_linear_201:328" x1="11.4992" y1="40.7051" x2="11.4992" y2="79.895" gradientUnits="userSpaceOnUse">
<stop stop-color="#F4C43A"/>
<stop offset="1" stop-color="#D65412"/>
</linearGradient>
</defs>
</svg>
