<svg width="56" height="90" viewBox="0 0 56 90" fill="none" xmlns="http://www.w3.org/2000/svg">
<path d="M48.5 10.0508C48 9.59391 47.4 9.2132 46.9 8.83249L43.1 5.93909C38.3 1.9797 32.3 0 25.1 0C21.5 0 18.1 0.532995 15.1 1.59898C10.3 3.19797 6.6 5.63452 4 8.98477C1.3 12.2589 0 15.9898 0 20.1015V65.9391C0 71.4975 2.3 76.1421 7 80.0254C7.3 80.2538 7.6 80.5584 8 80.7868L12.3 84.0609C17.1 88.0203 23.1 90 30.4 90C37.3 90 43.1 88.1726 47.8 84.5939C52.5 80.9391 55.1 76.4467 55.4 71.1168L55.5 57.2589V25.8883V24.0609C55.4 18.5787 53.1 13.8579 48.5 10.0508ZM32.8 50.1777V52.0051V65.7107C32.8 67.7665 32.1 69.4416 30.7 70.8122C29.2 72.2589 27.2 73.0203 24.5 73.0203C23.7 73.0203 22.9 72.9442 22.2 72.7919C21.8 71.8782 21.6 70.8883 21.6 69.7462V59.3147V54.3655V33.9594V30.3807V23.9086C21.6 21.8528 22.3 20.1015 23.8 18.731C25.2 17.3604 27.3 16.599 29.9 16.599C30.8 16.599 31.5 16.6751 32.3 16.8274C32.7 17.7411 33 18.8071 33 19.8731V21.9289V32.8934V35.9391V50.1777H32.8Z" fill="url(#paint0_linear_204:11)"/>
<path d="M44.1 75.3046L5.5 75.9898C6.3 77.0558 7.3 78.0457 8.4 78.9594C8.7 79.1878 9 79.4162 9.3 79.6447L12.2 81.8528L12.3 81.7766L13.7 82.9188C18.1 86.5736 23.5 88.401 30.3 88.401C36.7 88.401 41.9 86.802 46.3 83.4518C47.8 82.3096 49 81.0914 50 79.797L44.1 75.3046Z" fill="#C66205"/>
<path d="M19.6002 53.2234C19.6002 56.1929 19.5002 57.4874 19.5002 57.4874V69.8224C19.5002 71.1168 19.7002 72.3351 20.2002 73.4011L20.5002 74.1625L21.5002 74.3909C22.2002 74.5432 22.9002 74.6193 23.6002 74.6193L23.7002 75.9137H16.2002V49.4163V36.5483V19.3401L19.6002 21.929C19.5002 22.5381 19.4002 23.2234 19.4002 23.8325V36.3198C19.5002 43.4011 19.5002 48.5026 19.5002 51.929L19.6002 53.2234Z" fill="#C66205"/>
<path d="M43.2 6.01523C38.4 1.9797 32.4 0 25.1 0C21.5 0 18.1 0.532995 15.1 1.59898C10.3 3.19797 6.6 5.63452 4 8.98477C1.3 12.2589 0 15.9898 0 20.1015V65.9391C0 71.4975 2.3 76.1421 7 80.0254C11.8 83.9848 17.8 85.9645 25.1 85.9645C32 85.9645 37.8 84.1371 42.5 80.5584C47.2 76.9036 49.8 72.4112 50.1 67.0812V64.264H50.2V21.9289V20.1015C50.2 14.5431 47.8 9.89848 43.2 6.01523ZM32.8 21.9289V28.2487V32.8934V50.1777V58.0203V65.7107C32.8 67.7665 32.1 69.4416 30.7 70.8122C29.2 72.2589 27.2 73.0203 24.5 73.0203C21.8 73.0203 19.8 72.2589 18.3 70.8122C16.9 69.4416 16.3 67.7665 16.3 65.7107V58.0203V50.4061V36.5482V28.2487V19.797C16.3 17.7411 17 15.9898 18.5 14.6193C19.9 13.2487 22 12.4873 24.6 12.4873C27.2 12.4873 29.3 13.1726 30.7 14.6193C32.1 15.9898 32.9 17.7411 32.9 19.797V21.9289H32.8Z" fill="url(#paint1_linear_204:11)"/>
<path d="M25.1 2.28426C31.6 2.28426 36.8 4.03553 41 7.61421C45.1 11.0406 47.2 15.1523 47.2 20.1777V22.0051V61.5228H47.1V64.3401V67.1574C46.8 71.9543 44.6 75.8376 40.4 79.1117C36.2 82.3096 31.2 83.8325 25.1 83.8325C18.6 83.8325 13.4 82.1574 9.2 78.5787C5 75 3 70.9645 3 65.9391V20.1015C3 16.4467 4.2 13.0964 6.5 10.1269C8.8 7.2335 12 5.10152 16.3 3.65482C18.9 2.74112 21.9 2.28426 25.1 2.28426ZM24.5 75.3046C28.1 75.3046 31 74.2386 33.1 72.1827C34.9 70.4315 35.9 68.2234 35.9 65.7107V58.0203V50.1777V32.8934V28.2487V21.9289V19.797C35.9 17.2081 35 15 33.1 13.1726C31.1 11.1929 28.2 10.203 24.6 10.203C21 10.203 18.1 11.269 16.1 13.1726C14.2 15 13.3 17.2081 13.3 19.797V28.2487V36.5482V50.3299V57.9442V65.6345C13.3 68.2234 14.2 70.3553 15.9 72.1066C18 74.2386 20.9 75.3046 24.5 75.3046ZM25.1 0C21.5 0 18.1 0.532995 15.1 1.59898C10.3 3.19797 6.6 5.63452 4 8.98477C1.3 12.2589 0 15.9898 0 20.1015V65.9391C0 71.4975 2.3 76.1421 7 80.0254C11.8 83.9848 17.8 85.9645 25.1 85.9645C32 85.9645 37.8 84.1371 42.5 80.5584C47.2 76.9036 49.8 72.4112 50.1 67.0812V64.264H50.2V21.9289V20.1015C50.2 14.5431 47.9 9.89848 43.2 6.01523C38.4 1.9797 32.4 0 25.1 0ZM24.5 73.0203C21.8 73.0203 19.8 72.2589 18.3 70.8122C16.9 69.4416 16.3 67.7665 16.3 65.7107V58.0203V50.4061V36.5482V28.2487V19.797C16.3 17.7411 17 15.9898 18.5 14.6193C19.9 13.2487 22 12.4873 24.6 12.4873C27.2 12.4873 29.3 13.1726 30.7 14.6193C32.1 15.9898 32.9 17.7411 32.9 19.797V21.8528V28.1726V32.8173V50.1015V57.9442V65.6345C32.9 67.6904 32.2 69.3655 30.8 70.736C29.2 72.335 27.2 73.0203 24.5 73.0203Z" fill="white"/>
<path d="M6 68.2233V22.3858C6 18.7309 7.2 15.3807 9.5 12.4111C11.8 9.51774 15 7.38576 19.3 5.93906C22 5.02536 24.9 4.5685 28.1 4.5685C33.4 4.5685 37.9 5.78678 41.7 8.14718C41.5 7.91876 41.3 7.76647 41 7.53805C36.7 4.03551 31.5 2.28424 25.1 2.28424C21.9 2.28424 19 2.74109 16.3 3.73094C12 5.1015 8.8 7.23348 6.5 10.1269C4.2 13.0964 3 16.4467 3 20.1015V65.9391C3 70.9644 5 75 9.2 78.5025C9.9 79.1116 10.7 79.6446 11.5 80.1776C7.8 76.8274 6 72.9441 6 68.2233Z" fill="url(#paint2_linear_204:11)"/>
<defs>
<linearGradient id="paint0_linear_204:11" x1="27.75" y1="0" x2="27.75" y2="90" gradientUnits="userSpaceOnUse">
<stop stop-color="#FDC431"/>
<stop offset="1" stop-color="#F47B35"/>
</linearGradient>
<linearGradient id="paint1_linear_204:11" x1="25.1" y1="0" x2="25.1" y2="85.9645" gradientUnits="userSpaceOnUse">
<stop stop-color="#FDC731"/>
<stop offset="1" stop-color="#F47735"/>
</linearGradient>
<linearGradient id="paint2_linear_204:11" x1="22.35" y1="2.28424" x2="22.35" y2="80.1776" gradientUnits="userSpaceOnUse">
<stop stop-color="#FDC431"/>
<stop offset="1" stop-color="#F47B35"/>
</linearGradient>
</defs>
</svg>
