<svg class="number1"  width="37" height="90" viewBox="0 0 37 90" fill="none" xmlns="http://www.w3.org/2000/svg">
<path d="M31.7998 0H19.9998C18.3998 2.81726 15.6998 5.25381 11.9998 7.2335C8.2998 9.2132 4.3998 10.4315 0.299805 10.736V19.797L5.4998 23.8325H14.6998V85.9645L19.9998 90H36.9998V4.03553L31.7998 0Z" fill="url(#paint0_linear_201:362)"/>
<path d="M31.7998 0H19.9998C18.3998 2.81726 15.6998 5.25381 11.9998 7.2335C8.2998 9.2132 4.3998 10.4315 0.299805 10.736V19.797L5.4998 23.8325H14.6998V85.9645L19.9998 90H36.9998V4.03553L31.7998 0Z" fill="url(#paint0_linear_201:362)"/>
<path d="M35.0998 88.4771L31.7998 85.9644L16.7998 27.5634V85.3552L20.8998 88.4771H35.0998Z" fill="#C66205"/>
<path d="M15.4998 22.3096L14.7998 19.7969L4.19981 11.7258C3.59981 11.8781 2.8998 11.9543 2.2998 12.0304V19.1116L6.3998 22.2334H15.4998V22.3096Z" fill="#C66205"/>
<path d="M14.7998 85.9645V19.797H0.299805V10.8122C4.3998 10.4315 8.2998 9.28937 11.9998 7.30967C15.6998 5.32998 18.2998 2.89343 19.9998 0.0761719H31.8998V86.0406H14.7998V85.9645Z" fill="white"/>
<path d="M17.7998 83.6802V19.797C17.7998 18.5026 16.4998 17.5127 14.7998 17.5127H3.2998V12.6396C6.8998 12.0305 10.3998 10.8122 13.6998 9.06095C17.2998 7.23354 19.9998 4.94928 21.7998 2.2843H28.7998V83.6802H17.7998Z" fill="url(#paint1_linear_201:362)"/>
<path d="M6.2998 15C9.8998 14.3909 13.3998 13.1726 16.6998 11.4214C20.1998 9.51781 22.8998 7.23354 24.7998 4.64471H28.7998V2.2843H21.7998C19.9998 4.94928 17.2998 7.23354 13.6998 9.13709C10.3998 10.8884 6.8998 12.1066 3.2998 12.7158V17.5127H6.2998V15Z" fill="url(#paint2_linear_201:362)"/>
<path d="M20.7998 83.6802V22.0813C20.7998 20.863 19.4998 19.797 17.7998 19.797V83.6802H20.7998Z" fill="url(#paint3_linear_201:362)"/>
<defs>
<linearGradient id="paint0_linear_201:362" x1="18.6498" y1="0" x2="18.6498" y2="90" gradientUnits="userSpaceOnUse">
<stop stop-color="#F4C43A"/>
<stop offset="1" stop-color="#D65412"/>
</linearGradient>
<linearGradient id="paint1_linear_201:362" x1="16.0498" y1="2.2843" x2="16.0498" y2="83.6802" gradientUnits="userSpaceOnUse">
<stop stop-color="#F9C134"/>
<stop offset="1" stop-color="#F47935"/>
</linearGradient>
<linearGradient id="paint2_linear_201:362" x1="16.0498" y1="2.2843" x2="16.0498" y2="17.5127" gradientUnits="userSpaceOnUse">
<stop stop-color="#F4C43A"/>
<stop offset="1" stop-color="#D65412"/>
</linearGradient>
<linearGradient id="paint3_linear_201:362" x1="19.2998" y1="19.797" x2="19.2998" y2="83.6802" gradientUnits="userSpaceOnUse">
<stop stop-color="#F4C43A"/>
<stop offset="1" stop-color="#D65412"/>
</linearGradient>
</defs>
</svg>
