<svg width="56" height="91" viewBox="0 0 56 91" fill="none" xmlns="http://www.w3.org/2000/svg">
<path d="M38.3998 26.0644H55.6998V24.237C55.6998 18.6787 53.3998 14.034 48.6998 10.1507C48.1998 9.69388 47.5998 9.31317 47.0998 8.93246L43.2998 6.03905C38.4998 2.07966 32.4998 0.0999756 25.2998 0.0999756C21.6998 0.0999756 18.2998 0.632964 15.2998 1.69895C10.4998 3.29794 6.79983 5.73448 4.19983 9.08474C1.59983 12.3589 0.299805 16.0898 0.299805 20.2015V66.0391C0.299805 71.5974 2.5998 76.2421 7.2998 80.1254C7.5998 80.3538 7.8998 80.6584 8.2998 80.8868L12.5998 84.1609C17.3998 88.1203 23.3998 90.1 30.6998 90.1C37.5998 90.1 43.3998 88.2726 48.0998 84.6939C52.7998 81.0391 55.3998 76.5467 55.6998 71.2167L55.7998 56.8259C55.7998 50.8106 54.1998 46.0898 50.9998 42.6634C50.0998 41.6736 49.0998 40.836 47.8998 40.1507L44.6998 37.7142C44.0998 37.1812 43.3998 36.6482 42.6998 36.1913C39.2998 33.9832 34.7998 32.9172 29.2998 32.9172C26.6998 32.9172 24.2998 33.3741 21.9998 34.1355V24.0086C21.9998 21.9528 22.6998 20.2015 24.1998 18.8309C25.5998 17.4604 27.6998 16.699 30.2998 16.699C31.1998 16.699 31.8998 16.7751 32.6998 16.9274C33.0998 17.8411 33.3998 18.9071 33.3998 19.9731V22.0289L38.3998 26.0644ZM33.0998 50.3538V65.8868C33.0998 67.9426 32.3998 69.6177 30.9998 70.9883C29.4998 72.435 27.4998 73.1964 24.7998 73.1964C23.9998 73.1964 23.1998 73.1203 22.4998 72.968C22.0998 72.0543 21.8998 71.0645 21.8998 69.9223V54.5416C21.8998 52.7903 22.4998 51.1913 23.6998 49.8208C25.1998 48.0695 27.3998 47.232 30.1998 47.232C30.9998 47.232 31.7998 47.3081 32.4998 47.4604C32.8998 48.298 33.0998 49.2878 33.0998 50.3538Z" fill="url(#paint0_linear_201:397)"/>
<path d="M44.3998 75.4807L5.7998 76.166C6.5998 77.232 7.59983 78.2218 8.69983 79.1355C8.99983 79.364 9.29982 79.5924 9.59982 79.8208L12.4998 82.0289L12.5998 81.9528L13.9998 83.0949C18.3998 86.7498 23.7998 88.5771 30.5998 88.5771C36.9998 88.5771 42.1998 86.9782 46.5998 83.6279C48.0998 82.4858 49.2998 81.2675 50.2998 79.9731L44.3998 75.4807Z" fill="#C66205"/>
<path d="M21.8006 35.7345L19.8006 36.4198V23.9324C19.8006 23.2472 19.9006 22.638 20.0006 22.0289L16.6006 19.4401V36.7243H21.8006V35.7345Z" fill="#C66205"/>
<path d="M24.0002 74.6431C23.3002 74.567 22.6002 74.567 21.9002 74.4147L20.9002 74.1863L20.6002 73.4249C20.1002 72.3589 19.9002 71.1406 19.9002 69.8462V54.4655C19.9002 53.7041 20.0002 52.8665 20.2002 52.1812L16.7002 49.5162V75.9376H24.2002L24.0002 74.6431Z" fill="#C66205"/>
<path d="M33.1002 22.0289V19.9731C33.1002 17.9173 32.4002 16.166 30.9002 14.7954C29.5002 13.4249 27.4002 12.6635 24.8002 12.6635C22.2002 12.6635 20.1002 13.3487 18.7002 14.7954C17.3002 16.166 16.5002 17.9173 16.5002 19.9731V36.7244C20.3002 34.1355 24.5002 32.8411 29.1002 32.8411C36.4002 32.8411 41.9002 34.8208 45.6002 38.7041C48.8002 42.1305 50.4002 46.7751 50.4002 52.8665L50.3002 67.2574C49.9002 72.5873 47.4002 77.0797 42.7002 80.7345C38.0002 84.3894 32.2002 86.1406 25.3002 86.1406C18.0002 86.1406 11.9002 84.1609 7.2002 80.2015C2.6002 76.3944 0.200195 71.6736 0.200195 66.1152V20.2777C0.200195 16.166 1.50019 12.435 4.10019 9.16092C6.70019 5.88681 10.4002 3.37412 15.2002 1.77514C18.2002 0.709147 21.6002 0.176147 25.2002 0.176147C32.5002 0.176147 38.5002 2.15585 43.3002 6.19138C47.9002 9.99849 50.3002 14.7193 50.3002 20.2777V22.1051H33.1002V22.0289ZM16.6002 65.8868C16.6002 67.9427 17.3002 69.6178 18.6002 70.9883C20.1002 72.435 22.1002 73.1965 24.8002 73.1965C27.5002 73.1965 29.5002 72.435 31.0002 70.9883C32.4002 69.6178 33.1002 67.9427 33.1002 65.8868V50.3538C33.1002 47.9173 31.9002 45.9376 29.6002 44.3386C28.5002 43.5772 26.9002 43.1965 24.9002 43.1965C22.0002 43.1965 19.8002 44.034 18.4002 45.7853C17.2002 47.232 16.6002 48.831 16.6002 50.5061V65.8868Z" fill="white"/>
<path d="M25.3998 83.8563C18.8998 83.8563 13.6998 82.1812 9.49982 78.6025C5.29982 75.1761 3.2998 71.0645 3.2998 66.0391V20.2015C3.2998 16.5467 4.4998 13.1964 6.7998 10.2269C9.0998 7.33348 12.2998 5.2015 16.5998 3.7548C19.2998 2.8411 22.1998 2.30811 25.3998 2.30811C31.8998 2.30811 37.0998 4.05937 41.2998 7.56191C45.2998 10.9122 47.2998 14.8716 47.4998 19.5924H36.1998C36.1998 17.0797 35.1998 14.9477 33.3998 13.1964C31.3998 11.2167 28.4998 10.2269 24.8998 10.2269C21.2998 10.2269 18.3998 11.2929 16.3998 13.1964C14.5998 15.0238 13.5998 17.232 13.5998 19.8208V36.5721C13.5998 37.4858 14.2998 38.3233 15.3998 38.6279C15.7998 38.7802 16.1998 38.8563 16.5998 38.8563C17.2998 38.8563 17.9998 38.6279 18.5998 38.2472C21.8998 36.0391 25.2998 34.9731 29.1998 34.9731C35.5998 34.9731 40.0998 36.5721 43.1998 39.8462C45.9998 42.8157 47.4998 47.1558 47.4998 52.6381V66.4959C47.4998 66.6482 47.3998 66.8005 47.3998 66.9528C47.0998 71.7497 44.8998 75.7091 40.6998 78.9071C36.3998 82.2574 31.4998 83.8563 25.3998 83.8563ZM24.8998 40.9122C20.9998 40.9122 17.8998 42.2066 15.7998 44.567C14.2998 46.3944 13.5998 48.3741 13.5998 50.5822V65.9629C13.5998 68.5518 14.4998 70.6838 16.2998 72.435C18.2998 74.4909 21.2998 75.5568 24.8998 75.5568C28.4998 75.5568 31.3998 74.4909 33.4998 72.435C35.2998 70.7599 36.1998 68.5518 36.1998 65.9629V50.4299C36.1998 47.3843 34.6998 44.7193 31.6998 42.6634C29.8998 41.4452 27.5998 40.9122 24.8998 40.9122Z" fill="url(#paint1_linear_201:397)"/>
<path d="M6.2998 68.3995V22.5619C6.2998 18.9071 7.4998 15.5569 9.7998 12.5873C12.0998 9.69392 15.2998 7.56194 19.5998 6.11524C22.2998 5.20153 25.1998 4.66854 28.3998 4.66854C33.6998 4.66854 38.1998 5.88681 41.9998 8.24722C41.7998 8.01879 41.5998 7.86651 41.2998 7.63808C36.9998 4.0594 31.7998 2.38428 25.3998 2.38428C22.1998 2.38428 19.2998 2.84113 16.5998 3.83097C12.2998 5.27767 9.0998 7.33351 6.7998 10.3031C4.4998 13.1965 3.2998 16.5467 3.2998 20.2777V66.1152C3.2998 71.1406 5.29982 75.1762 9.49982 78.6787C10.1998 79.2878 10.9998 79.8208 11.7998 80.3538C8.0998 76.9274 6.2998 73.0442 6.2998 68.3995Z" fill="url(#paint2_linear_201:397)"/>
<path d="M27.7994 77.765C31.3994 77.765 34.2994 76.699 36.3994 74.6432C38.1994 72.9681 39.0994 70.7599 39.0994 68.1711V52.6381C39.0994 49.5924 37.5994 46.9275 34.5994 44.8716C34.2994 44.6432 33.9994 44.4909 33.6994 44.3386C35.2994 46.0899 36.1994 48.0696 36.1994 50.2777V65.8107C36.1994 68.3995 35.2994 70.6077 33.4994 72.2828C31.4994 74.3386 28.4994 75.4046 24.8994 75.4046C22.5994 75.4046 20.5994 74.9478 18.8994 74.1102C18.9994 74.2625 19.1994 74.4148 19.2994 74.567C21.2994 76.699 24.1994 77.765 27.7994 77.765Z" fill="url(#paint3_linear_201:397)"/>
<path d="M29.1996 35.1254C25.3996 35.1254 21.8996 36.1913 18.5996 38.3995C17.9996 38.7802 17.2996 39.0086 16.5996 39.0086C16.5996 39.9223 17.2996 40.7599 18.3996 41.0644C18.7996 41.2167 19.1996 41.2929 19.5996 41.2929C20.2996 41.2929 20.9996 41.0644 21.5996 40.6837C24.8996 38.4756 28.2996 37.4096 32.1996 37.4096C36.5996 37.4096 40.1996 38.171 42.9996 39.77C39.8996 36.6482 35.3996 35.1254 29.1996 35.1254Z" fill="url(#paint4_linear_201:397)"/>
<path d="M33.8994 13.9579C35.3994 15.633 36.0994 17.5366 36.1994 19.8208H38.8994C38.4994 18.298 37.6994 16.9274 36.3994 15.7092C35.5994 14.9477 34.7994 14.4147 33.8994 13.9579Z" fill="url(#paint5_linear_201:397)"/>
<path d="M39.2004 24.5416H53.7004L50.4004 22.0289H35.9004L39.2004 24.5416Z" fill="#C66205"/>
<defs>
<linearGradient id="paint0_linear_201:397" x1="28.0498" y1="0.0999756" x2="28.0498" y2="90.1" gradientUnits="userSpaceOnUse">
<stop stop-color="#F4C43A"/>
<stop offset="1" stop-color="#D65412"/>
</linearGradient>
<linearGradient id="paint1_linear_201:397" x1="25.3998" y1="2.30811" x2="25.3998" y2="83.8563" gradientUnits="userSpaceOnUse">
<stop stop-color="#F9C134"/>
<stop offset="1" stop-color="#F47935"/>
</linearGradient>
<linearGradient id="paint2_linear_201:397" x1="22.6498" y1="2.38428" x2="22.6498" y2="80.3538" gradientUnits="userSpaceOnUse">
<stop stop-color="#F4C43A"/>
<stop offset="1" stop-color="#D65412"/>
</linearGradient>
<linearGradient id="paint3_linear_201:397" x1="28.9994" y1="44.3386" x2="28.9994" y2="77.765" gradientUnits="userSpaceOnUse">
<stop stop-color="#F4C43A"/>
<stop offset="1" stop-color="#D65412"/>
</linearGradient>
<linearGradient id="paint4_linear_201:397" x1="29.7996" y1="35.1254" x2="29.7996" y2="41.2929" gradientUnits="userSpaceOnUse">
<stop stop-color="#F4C43A"/>
<stop offset="1" stop-color="#D65412"/>
</linearGradient>
<linearGradient id="paint5_linear_201:397" x1="36.3994" y1="13.9579" x2="36.3994" y2="19.8208" gradientUnits="userSpaceOnUse">
<stop stop-color="#F4C43A"/>
<stop offset="1" stop-color="#D65412"/>
</linearGradient>
</defs>
</svg>
