<svg width="57" height="91" viewBox="0 0 57 91" fill="none" xmlns="http://www.w3.org/2000/svg">
<path d="M51.2 0.300049H0V13.3204L5.3 17.2798H33.2L10.6 86.2645L15.8 90.3H32.6L56.4 17.2798V4.25945L51.2 0.300049Z" fill="url(#paint0_linear_201:410)"/>
<path d="M51.2 0.300049V13.3204L27.3 86.2645H10.6L34.5 13.3204H0V0.300049H51.2Z" fill="white"/>
<path d="M14.4 83.9803L37.3 13.8534C37.5 13.1681 37.3 12.4828 36.8 11.8737C36.2 11.3407 35.4 10.9599 34.4 10.9599H3V2.50818H48.2V13.0158L25 83.9803H14.4Z" fill="url(#paint1_linear_201:410)"/>
<path d="M40.4 16.1376C40.6 15.4523 40.4 14.767 39.9 14.1579C39.3 13.6249 38.5 13.2441 37.5 13.2441C37.5 13.3964 37.5 13.6249 37.4 13.7771L14.5 83.9041H18.2L40.4 16.1376Z" fill="url(#paint2_linear_201:410)"/>
<path d="M6 4.86861H48.2V2.58435H3V11.0361H6V4.86861Z" fill="url(#paint3_linear_201:410)"/>
<path d="M6.0998 15.757H33.6998L34.4998 13.3204H2.7998L6.0998 15.757Z" fill="#C66205"/>
<path d="M30.6004 88.7772L27.3004 86.2645H13.4004L16.7004 88.7772H30.6004Z" fill="#C66205"/>
<defs>
<linearGradient id="paint0_linear_201:410" x1="28.2" y1="0.300049" x2="28.2" y2="90.3" gradientUnits="userSpaceOnUse">
<stop stop-color="#F6C337"/>
<stop offset="1" stop-color="#F37535"/>
</linearGradient>
<linearGradient id="paint1_linear_201:410" x1="25.6" y1="2.50818" x2="25.6" y2="83.9803" gradientUnits="userSpaceOnUse">
<stop stop-color="#F9C134"/>
<stop offset="1" stop-color="#F47935"/>
</linearGradient>
<linearGradient id="paint2_linear_201:410" x1="27.4883" y1="13.2441" x2="27.4883" y2="83.9041" gradientUnits="userSpaceOnUse">
<stop stop-color="#F4C43A"/>
<stop offset="1" stop-color="#D65412"/>
</linearGradient>
<linearGradient id="paint3_linear_201:410" x1="25.6" y1="2.58435" x2="25.6" y2="11.0361" gradientUnits="userSpaceOnUse">
<stop stop-color="#F4C43A"/>
<stop offset="1" stop-color="#D65412"/>
</linearGradient>
</defs>
</svg>
