<svg width="56" height="90" viewBox="0 0 56 90" fill="none" xmlns="http://www.w3.org/2000/svg">
<path d="M48.7996 10.0593C48.1996 9.60204 47.5996 9.14481 46.9996 8.68757L43.4996 6.02034C38.6996 1.98139 32.5996 0 25.3996 0C21.8996 0 18.5996 0.457258 15.5996 1.44794C10.9996 2.97208 7.39962 5.25826 4.69962 8.38273C1.99962 11.5072 0.599591 15.0127 0.299591 18.8993H0.199615V33.3023C0.199615 39.3988 1.7996 44.1236 4.9996 47.5529C5.5996 48.2388 6.2996 48.7722 6.9996 49.3819L12.3996 53.497C15.8996 56.1643 20.6996 57.4598 26.6996 57.4598C29.2996 57.4598 31.6996 57.0025 33.9996 56.1643V66.2997C33.9996 68.3573 33.2996 70.1101 31.7996 71.4818C30.3996 72.8535 28.2996 73.5394 25.6996 73.5394C24.7996 73.5394 23.9996 73.4632 23.2996 73.3108C22.8996 72.3963 22.6996 71.4056 22.6996 70.2625V68.2049L17.3996 64.166H0.0996094V65.9949C0.0996094 71.4056 2.29962 75.9018 6.69962 79.7121L6.8996 79.8645C6.9996 79.9407 7.09962 80.0169 7.19962 80.0931C7.89962 80.7028 8.59959 81.16 9.29959 81.6935L12.0996 83.8273C12.1996 83.9035 12.2996 83.9797 12.3996 84.0559C17.1996 88.0186 23.1996 90 30.4996 90C37.6996 90 43.5996 88.0186 48.3996 84.1321C53.1996 80.2456 55.5996 75.5208 55.5996 69.8815V24.0051C55.6996 18.5944 53.3996 13.8696 48.7996 10.0593ZM34.0996 35.5885C34.0996 36.1219 33.9996 36.884 33.6996 37.9509C32.5996 41.3802 29.9996 43.0567 25.7996 43.0567C24.9996 43.0567 24.1996 42.9805 23.5996 42.8281C23.0996 41.9136 22.8996 40.8467 22.8996 39.7799V24.2337C22.8996 22.1761 23.5996 20.4234 25.0996 19.0517C26.4996 17.6799 28.5996 16.9179 31.1996 16.9179C32.0996 16.9179 32.7996 16.9941 33.5996 17.1465C33.9996 18.061 34.2996 19.1279 34.2996 20.1947V35.5885H34.0996Z" fill="url(#paint0_linear_201:340)"/>
<path d="M45.3994 84.437C41.1994 81.3125 36.1994 77.4259 31.3994 73.8442C29.8994 74.6063 27.9994 75.0635 25.7994 75.0635C24.7994 75.0635 23.7994 74.9873 22.8994 74.7587L21.8994 74.5301L21.5994 73.768C21.0994 72.7011 20.8994 71.4818 20.8994 70.2625V68.8146L16.7994 65.6901H2.39941V65.9949C2.39941 71.0246 4.39942 75.1397 8.49942 78.7215L9.19943 79.3311C9.69943 79.7883 10.2994 80.1694 10.8994 80.5504H10.9994L13.8994 82.7604C13.8994 82.7604 14.0994 82.9128 14.1994 82.989C18.5994 86.6469 23.9994 88.4759 30.8994 88.4759C36.3994 88.5521 41.2994 87.1804 45.3994 84.437Z" fill="#C66205"/>
<path d="M8.5 48.315L10.8 50.0678L13.5 52.1254L13.9 52.4302C17.1 54.7926 21.3 55.9357 26.8 55.9357C29 55.9357 31.2 55.5547 33.3 54.7926L36.2 53.8019V62.1084L39.1 62.2608L36.4 42.2185L35.8 38.1795C35.8 38.2557 35.8 38.2558 35.8 38.332C34.2 43.514 29.5 44.5809 25.9 44.5809C25 44.5809 24.1 44.5047 23.2 44.3523L22.2 44.1999L21.8 43.4378C21.2 42.2947 20.9 41.0754 20.9 39.8561V24.31C20.9 22.481 21.4 20.8806 22.4 19.4327L14.7 13.5648H3.89999C3.09999 15.3176 2.70001 17.1465 2.60001 19.0517L2.5 19.7376V33.3023C2.5 39.0178 4 43.514 7 46.6385C7.3 47.2481 7.9 47.7816 8.5 48.315Z" fill="#C66205"/>
<path d="M25.3998 0C32.6998 0 38.6998 1.98139 43.4998 6.02034C48.0998 9.83067 50.4998 14.5555 50.4998 20.1186V65.9949C50.4998 71.558 48.0998 76.359 43.2998 80.2456C38.4998 84.1321 32.4998 86.1135 25.3998 86.1135C18.0998 86.1135 11.9998 84.1321 7.2998 80.1693C2.6998 76.2828 0.299805 71.6342 0.299805 66.0711V64.2422H17.5998V66.2997C17.5998 68.3573 18.2998 70.1101 19.7998 71.4818C21.1998 72.8535 23.2998 73.5394 25.8998 73.5394C28.4998 73.5394 30.5998 72.8535 31.9998 71.4818C33.3998 70.1101 34.1998 68.3573 34.1998 66.2997V49.4581C30.2998 52.1253 26.0998 53.4208 21.5998 53.4208C14.2998 53.4208 8.89983 51.4395 5.19983 47.5529C1.99983 44.1236 0.399811 39.3988 0.399811 33.3023V18.8993H0.499817C0.699817 15.0127 2.19981 11.5072 4.89981 8.38273C7.59981 5.25826 11.1998 2.97208 15.7998 1.44794C18.5998 0.457258 21.7998 0 25.3998 0ZM34.0998 20.271C34.0998 18.2134 33.3998 16.4606 31.8998 15.0889C30.4998 13.7172 28.3998 12.9551 25.7998 12.9551C23.1998 12.9551 21.0998 13.641 19.6998 15.0889C18.2998 16.4606 17.4998 18.2134 17.4998 20.271V35.8171C17.4998 38.2557 18.6998 40.3133 20.9998 41.9136C22.0998 42.6757 23.5998 43.0567 25.6998 43.0567C29.8998 43.0567 32.5998 41.3802 33.5998 37.9509C33.8998 36.9602 33.9998 36.1219 33.9998 35.5885V20.271H34.0998Z" fill="white"/>
<path d="M25.3998 83.8273C18.8998 83.8273 13.6998 82.1508 9.49982 78.5691C5.49982 75.216 3.4998 71.2532 3.2998 66.4522H14.5998C14.5998 68.967 15.5998 71.1008 17.3998 72.8536C19.3998 74.7587 22.2998 75.8256 25.8998 75.8256C29.3998 75.8256 32.3998 74.8349 34.3998 72.8536C36.2998 71.0246 37.1998 68.8146 37.1998 66.2998V49.4582C37.1998 48.5437 36.4998 47.7054 35.3998 47.4006C34.9998 47.2482 34.5998 47.172 34.1998 47.172C33.4998 47.172 32.7998 47.4006 32.1998 47.7816C28.8998 50.0678 25.3998 51.1347 21.5998 51.1347C15.2998 51.1347 10.6998 49.5344 7.69983 46.2575C4.89983 43.2854 3.39981 38.9416 3.39981 33.3786V19.509C3.39981 19.3565 3.49982 19.2041 3.49982 19.0517C3.69982 15.6224 4.99981 12.4217 7.39981 9.6783C9.79981 6.93487 12.8998 4.9535 16.9998 3.58178C19.5998 2.7435 22.4998 2.28625 25.5998 2.28625C32.0998 2.28625 37.2998 4.03903 41.4998 7.54453C45.6998 10.9738 47.6998 15.089 47.6998 20.1186V65.995C47.6998 71.0246 45.5998 75.1398 41.2998 78.6453C36.8998 82.1508 31.6998 83.8273 25.3998 83.8273ZM25.7998 10.669C22.1998 10.669 19.2998 11.7359 17.2998 13.6411C15.3998 15.47 14.4998 17.68 14.4998 20.271V35.8172C14.4998 38.9416 15.9998 41.5327 18.9998 43.5902C20.5998 44.7333 22.7998 45.343 25.6998 45.343C31.2998 45.343 35.1998 42.9044 36.4998 38.4844C36.8998 37.1889 36.9998 36.3506 36.9998 35.5886V20.1948C36.9998 17.6038 36.0998 15.3938 34.1998 13.5648C32.2998 11.6597 29.3998 10.669 25.7998 10.669Z" fill="url(#paint1_linear_201:340)"/>
<path d="M20.3002 75.1397C22.3002 77.0449 25.2002 78.1118 28.8002 78.1118C32.3002 78.1118 35.3002 77.1211 37.3002 75.1397C39.2002 73.3108 40.1002 71.1008 40.1002 68.586V51.7443C40.1002 50.8298 39.4002 49.9916 38.3002 49.6867C37.9002 49.5343 37.5002 49.4581 37.1002 49.4581V66.2998C37.1002 68.8908 36.2002 71.1008 34.3002 72.8535C32.3002 74.7587 29.4002 75.8256 25.8002 75.8256C23.5002 75.8256 21.4002 75.3684 19.7002 74.5301C19.9002 74.7587 20.1002 74.9873 20.3002 75.1397Z" fill="url(#paint2_linear_201:340)"/>
<path d="M40.0996 22.5573C40.0996 19.9663 39.1996 17.7563 37.2996 15.9273C36.5996 15.2415 35.7996 14.6318 34.7996 14.1746C36.2996 15.8511 37.0996 17.9087 37.0996 20.1949V35.5886C37.0996 36.2745 36.8996 37.1889 36.5996 38.4845C35.1996 42.9044 31.3996 45.3431 25.7996 45.3431C23.4996 45.3431 21.5996 44.962 20.0996 44.2C20.6996 44.8096 21.2996 45.3431 22.0996 45.8765C23.6996 47.0196 25.8996 47.6293 28.7996 47.6293C34.3996 47.6293 38.2996 45.1906 39.5996 40.7707C39.9996 39.4751 40.0996 38.6369 40.0996 37.8748V22.5573Z" fill="url(#paint3_linear_201:340)"/>
<path d="M10.7998 48.7723C10.6998 48.6961 10.5998 48.6199 10.5998 48.5437C7.79982 45.5716 6.2998 41.2278 6.2998 35.6648V21.7951C6.2998 21.6427 6.39981 21.4903 6.39981 21.3379C6.59981 17.9086 7.8998 14.7079 10.2998 11.9645C12.6998 9.22107 15.7998 7.23969 19.8998 5.86797C22.4998 5.0297 25.3998 4.57245 28.4998 4.57245C33.7998 4.57245 38.2998 5.79177 42.0998 8.15417C41.8998 7.92555 41.6998 7.77315 41.3998 7.54453C37.0998 3.96282 31.8998 2.28625 25.4998 2.28625C22.3998 2.28625 19.4998 2.7435 16.8998 3.58178C12.7998 4.9535 9.6998 6.93487 7.2998 9.6783C4.8998 12.4217 3.59981 15.5462 3.39981 19.0517C3.39981 19.2041 3.3998 19.3565 3.2998 19.509V33.3024C3.2998 38.8654 4.69982 43.2092 7.59982 46.1813C8.49982 47.2482 9.5998 48.0864 10.7998 48.7723Z" fill="url(#paint4_linear_201:340)"/>
<path d="M6.2998 68.8146H14.8998C14.6998 68.0526 14.5998 67.2905 14.5998 66.5284H3.2998C3.3998 71.3295 5.39982 75.2922 9.49982 78.6453C10.1998 79.2549 10.9998 79.7884 11.7998 80.3218C8.1998 77.045 6.3998 73.2346 6.2998 68.8146Z" fill="url(#paint5_linear_201:340)"/>
<defs>
<linearGradient id="paint0_linear_201:340" x1="27.8512" y1="0" x2="27.8512" y2="90" gradientUnits="userSpaceOnUse">
<stop stop-color="#F4C43A"/>
<stop offset="1" stop-color="#D65412"/>
</linearGradient>
<linearGradient id="paint1_linear_201:340" x1="25.4998" y1="2.28625" x2="25.4998" y2="83.8273" gradientUnits="userSpaceOnUse">
<stop stop-color="#F9C134"/>
<stop offset="1" stop-color="#F47935"/>
</linearGradient>
<linearGradient id="paint2_linear_201:340" x1="29.9002" y1="49.4581" x2="29.9002" y2="78.1118" gradientUnits="userSpaceOnUse">
<stop stop-color="#F4C43A"/>
<stop offset="1" stop-color="#D65412"/>
</linearGradient>
<linearGradient id="paint3_linear_201:340" x1="30.0996" y1="14.1746" x2="30.0996" y2="47.6293" gradientUnits="userSpaceOnUse">
<stop stop-color="#F4C43A"/>
<stop offset="1" stop-color="#D65412"/>
</linearGradient>
<linearGradient id="paint4_linear_201:340" x1="22.6998" y1="2.28625" x2="22.6998" y2="48.7723" gradientUnits="userSpaceOnUse">
<stop stop-color="#F4C43A"/>
<stop offset="1" stop-color="#D65412"/>
</linearGradient>
<linearGradient id="paint5_linear_201:340" x1="9.09981" y1="66.5284" x2="9.09981" y2="80.3218" gradientUnits="userSpaceOnUse">
<stop stop-color="#F4C43A"/>
<stop offset="1" stop-color="#D65412"/>
</linearGradient>
</defs>
</svg>
