<svg width="58" height="91" viewBox="0 0 58 91" fill="none" xmlns="http://www.w3.org/2000/svg">
<path d="M52.9996 36.2152C52.5996 35.7583 52.0996 35.2253 51.5996 34.8446C51.1996 34.4639 50.6996 34.1593 50.2996 33.8548L46.3996 30.8852C42.8996 27.9157 37.8996 26.3929 31.4996 26.3929C29.3996 26.3929 27.4996 26.6213 25.8996 27.1543C25.2996 27.3827 24.6996 27.6111 24.0996 27.8395V17.1035H56.4996V4.23549L51.1996 0.199951H1.9996V46.5705L7.29961 50.606H23.9996V48.3218C23.9996 46.5705 24.5996 44.9715 25.7996 43.4487C27.1996 41.6974 29.3996 40.7837 32.3996 40.7837C33.2996 40.7837 33.9996 40.8599 34.6996 41.0121C35.1996 41.9258 35.3996 42.9918 35.3996 44.134V64.9208C35.3996 70.403 31.9996 73.1441 25.0996 73.1441C24.2996 73.1441 23.4996 73.068 22.7996 72.8396C22.2996 71.9258 21.9996 70.936 21.8996 69.7939L21.4996 66.9005L16.1996 62.8649L0.0996094 63.7786V65.8345C0.0996094 71.469 2.39961 76.1898 7.09961 80.0731C8.19961 80.9868 9.3996 81.8243 10.6996 82.5857C11.1996 83.1187 11.7996 83.5756 12.2996 84.1086C17.1996 88.1441 23.2996 90.2 30.5996 90.2C38.1996 90.2 44.4996 88.2203 49.4996 84.337C54.6996 80.3015 57.2996 75.2 57.2996 68.8801V50.606C57.4996 44.3624 55.9996 39.5654 52.9996 36.2152Z" fill="url(#paint0_linear_201:385)"/>
<path d="M41.4998 70.8598C41.4998 70.8598 39.5998 69.87 36.8998 68.4233C35.4998 72.4588 31.3998 74.5908 25.0998 74.5908C24.0998 74.5908 23.0998 74.4385 22.0998 74.2101L21.2998 73.9816L20.9998 73.3725C20.4998 72.3065 20.0998 71.1644 19.9998 69.9461L19.6998 67.5857L15.5998 64.4639L2.2998 65.2253V65.8344C2.2998 71.0882 4.3998 75.4283 8.7998 79.007C9.7998 79.8446 10.9998 80.6821 12.0998 81.2913L12.2998 81.4436L12.4998 81.5958C12.9998 82.0527 13.4998 82.5095 13.9998 82.9664C18.4998 86.6974 23.9998 88.6009 30.7998 88.6009C37.8998 88.6009 43.5998 86.8497 48.1998 83.1948C49.7998 81.9004 51.1998 80.5299 52.2998 79.0832L41.4998 70.8598Z" fill="#C66205"/>
<path d="M18.6996 13.068V31.2659C20.3996 29.4385 22.6996 28.068 25.6996 27.0781C27.2996 26.5451 29.1996 26.3167 31.2996 26.3167C38.6996 26.3167 44.0996 28.2964 47.5996 32.1796C50.5996 35.5299 52.0996 40.3269 52.0996 46.5705V64.8446C52.0996 71.0883 49.4996 76.2659 44.2996 80.3015C39.2996 84.1847 32.9996 86.1644 25.3996 86.1644C17.9996 86.1644 11.8996 84.1086 7.09961 80.0731C2.39961 76.1898 0.0996094 71.469 0.0996094 65.8345V63.7786L16.1996 62.8649L16.5996 65.7583C16.9996 69.1847 18.7996 71.3928 21.9996 72.535C22.8996 72.9157 23.9996 73.068 24.9996 73.068C31.8996 73.068 35.2996 70.3269 35.2996 64.8446V44.0578C35.2996 41.5451 34.0996 39.4893 31.6996 37.8903C30.5996 37.1289 28.9996 36.7482 26.9996 36.7482C23.9996 36.7482 21.7996 37.6619 20.3996 39.4132C19.1996 40.936 18.5996 42.6111 18.5996 44.2863V46.5705H1.79961V0.199951H50.9996V13.068H18.6996Z" fill="white"/>
<path d="M25.5998 83.8802C19.0998 83.8802 13.7998 82.1289 9.4998 78.5503C5.2998 75.0477 3.2998 70.936 3.2998 65.9107L13.6998 65.3015L13.7998 65.9868C14.3998 71.2406 17.9998 73.601 20.9998 74.5909C22.2998 75.0477 23.6998 75.3523 25.2998 75.3523C33.8998 75.3523 38.5998 71.6213 38.5998 64.8447V44.0579C38.5998 40.936 37.0998 38.2711 33.9998 36.2152C32.2998 35.0731 29.9998 34.464 27.2998 34.464C23.2998 34.464 20.0998 35.7584 18.0998 38.1949C16.5998 40.0985 15.8998 42.1543 15.8998 44.2863H5.09981V2.48425H48.2998V10.7838H18.8998C17.1998 10.7838 15.8998 11.7736 15.8998 13.068V31.266C15.8998 32.2558 16.6998 33.1695 17.9998 33.4741C18.2998 33.5502 18.5998 33.5502 18.8998 33.5502C19.8998 33.5502 20.7998 33.1695 21.3998 32.5604C22.7998 31.1137 24.5998 29.9716 27.1998 29.134C28.3998 28.7533 29.8998 28.601 31.5998 28.601C37.9998 28.601 42.4998 30.2 45.3998 33.4741C48.0998 36.4436 49.3998 40.8599 49.3998 46.5706V64.8447C49.3998 70.5553 47.0998 75.0477 42.3998 78.7025C37.8998 82.1289 32.3998 83.8802 25.5998 83.8802Z" fill="url(#paint1_linear_201:385)"/>
<path d="M31.3998 28.601C29.6998 28.601 28.0998 28.8294 26.9998 29.1339C24.4998 29.9715 22.5998 31.1136 21.1998 32.5603C20.5998 33.1695 19.6998 33.5502 18.7998 33.5502C18.7998 34.54 19.5998 35.4537 20.8998 35.7583C20.9998 35.7583 20.9998 35.7583 21.0998 35.7583C22.0998 35.2253 23.1998 34.9207 24.3998 34.6923C25.6998 33.3218 27.5998 32.2558 29.9998 31.4944C31.1998 31.1136 32.6998 30.9614 34.3998 30.9614C38.6998 30.9614 42.1998 31.7228 44.8998 33.2456C41.8998 30.1238 37.4998 28.601 31.3998 28.601Z" fill="url(#paint2_linear_201:385)"/>
<path d="M23.8992 76.8752C25.1992 77.332 26.5992 77.6366 28.1992 77.6366C36.7992 77.6366 41.4992 73.9056 41.4992 67.129V46.3422C41.4992 43.2204 39.9992 40.5554 36.8992 38.4995C36.5992 38.2711 36.2992 38.1188 35.9992 37.9666C37.6992 39.7178 38.4992 41.7737 38.4992 44.0579V64.8447C38.4992 71.6214 33.7992 75.3523 25.1992 75.3523C23.6992 75.3523 22.1992 75.1239 20.8992 74.5909C20.3992 74.3625 19.7992 74.1341 19.1992 73.9056C20.5992 75.4285 22.2992 76.3422 23.8992 76.8752Z" fill="url(#paint3_linear_201:385)"/>
<path d="M7.89941 4.76852H48.0994V2.48425H4.89941V44.2863H7.89941V4.76852Z" fill="url(#paint4_linear_201:385)"/>
<path d="M6.1996 68.1949L13.9996 67.7381C13.7996 67.2051 13.6996 66.5959 13.5996 65.9868L13.4996 65.3015L3.09961 65.9107C3.09961 70.936 5.19961 75.0477 9.29961 78.5503C10.0996 79.2355 10.8996 79.7685 11.6996 80.3015C8.0996 76.8751 6.2996 72.9919 6.1996 68.1949Z" fill="url(#paint5_linear_201:385)"/>
<path d="M54.3992 15.5045L51.0992 13.068H18.6992L21.9992 15.5045H54.3992Z" fill="#C66205"/>
<path d="M7.99922 49.0071H21.9992L18.6992 46.5706H4.69922L7.99922 49.0071Z" fill="#C66205"/>
<defs>
<linearGradient id="paint0_linear_201:385" x1="28.7085" y1="0.199951" x2="28.7085" y2="90.2" gradientUnits="userSpaceOnUse">
<stop stop-color="#F6C337"/>
<stop offset="1" stop-color="#F37535"/>
</linearGradient>
<linearGradient id="paint1_linear_201:385" x1="26.3498" y1="2.48425" x2="26.3498" y2="83.8802" gradientUnits="userSpaceOnUse">
<stop stop-color="#F9C134"/>
<stop offset="1" stop-color="#F47935"/>
</linearGradient>
<linearGradient id="paint2_linear_201:385" x1="31.8498" y1="28.601" x2="31.8498" y2="35.7583" gradientUnits="userSpaceOnUse">
<stop stop-color="#F6C337"/>
<stop offset="1" stop-color="#F37535"/>
</linearGradient>
<linearGradient id="paint3_linear_201:385" x1="30.3492" y1="37.9666" x2="30.3492" y2="77.6366" gradientUnits="userSpaceOnUse">
<stop stop-color="#F6C337"/>
<stop offset="1" stop-color="#F37535"/>
</linearGradient>
<linearGradient id="paint4_linear_201:385" x1="26.4994" y1="2.48425" x2="26.4994" y2="44.2863" gradientUnits="userSpaceOnUse">
<stop stop-color="#F6C337"/>
<stop offset="1" stop-color="#F37535"/>
</linearGradient>
<linearGradient id="paint5_linear_201:385" x1="8.54961" y1="65.3015" x2="8.54961" y2="80.3015" gradientUnits="userSpaceOnUse">
<stop stop-color="#F6C337"/>
<stop offset="1" stop-color="#F37535"/>
</linearGradient>
</defs>
</svg>
