<svg width="62" height="90" viewBox="0 0 62 90" fill="none" xmlns="http://www.w3.org/2000/svg">
<path d="M29.3996 73.125C30.0996 72.3649 30.7996 71.4527 31.6996 70.4645L34.7996 66.9679C38.4996 62.7111 41.1996 59.5946 43.0996 57.6182C49.8996 50.2449 54.2996 45.076 56.1996 42.1115C59.5996 36.7145 61.2996 31.0135 61.2996 25.2365C61.2996 19.6875 58.7996 14.8986 53.7996 10.7179L53.6996 10.6419C53.5996 10.5659 53.4996 10.4899 53.3996 10.4139C52.7996 9.95777 52.2996 9.5777 51.6996 9.12162L48.7996 6.91723C48.5996 6.7652 48.3996 6.53716 48.0996 6.38513C42.7996 2.12838 36.4996 0 29.0996 0C20.9996 0 14.4996 1.90034 9.4996 5.70101C3.6996 9.95777 0.899597 16.1909 0.899597 24.3243V26.6047L6.1996 30.6334H22.8996V27.3649C22.8996 25.4645 23.1996 23.7922 23.8996 22.424C25.8996 18.2432 29.1996 16.1909 33.9996 16.1909C35.5996 16.1909 36.9996 16.4189 38.2996 16.875C39.1996 18.3193 39.6996 19.9155 39.6996 21.7399C39.6996 24.9324 38.5996 28.353 36.4996 32.0777C33.8996 36.5625 29.9996 41.6554 24.7996 47.2044C19.2996 53.1334 15.1996 57.4662 12.5996 60.1267L8.1996 64.9916C6.7996 66.5878 5.49961 68.0321 4.29961 69.4003C1.79961 72.2888 0.599609 73.8851 0.599609 74.1132V85.9713L5.8996 90H61.2996V77.3057L55.9996 73.277H29.3996V73.125Z" fill="url(#paint0_linear_201:351)"/>
<path d="M27.0994 73.1249L27.7994 72.2888C28.4994 71.4526 29.1994 70.6165 30.0994 69.6283L33.1994 66.1317C36.7994 61.8749 39.5994 58.7584 41.4994 56.706C43.3994 54.6536 45.0994 52.7533 46.6994 51.005L32.8994 40.5151C30.9994 42.8716 28.8994 45.304 26.4994 47.8884C20.9994 53.7415 16.8994 58.1503 14.2994 60.8107L9.89941 65.6756C8.49941 67.2719 7.19942 68.7161 5.99942 70.0084C4.69942 71.5286 3.89941 72.4408 3.39941 73.1249H27.0994Z" fill="#C66205"/>
<path d="M0.799606 24.3243C0.799606 16.1909 3.6996 10.0338 9.3996 5.70101C14.3996 1.90034 20.8996 0 28.9996 0C36.3996 0 42.7996 2.12838 47.9996 6.38513C53.2996 10.6419 55.8996 15.5828 55.8996 21.2078C55.8996 27.0608 54.1996 32.6858 50.7996 38.0828C48.8996 41.1233 44.5996 46.2922 37.6996 53.5895C35.7996 55.5659 33.0996 58.7584 29.3996 62.9392L26.2996 66.4358C24.2996 68.7162 22.7996 70.5405 21.7996 71.8328C21.2996 72.5169 21.0996 72.897 21.0996 73.049H55.9996V85.7432H0.599609V73.9612C0.599609 73.6571 1.79961 72.1368 4.29961 69.2483C5.39961 67.9561 6.6996 66.4358 8.1996 64.8395L12.5996 59.9747C15.1996 57.3142 19.1996 52.9814 24.7996 47.0524C29.9996 41.5034 33.8996 36.4865 36.4996 31.9257C38.5996 28.201 39.6996 24.7804 39.6996 21.5878C39.6996 19.0034 38.6996 16.799 36.7996 14.9747C34.6996 13.0743 31.9996 12.0861 28.6996 12.0861C23.9996 12.0861 20.5996 14.1385 18.5996 18.3193C17.8996 19.6875 17.5996 21.3598 17.5996 23.2601V26.5287H0.899597V24.3243H0.799606Z" fill="white"/>
<path d="M3.5 83.5388V74.4172C3.8 74.0372 4.6 72.973 6.7 70.4645C7.8 69.1723 9.1 67.728 10.5 66.1317L14.9 61.2669C17.5 58.6064 21.6 54.2736 27.1 48.3446C32.4 42.6436 36.5 37.4747 39.1 32.8378C41.4 28.8851 42.5 25.0844 42.5 21.5878C42.5 18.4713 41.3 15.7348 39 13.5304C36.3 11.0219 32.8 9.80573 28.6 9.80573C24.4 9.80573 18.7 11.174 15.7 17.5591C14.9 19.1554 14.5 21.0557 14.5 23.2601V24.2483H3.8C3.8 16.799 6.4 11.098 11.5 7.29729C16 3.95269 21.7 2.2804 29.1 2.2804C35.7 2.2804 41.3 4.10472 46 7.9054C50.8 11.7821 53.1 16.1149 53.1 21.2078C53.1 26.6807 51.5 32.0017 48.3 37.0946C46.5 39.9831 42.2 45.076 35.5 52.2973C33.6 54.3497 30.8 57.5422 27.2 61.723L24.2 65.2196C22.1 67.576 20.6 69.4003 19.6 70.7686C19.6 70.7686 19.6 70.8446 19.5 70.8446C18.7 71.9848 18.4 72.5169 18.4 73.125C18.4 74.4172 19.7 75.4054 21.4 75.4054H53V83.5388H3.5Z" fill="url(#paint1_linear_201:351)"/>
<path d="M6.8996 29.0371H20.7996L17.4996 26.5287H3.59961L6.8996 29.0371Z" fill="#C66205"/>
<path d="M6.59981 88.3277H59.1998L55.9998 85.8192H3.2998L6.59981 88.3277Z" fill="#C66205"/>
<path d="M21.2002 75.4054C21.2002 76.6216 22.5002 77.6858 24.2002 77.6858H53.0002V75.4054H21.2002Z" fill="#C66205"/>
<path d="M6.5 76.6976C6.8 76.3175 7.6 75.2533 9.7 72.7449C10.8 71.4527 12.1 70.0084 13.5 68.4121L17.9 63.5473C20.5 60.8868 24.6 56.554 30.1 50.625C35.4 44.9239 39.5 39.755 42.1 35.1182C44.4 31.1655 45.5 27.3648 45.5 23.8682C45.5 20.7517 44.3 18.0152 42 15.8108C41.2 15.1267 40.4 14.5185 39.4 13.9865C41.5 16.1148 42.5 18.6993 42.5 21.5878C42.5 25.0844 41.4 28.8851 39.1 32.8378C36.4 37.4746 32.4 42.7196 27.1 48.3446C21.6 54.1976 17.5 58.6064 14.9 61.2669L10.5 66.1317C9.1 67.652 7.8 69.1723 6.7 70.4645C4.6 72.9729 3.8 73.9611 3.5 74.4172V83.5388H6.5V76.6976Z" fill="url(#paint2_linear_201:351)"/>
<path d="M14.4998 9.57769C18.9998 6.15708 24.6998 4.5608 31.9998 4.5608C37.6998 4.5608 42.4998 5.92904 46.7998 8.66553C46.4998 8.43749 46.1998 8.20945 45.8998 7.9054C41.1998 4.10472 35.6998 2.2804 28.9998 2.2804C21.6998 2.2804 15.8998 3.95269 11.4998 7.29729C6.3998 11.098 3.7998 16.799 3.7998 24.2483H6.8998C7.2998 17.9392 9.8998 12.9983 14.4998 9.57769Z" fill="url(#paint3_linear_201:351)"/>
<defs>
<linearGradient id="paint0_linear_201:351" x1="30.9496" y1="0" x2="30.9496" y2="90" gradientUnits="userSpaceOnUse">
<stop stop-color="#F4C43A"/>
<stop offset="1" stop-color="#D65412"/>
</linearGradient>
<linearGradient id="paint1_linear_201:351" x1="28.3" y1="2.2804" x2="28.3" y2="83.5388" gradientUnits="userSpaceOnUse">
<stop stop-color="#F9C134"/>
<stop offset="1" stop-color="#F47935"/>
</linearGradient>
<linearGradient id="paint2_linear_201:351" x1="24.5" y1="13.9865" x2="24.5" y2="83.5388" gradientUnits="userSpaceOnUse">
<stop stop-color="#F4C43A"/>
<stop offset="1" stop-color="#D65412"/>
</linearGradient>
<linearGradient id="paint3_linear_201:351" x1="25.2998" y1="2.2804" x2="25.2998" y2="24.2483" gradientUnits="userSpaceOnUse">
<stop stop-color="#F4C43A"/>
<stop offset="1" stop-color="#D65412"/>
</linearGradient>
</defs>
</svg>
