<svg width="62" height="90" viewBox="0 0 62 90" fill="none" xmlns="http://www.w3.org/2000/svg">
<path d="M59.4 54.4898C57.8 52.0408 55.9 49.9745 53.6 48.2908L48.5 44.3878C50.5 43.3929 52.3 42.1684 53.9 40.7908C58.2 36.9643 60.3 32.449 60.3 27.2449V23.648C60.3 18.2143 58.1 13.699 53.7 10.102C53.3 9.71939 52.9 9.41327 52.4 9.10714L48.8 6.35204V6.42857C48.7 6.35204 48.6 6.19898 48.5 6.12245C43.6 2.06633 37.1 0 29.1 0C20.6 0 14 2.14286 9.29999 6.42857C5.19999 10.1786 3.10001 15.0765 3.10001 21.0459V22.9592L8.39999 27.0153H25.3V24.7959C25.3 22.2704 25.9 20.2806 27.2 18.75C28.9 16.6837 31.6 15.6888 35.2 15.6888C36.7 15.6888 37.9 15.8418 39.1 16.0714C39.6 17.1429 39.8 18.4439 39.8 19.898V21.8112C39.8 26.25 38.3 29.6939 35.4 32.1429C32.2 34.898 27.3 36.2755 20.7 36.2755V47.1429L26 51.199C30.6 51.199 34.3 51.8112 37.1 52.9592C38.4 54.8724 39.1 57.2449 39.1 60.0765V65.051C39.1 70.4847 35.1 73.1633 27.3 73.1633C25.8 73.1633 24.5 73.0102 23.4 72.6275C23 71.7857 22.7 70.9439 22.6 69.949L22.2 66.9643L16.9 62.9082L0.5 63.8265V65.8929C0.5 71.0969 2.90001 75.6122 7.60001 79.3622L7.79999 79.5153C7.99999 79.6684 8.3 79.898 8.5 80.051C8.6 80.1275 8.60001 80.1276 8.70001 80.2041L12.9 83.4184C13.2 83.648 13.5 83.8775 13.8 84.1071C19.1 88.0867 25.5 90 33.1 90C40.9 90 47.5 88.0867 53.1 84.1837C58.9 80.2041 61.8 75.0765 61.8 68.8775V62.2194C61.5 59.3878 60.8 56.7092 59.4 54.4898Z" fill="url(#paint0_linear_201:372)"/>
<path d="M9.20041 25.5613H23.2004L19.9004 23.0358H5.90039L9.20041 25.5613Z" fill="#C66205"/>
<path d="M48.9002 28.0103L22.7002 43.3929V46.6072L26.8002 49.7449C31.3002 49.8215 35.1002 50.5103 38.0002 51.7347L38.5002 51.9643L38.8002 52.347C39.2002 52.8827 39.5002 53.4949 39.8002 54.1072L47.3002 45.7654L45.3002 44.2347L47.3002 43.1633C49.2002 42.1684 50.9002 41.097 52.3002 39.796C54.3002 38.0358 55.7002 36.1225 56.7002 34.0562L48.9002 28.0103Z" fill="#C66205"/>
<path d="M38.9004 71.1735C36.9004 73.2398 33.4004 74.8469 27.2004 74.8469C25.5004 74.8469 23.9004 74.6173 22.5004 74.2347L21.7004 74.0051L21.4004 73.3928C20.9004 72.3979 20.6004 71.403 20.4004 70.3316L20.1004 67.9592L16.0004 64.8214L2.40039 65.5867V66.2755C2.40039 71.0969 4.50039 75.153 8.90039 78.75L9.1004 78.903C9.3004 79.0561 9.50041 79.2092 9.70041 79.3622L9.90039 79.4388L10.7004 80.051V79.8979L14.2004 82.7296C14.5004 82.9592 14.7004 83.1888 15.0004 83.3418C19.9004 87.0153 25.8004 88.852 32.9004 88.852C40.2004 88.852 46.3004 87.0918 51.5004 83.4949C52.1004 83.1122 52.6004 82.653 53.1004 82.2704L38.9004 71.1735Z" fill="#C66205"/>
<path d="M27.2004 73.3163C35.1004 73.3163 39.0004 70.6378 39.0004 65.2041V60.2296C39.0004 51.5816 32.9004 47.2959 20.6004 47.2959V36.352C27.2004 36.352 32.1004 34.9745 35.3004 32.2194C38.2004 29.7704 39.7004 26.3265 39.7004 21.8878V19.9745C39.7004 14.4643 36.4004 11.7092 29.9004 11.7092C26.3004 11.7092 23.6004 12.7041 21.9004 14.7704C20.6004 16.301 20.0004 18.3673 20.0004 20.8163V23.0357H3.1004V21.1225C3.1004 15.1531 5.20038 10.2551 9.30038 6.5051C14.0004 2.14286 20.5004 0 29.1004 0C37.2004 0 43.7004 1.9898 48.5004 6.04592C52.9004 9.64286 55.1004 14.2347 55.1004 19.5918V23.1888C55.1004 28.4694 53.0004 32.9847 48.7004 36.7347C46.9004 38.3418 44.7004 39.7194 42.3004 40.8674C47.4004 43.0102 51.4004 46.148 54.1004 50.5102C55.6004 52.7296 56.3004 55.4082 56.3004 58.5459V65.2041C56.3004 71.4031 53.4004 76.5306 47.6004 80.5102C42.1004 84.3367 35.4004 86.3265 27.6004 86.3265C20.0004 86.3265 13.6004 84.3367 8.30038 80.4337C3.00038 76.4541 0.400391 71.7857 0.400391 66.2755V64.2092L16.8004 63.2908L17.2004 66.2755C17.4004 68.4184 18.5004 70.1021 20.3004 71.4796C22.0004 72.6276 24.4004 73.3163 27.2004 73.3163Z" fill="white"/>
<path d="M27.7 83.9541C20.9 83.9541 15.2 82.2704 10.5 78.6735C5.8 75.153 3.5 71.0969 3.5 66.199L14.2 65.5867L14.3 66.2755C14.6 68.9541 15.9 71.1735 18.2 72.8571C20.6 74.6173 23.6 75.5357 27.3 75.5357C36.9 75.5357 42.1 71.8622 42.1 65.1275V60.153C42.1 53.5714 38.8 45.8418 23.7 45V38.5714C29.7 38.1888 34.4 36.5816 37.6 33.8265C41 30.9949 42.7 26.9388 42.7 21.9643V20.051C42.7 13.2398 38.1 9.48978 29.9 9.48978C24 9.48978 20.9 11.7092 19.3 13.6224C17.7 15.5357 16.9 17.9847 16.9 20.8163H6C6.1 15.5357 7.9 11.25 11.5 7.95916C15.6 4.13263 21.3 2.2959 29 2.2959C36.3 2.2959 41.9 4.0561 46.2 7.57651C50.1 10.7908 52 14.6939 52 19.5918V23.1888C52 27.9337 50.1 31.8367 46.3 35.2806C44.7 36.6581 42.8 37.8826 40.7 38.8775C39.8 39.3367 39.2 40.102 39.2 40.8673C39.2 41.7092 39.8 42.4745 40.8 42.8571C45.4 44.7704 48.8 47.602 51.4 51.5051C52.6 53.4184 53.3 55.7143 53.3 58.4694V65.1275C53.3 70.7143 50.8 75.153 45.6 78.75C40.6 82.2704 34.8 83.9541 27.7 83.9541Z" fill="url(#paint1_linear_201:372)"/>
<path d="M21.1006 75.1531C23.5006 76.9133 26.5006 77.8317 30.2006 77.8317C39.8006 77.8317 45.0006 74.1582 45.0006 67.4235V62.449C45.0006 58.1633 43.6006 53.3419 38.3006 50.2806C41.2006 53.1888 42.0006 56.8623 42.0006 60.1531V65.1276C42.0006 71.8623 36.7006 75.5357 27.2006 75.5357C24.3006 75.5357 21.7006 74.9235 19.6006 73.7755C20.1006 74.3113 20.6006 74.7704 21.1006 75.1531Z" fill="url(#paint2_linear_201:372)"/>
<path d="M40.5008 13.1632C42.0008 14.8469 42.8008 17.1428 42.8008 19.8979V21.8112C42.8008 26.7857 41.1008 30.8418 37.7008 33.6734C34.5008 36.4285 29.8008 38.0357 23.8008 38.4183V44.8469C24.9008 44.9234 25.8008 44.9999 26.8008 45.153V40.7142C32.8008 40.3316 37.5008 38.7244 40.7008 35.9693C44.1008 33.1377 45.8008 29.0816 45.8008 24.1071V22.1938C45.7008 17.9846 43.9008 14.9234 40.5008 13.1632Z" fill="url(#paint3_linear_201:372)"/>
<path d="M42.3008 43.5459C42.5008 44.2347 43.0008 44.8469 43.8008 45.153C45.3008 45.7653 46.6008 46.4541 47.8008 47.2194C46.2008 45.8418 44.4008 44.6173 42.3008 43.5459Z" fill="url(#paint4_linear_201:372)"/>
<path d="M14.5006 10.2551C18.6006 6.42855 24.3006 4.59182 32.0006 4.59182C38.1006 4.59182 43.0006 5.81631 47.0006 8.34182C46.7006 8.11222 46.5006 7.88263 46.2006 7.65304C42.0006 4.0561 36.3006 2.2959 29.1006 2.2959C21.5006 2.2959 15.7006 4.13263 11.6006 7.95916C8.00059 11.1734 6.20059 15.5357 6.10059 20.8163H9.20059C9.70059 16.5306 11.5006 13.0102 14.5006 10.2551Z" fill="url(#paint5_linear_201:372)"/>
<path d="M6.40039 68.4948L14.6004 68.0357C14.4004 67.4999 14.3004 66.8877 14.2004 66.352L14.1004 65.6632L3.40039 66.2754C3.40039 71.1734 5.70039 75.2295 10.4004 78.7499C10.8004 79.0561 11.2004 79.2857 11.6004 79.5918C8.2004 76.3775 6.40039 72.704 6.40039 68.4948Z" fill="url(#paint6_linear_201:372)"/>
<defs>
<linearGradient id="paint0_linear_201:372" x1="31.15" y1="0" x2="31.15" y2="90" gradientUnits="userSpaceOnUse">
<stop stop-color="#F4C43A"/>
<stop offset="1" stop-color="#D65412"/>
</linearGradient>
<linearGradient id="paint1_linear_201:372" x1="28.4" y1="2.2959" x2="28.4" y2="83.9541" gradientUnits="userSpaceOnUse">
<stop stop-color="#F9C134"/>
<stop offset="1" stop-color="#F47935"/>
</linearGradient>
<linearGradient id="paint2_linear_201:372" x1="32.3006" y1="50.2806" x2="32.3006" y2="77.8317" gradientUnits="userSpaceOnUse">
<stop stop-color="#F3C439"/>
<stop offset="1" stop-color="#F37535"/>
</linearGradient>
<linearGradient id="paint3_linear_201:372" x1="34.8008" y1="13.1632" x2="34.8008" y2="45.153" gradientUnits="userSpaceOnUse">
<stop stop-color="#F3C439"/>
<stop offset="1" stop-color="#F37535"/>
</linearGradient>
<linearGradient id="paint4_linear_201:372" x1="45.0508" y1="43.5459" x2="45.0508" y2="47.2194" gradientUnits="userSpaceOnUse">
<stop stop-color="#F3C439"/>
<stop offset="1" stop-color="#F37535"/>
</linearGradient>
<linearGradient id="paint5_linear_201:372" x1="26.5506" y1="2.2959" x2="26.5506" y2="20.8163" gradientUnits="userSpaceOnUse">
<stop stop-color="#F3C439"/>
<stop offset="1" stop-color="#F37535"/>
</linearGradient>
<linearGradient id="paint6_linear_201:372" x1="9.0004" y1="65.6632" x2="9.0004" y2="79.5918" gradientUnits="userSpaceOnUse">
<stop stop-color="#F3C439"/>
<stop offset="1" stop-color="#F37535"/>
</linearGradient>
</defs>
</svg>
